M48
;Layer_Color=9474304
;FILE_FORMAT=2:4
INCH,TZ
;TYPE=PLATED
T01F00S00C0.0118
T02F00S00C0.0256
T03F00S00C0.0295
T04F00S00C0.0315
T06F00S00C0.0409
T07F00S00C0.0433
T08F00S00C0.0591
T09F00S00C0.1024
T10F00S00C0.1063
T11F00S00C0.1220
;TYPE=NON_PLATED
T12F00S00C0.1260
%
T01
X3587Y787
X5555
X7524
X9492
X11461
X13429
X15398
X17366
X19335
X21303
X27209
X29177
X28130Y2102
X33114Y787
X35083
X37051
X38035Y2756
X36067
X32303Y3087
X31516
X31476Y3913
X32264Y5354
X32130Y6693
X34154Y8465
Y8898
X35083Y8661
X35413Y9016
X35768
X36122
X36240Y7441
X36673
X37067
Y7008
X36673
X36240
X37972Y6811
X35807Y11772
X35778Y12520
X34469Y11673
X33996Y10866
X31752Y10921
X31102Y12451
X31142Y13041
X32156Y13165
X33386Y12589
X36594Y14921
X36555Y16102
Y16693
Y17283
X37051Y16535
X30177Y13720
X30463Y13146
X30531Y11011
X30161Y10630
X28193
X28533Y11043
X28529Y11368
X28839Y11728
X28720Y12283
X29055Y12280
X28563Y14724
X28287Y14528
X25266Y13858
X25256Y13150
Y12402
X24154Y12953
Y13583
X23514Y16128
X19833Y16404
X19547Y15699
X19665Y14055
X20020Y13465
X20413Y13504
X19842Y13205
X19823Y12835
X20679Y11236
X21772Y11250
X22461Y11260
X23711Y10118
X24557
X24508Y7402
X24941Y7411
X24045Y7392
X23622Y7382
X22618Y8268
X22382Y8465
X20492Y8583
X19587Y7677
X19203Y5886
Y5561
X19213Y5177
Y4793
Y4429
X20728Y3559
Y2732
X23061Y2323
X24311Y2673
X25413Y2654
X26224Y2756
X26004Y5079
X26476
X27972Y4134
X29941Y3441
Y3165
Y2890
X29646Y2402
X30650Y2457
X30531Y3924
X27209Y8661
X22411Y5787
X21112Y5315
X16289Y6604
X16230Y8976
X17366Y8661
X17461Y10591
X18484
X19468
X17539Y12333
X16992Y11945
X17372Y13248
X17326Y14377
X16949Y15148
X16063Y13701
X15285Y13179
X12445Y10630
X10476
X8508
X6539
X4571
X3587Y12598
X4571Y14567
X6539
X10476
X9272Y17638
X8508Y6693
X10476
X12445
X13429Y4724
X11461
X9492
X10476Y2756
X12445
X5555Y4724
X1618
X2602Y2756
Y18504
X4571
X1618Y20472
X2602Y22441
X8857Y19457
X9272Y19488
X9941Y19393
X11240Y21732
X11594Y21417
X16382Y18504
X22287
X21732Y20669
X20295Y20754
X20020Y21000
Y21512
X19774Y21778
X23425Y21575
X23359Y20709
X25394
X25276Y21535
X27008Y21575
X26890Y20709
X29177Y20472
X28937Y21220
X31146Y20472
X33114
X35083
X37051
X36067Y18504
X36555Y17874
X34098Y18504
X32130
T02
X8138Y13157
X9138
X10138
X11138
X12138
Y16157
X11138
X10138
X9138
X8138
T03
X3839Y22299
Y23087
X4626
X5413
X6201
X6988
X7776
X8563
X9350
X10138
X10925
Y22299
X10138
X9350
X8563
X7776
X6988
X6201
X5413
X4626
X13110
X13898
X14685
Y23087
X13898
X13110
X15472
Y22299
X16260
X17047
X17835
X18622
X19409
X20197
Y23087
X19409
X18622
X17835
X17047
X16260
X22372
Y22299
X23159
X23947
X24734
X25522
X26309
X27096
X27884
X28671
X29459
Y23087
X28671
X27884
X27096
X26309
X25522
X24734
X23947
X23159
T04
X7185Y8165
Y8953
Y9740
X9154
Y8953
Y8165
X11122
Y8953
Y9740
X13091
Y8953
Y8165
T06
X16015Y2778
Y3778
X17015
Y2778
X18015
Y3778
X15015
X14015
X13015
Y2778
X14015
X15015
X9015
X8015
X7015
X6015
X5015
X4015
Y3778
X5015
X6015
X7015
X8015
X9015
T07
X31571Y8126
X30571
X29571
X26280Y7945
Y8945
Y9945
Y10945
Y11945
Y12945
X21492Y18150
X20492
X19492
X18492
X17492
T08
X7185Y7339
X9154
X11122
X13091
Y10567
X11122
X9154
X7185
T09
X36398Y4213
T10
X34547Y5472
T11
X34547Y3031
T12
X1575Y1575
X37795
X1575Y22441
X37795
M30
