G04*
G04 #@! TF.GenerationSoftware,Altium Limited,Altium Designer,25.2.1 (25)*
G04*
G04 Layer_Color=16711935*
%FSLAX25Y25*%
%MOIN*%
G70*
G04*
G04 #@! TF.SameCoordinates,382838D2-828E-4769-9F82-A9EE904C746A*
G04*
G04*
G04 #@! TF.FilePolarity,Negative*
G04*
G01*
G75*
%ADD68C,0.05512*%
%ADD69C,0.08268*%
%ADD70C,0.14567*%
%ADD71C,0.12992*%
%ADD72C,0.12598*%
%ADD73C,0.04528*%
%ADD74R,0.04528X0.04528*%
%ADD75O,0.06693X0.08268*%
%ADD76R,0.06693X0.08268*%
%ADD77O,0.12598X0.06299*%
%ADD78O,0.09449X0.06299*%
%ADD79C,0.06496*%
%ADD80O,0.08268X0.06693*%
%ADD81R,0.08268X0.06693*%
%ADD82C,0.05118*%
%ADD83R,0.05118X0.05118*%
%ADD114R,0.03937X0.02756*%
D68*
X71850Y89527D02*
D03*
Y81653D02*
D03*
Y97401D02*
D03*
X130905Y89527D02*
D03*
Y81653D02*
D03*
Y97401D02*
D03*
X111221D02*
D03*
Y81653D02*
D03*
Y89527D02*
D03*
X91535Y97401D02*
D03*
Y81653D02*
D03*
Y89527D02*
D03*
D69*
X71850Y105669D02*
D03*
Y73386D02*
D03*
X130905Y105669D02*
D03*
Y73386D02*
D03*
X111221D02*
D03*
Y105669D02*
D03*
X91535Y73386D02*
D03*
Y105669D02*
D03*
D70*
X345472Y30315D02*
D03*
D71*
Y54724D02*
D03*
X377953Y15748D02*
D03*
X15748D02*
D03*
Y224410D02*
D03*
X377953D02*
D03*
D72*
X363976Y42126D02*
D03*
D73*
X131103Y222992D02*
D03*
X138977D02*
D03*
X146851D02*
D03*
X154725D02*
D03*
X162599D02*
D03*
X170473D02*
D03*
X178347D02*
D03*
X186221D02*
D03*
X194095D02*
D03*
X131103Y230866D02*
D03*
X138977D02*
D03*
X146851D02*
D03*
X154725D02*
D03*
X162599D02*
D03*
X170473D02*
D03*
X178347D02*
D03*
X186221D02*
D03*
X194095D02*
D03*
X201969D02*
D03*
X109252D02*
D03*
X101378D02*
D03*
X93504D02*
D03*
X85630D02*
D03*
X77756D02*
D03*
X69882D02*
D03*
X62008D02*
D03*
X54134D02*
D03*
X46260D02*
D03*
X38386D02*
D03*
X101378Y222992D02*
D03*
X93504D02*
D03*
X85630D02*
D03*
X77756D02*
D03*
X69882D02*
D03*
X62008D02*
D03*
X54134D02*
D03*
X46260D02*
D03*
X38386D02*
D03*
X223720D02*
D03*
X231594D02*
D03*
X239468D02*
D03*
X247342D02*
D03*
X255216D02*
D03*
X263090D02*
D03*
X270964D02*
D03*
X278838D02*
D03*
X286713D02*
D03*
X223720Y230866D02*
D03*
X231594D02*
D03*
X239468D02*
D03*
X247342D02*
D03*
X255216D02*
D03*
X263090D02*
D03*
X270964D02*
D03*
X278838D02*
D03*
X286713D02*
D03*
X294586D02*
D03*
D74*
X201969Y222992D02*
D03*
X109252D02*
D03*
X294586D02*
D03*
D75*
X315709Y81260D02*
D03*
X305709D02*
D03*
X204921Y181496D02*
D03*
X194921D02*
D03*
X184921D02*
D03*
X174921D02*
D03*
D76*
X295709Y81260D02*
D03*
X214921Y181496D02*
D03*
D77*
X357283Y191535D02*
D03*
Y134449D02*
D03*
D78*
X380748Y191535D02*
D03*
Y134449D02*
D03*
D79*
X40146Y37780D02*
D03*
Y27779D02*
D03*
X50146Y37780D02*
D03*
Y27779D02*
D03*
X60146Y37780D02*
D03*
Y27779D02*
D03*
X70146Y37780D02*
D03*
Y27779D02*
D03*
X80146Y37780D02*
D03*
Y27779D02*
D03*
X90146Y37780D02*
D03*
Y27779D02*
D03*
X130146Y37780D02*
D03*
Y27779D02*
D03*
X140146Y37780D02*
D03*
Y27779D02*
D03*
X150146Y37780D02*
D03*
Y27779D02*
D03*
X160146Y37780D02*
D03*
Y27779D02*
D03*
X170146Y37780D02*
D03*
Y27779D02*
D03*
X180146Y37780D02*
D03*
Y27779D02*
D03*
D80*
X262795Y129449D02*
D03*
Y89449D02*
D03*
Y99449D02*
D03*
Y109449D02*
D03*
Y119449D02*
D03*
D81*
Y79449D02*
D03*
D82*
X121378Y161575D02*
D03*
X111378D02*
D03*
X101378D02*
D03*
X91378D02*
D03*
X81378D02*
D03*
X121378Y131575D02*
D03*
X111378D02*
D03*
X101378D02*
D03*
X91378D02*
D03*
D83*
X81378D02*
D03*
D114*
X10827Y91142D02*
D03*
Y85236D02*
D03*
X23552Y71903D02*
D03*
Y77808D02*
D03*
X18701Y91142D02*
D03*
Y85236D02*
D03*
X31426Y71903D02*
D03*
Y77808D02*
D03*
X36417Y91142D02*
D03*
Y85236D02*
D03*
X49409Y71850D02*
D03*
Y77756D02*
D03*
X44291Y91142D02*
D03*
Y85236D02*
D03*
X57284Y71850D02*
D03*
Y77756D02*
D03*
X136417Y60827D02*
D03*
Y54921D02*
D03*
X149803Y68307D02*
D03*
Y74213D02*
D03*
X144685Y60827D02*
D03*
Y54921D02*
D03*
X157677Y68307D02*
D03*
Y74213D02*
D03*
X162795Y60827D02*
D03*
Y54921D02*
D03*
X176181Y67913D02*
D03*
Y73819D02*
D03*
X171063Y60827D02*
D03*
Y54921D02*
D03*
X184449Y67913D02*
D03*
Y73819D02*
D03*
M02*
