G04*
G04 #@! TF.GenerationSoftware,Altium Limited,Altium Designer,25.2.1 (25)*
G04*
G04 Layer_Color=65535*
%FSLAX25Y25*%
%MOIN*%
G70*
G04*
G04 #@! TF.SameCoordinates,382838D2-828E-4769-9F82-A9EE904C746A*
G04*
G04*
G04 #@! TF.FilePolarity,Positive*
G04*
G01*
G75*
%ADD10C,0.01000*%
%ADD11C,0.01000*%
%ADD12C,0.01968*%
%ADD13C,0.00787*%
%ADD14C,0.00591*%
%ADD15C,0.00602*%
D10*
X309154Y35197D02*
D03*
X95669Y205472D02*
D03*
D11*
X167618Y133228D02*
X167028D01*
X167618D01*
X304035Y129291D02*
X303248D01*
X304035D01*
X394691Y133465D02*
X394874Y192519D01*
X404921Y162992D02*
Y208268D01*
Y117717D02*
Y162992D01*
X414764D01*
X404921D02*
X408858Y159055D01*
X404921Y162992D02*
X408858Y166929D01*
X404921Y208268D02*
X414764D01*
X404921Y117717D02*
X414764D01*
D12*
X196620Y106063D02*
X195785Y106545D01*
Y105581D01*
X196620Y106063D01*
X75787Y130039D02*
X75243Y130788D01*
X74363Y130502D01*
Y129577D01*
X75243Y129290D01*
X75787Y130039D01*
D13*
X365305Y8521D02*
X365829Y7673D01*
X366410Y6863D01*
X367044Y6094D01*
X367730Y5370D01*
X368464Y4696D01*
X369242Y4073D01*
X370061Y3504D01*
X370917Y2993D01*
X371805Y2542D01*
X372723Y2152D01*
X373665Y1826D01*
X374627Y1566D01*
X375605Y1372D01*
X376593Y1245D01*
X377589Y1186D01*
X378585Y1195D01*
X379579Y1272D01*
X380565Y1417D01*
X381539Y1630D01*
X382496Y1908D01*
X383432Y2251D01*
X384343Y2657D01*
X385223Y3125D01*
X386069Y3652D01*
X386877Y4235D01*
X387644Y4872D01*
X388365Y5561D01*
X389037Y6296D01*
X389658Y7077D01*
X390223Y7897D01*
X390731Y8755D01*
X391180Y9645D01*
X391566Y10564D01*
X391889Y11507D01*
X392146Y12470D01*
X392337Y13449D01*
X392461Y14438D01*
X392516Y15433D01*
X392504Y16430D01*
X392423Y17423D01*
X392275Y18409D01*
X392059Y19382D01*
X391777Y20338D01*
X391431Y21273D01*
X391022Y22182D01*
X390551Y23061D01*
X390022Y23905D01*
X389435Y24712D01*
X388796Y25476D01*
X388105Y26195D01*
X387367Y26864D01*
X386584Y27482D01*
X385762Y28045D01*
X384902Y28550D01*
X384011Y28996D01*
X383090Y29379D01*
X382146Y29698D01*
X381182Y29952D01*
X380203Y30140D01*
X379214Y30260D01*
X378218Y30312D01*
X377222Y30297D01*
X376228Y30213D01*
X375243Y30061D01*
X374271Y29842D01*
X373316Y29557D01*
X372382Y29208D01*
X371475Y28795D01*
X370597Y28322D01*
X369755Y27789D01*
X368951Y27200D01*
X368188Y26558D01*
X367472Y25865D01*
X366805Y25124D01*
X366190Y24340D01*
X365629Y23515D01*
X365127Y22654D01*
X30315Y15748D02*
X30281Y16742D01*
X30179Y17732D01*
X30010Y18712D01*
X29775Y19678D01*
X29474Y20626D01*
X29109Y21552D01*
X28682Y22450D01*
X28194Y23317D01*
X27649Y24148D01*
X27048Y24941D01*
X26394Y25691D01*
X25691Y26394D01*
X24941Y27048D01*
X24148Y27649D01*
X23317Y28194D01*
X22450Y28682D01*
X21552Y29109D01*
X20626Y29474D01*
X19678Y29775D01*
X18712Y30010D01*
X17732Y30179D01*
X16742Y30281D01*
X15748Y30315D01*
X14754Y30281D01*
X13765Y30179D01*
X12784Y30010D01*
X11818Y29775D01*
X10870Y29474D01*
X9945Y29109D01*
X9046Y28682D01*
X8179Y28194D01*
X7348Y27649D01*
X6555Y27048D01*
X5805Y26394D01*
X5102Y25691D01*
X4448Y24941D01*
X3847Y24148D01*
X3302Y23317D01*
X2814Y22450D01*
X2387Y21552D01*
X2022Y20626D01*
X1721Y19678D01*
X1486Y18712D01*
X1317Y17732D01*
X1215Y16742D01*
X1181Y15748D01*
X1215Y14754D01*
X1317Y13765D01*
X1486Y12784D01*
X1721Y11818D01*
X2022Y10870D01*
X2387Y9945D01*
X2814Y9046D01*
X3302Y8179D01*
X3847Y7348D01*
X4448Y6555D01*
X5102Y5805D01*
X5805Y5102D01*
X6555Y4448D01*
X7348Y3847D01*
X8179Y3302D01*
X9046Y2814D01*
X9945Y2387D01*
X10870Y2022D01*
X11818Y1721D01*
X12784Y1486D01*
X13765Y1317D01*
X14754Y1215D01*
X15748Y1181D01*
X16742Y1215D01*
X17731Y1317D01*
X18712Y1486D01*
X19678Y1721D01*
X20626Y2022D01*
X21552Y2387D01*
X22450Y2814D01*
X23317Y3302D01*
X24148Y3847D01*
X24941Y4448D01*
X25691Y5102D01*
X26394Y5805D01*
X27048Y6555D01*
X27649Y7348D01*
X28194Y8179D01*
X28682Y9046D01*
X29109Y9945D01*
X29474Y10870D01*
X29775Y11818D01*
X30010Y12784D01*
X30179Y13765D01*
X30281Y14754D01*
X30315Y15748D01*
Y224410D02*
X30281Y225403D01*
X30179Y226393D01*
X30010Y227373D01*
X29775Y228340D01*
X29474Y229288D01*
X29109Y230213D01*
X28682Y231111D01*
X28194Y231978D01*
X27649Y232810D01*
X27048Y233602D01*
X26394Y234352D01*
X25691Y235055D01*
X24941Y235709D01*
X24148Y236310D01*
X23317Y236856D01*
X22450Y237343D01*
X21552Y237770D01*
X20626Y238135D01*
X19678Y238436D01*
X18712Y238672D01*
X17732Y238841D01*
X16742Y238942D01*
X15748Y238976D01*
X14754Y238942D01*
X13765Y238841D01*
X12784Y238672D01*
X11818Y238436D01*
X10870Y238135D01*
X9945Y237770D01*
X9046Y237343D01*
X8179Y236856D01*
X7348Y236310D01*
X6555Y235709D01*
X5805Y235055D01*
X5102Y234352D01*
X4448Y233602D01*
X3847Y232810D01*
X3302Y231978D01*
X2814Y231111D01*
X2387Y230213D01*
X2022Y229288D01*
X1721Y228340D01*
X1486Y227373D01*
X1317Y226393D01*
X1215Y225403D01*
X1181Y224410D01*
X1215Y223415D01*
X1317Y222426D01*
X1486Y221446D01*
X1721Y220479D01*
X2022Y219531D01*
X2387Y218606D01*
X2814Y217708D01*
X3302Y216841D01*
X3847Y216009D01*
X4448Y215216D01*
X5102Y214467D01*
X5805Y213763D01*
X6555Y213110D01*
X7348Y212509D01*
X8179Y211963D01*
X9046Y211476D01*
X9945Y211049D01*
X10870Y210684D01*
X11818Y210383D01*
X12784Y210147D01*
X13765Y209978D01*
X14754Y209876D01*
X15748Y209842D01*
X16742Y209876D01*
X17731Y209978D01*
X18712Y210147D01*
X19678Y210383D01*
X20626Y210684D01*
X21552Y211049D01*
X22450Y211476D01*
X23317Y211963D01*
X24148Y212509D01*
X24941Y213110D01*
X25691Y213763D01*
X26394Y214467D01*
X27048Y215216D01*
X27649Y216009D01*
X28194Y216841D01*
X28682Y217708D01*
X29109Y218606D01*
X29474Y219531D01*
X29775Y220479D01*
X30010Y221446D01*
X30179Y222426D01*
X30281Y223415D01*
X30315Y224410D01*
X392520D02*
X392486Y225403D01*
X392384Y226393D01*
X392215Y227373D01*
X391980Y228340D01*
X391679Y229288D01*
X391314Y230213D01*
X390886Y231111D01*
X390399Y231978D01*
X389854Y232810D01*
X389252Y233602D01*
X388599Y234352D01*
X387895Y235055D01*
X387146Y235709D01*
X386353Y236310D01*
X385522Y236856D01*
X384654Y237343D01*
X383756Y237770D01*
X382831Y238135D01*
X381883Y238436D01*
X380917Y238672D01*
X379936Y238841D01*
X378947Y238942D01*
X377953Y238976D01*
X376959Y238942D01*
X375969Y238841D01*
X374989Y238672D01*
X374023Y238436D01*
X373075Y238135D01*
X372149Y237770D01*
X371251Y237343D01*
X370384Y236856D01*
X369552Y236310D01*
X368760Y235709D01*
X368010Y235055D01*
X367307Y234352D01*
X366653Y233602D01*
X366052Y232810D01*
X365507Y231978D01*
X365019Y231111D01*
X364592Y230213D01*
X364227Y229288D01*
X363926Y228340D01*
X363690Y227373D01*
X363522Y226393D01*
X363420Y225403D01*
X363386Y224410D01*
X363420Y223415D01*
X363522Y222426D01*
X363690Y221446D01*
X363926Y220479D01*
X364227Y219531D01*
X364592Y218606D01*
X365019Y217708D01*
X365507Y216841D01*
X366052Y216009D01*
X366653Y215216D01*
X367307Y214467D01*
X368010Y213763D01*
X368760Y213110D01*
X369552Y212509D01*
X370384Y211963D01*
X371251Y211476D01*
X372149Y211049D01*
X373075Y210684D01*
X374023Y210383D01*
X374989Y210147D01*
X375969Y209978D01*
X376959Y209876D01*
X377953Y209842D01*
X378947Y209876D01*
X379936Y209978D01*
X380917Y210147D01*
X381883Y210383D01*
X382831Y210684D01*
X383756Y211049D01*
X384654Y211476D01*
X385522Y211963D01*
X386353Y212509D01*
X387146Y213110D01*
X387895Y213763D01*
X388599Y214467D01*
X389252Y215216D01*
X389854Y216009D01*
X390399Y216841D01*
X390886Y217708D01*
X391314Y218606D01*
X391679Y219531D01*
X391980Y220479D01*
X392215Y221446D01*
X392384Y222426D01*
X392486Y223415D01*
X392520Y224410D01*
X62795Y107244D02*
X66732D01*
X62795Y71811D02*
Y107244D01*
Y71811D02*
X66732D01*
X76968D02*
X80905D01*
Y107244D01*
X76968D02*
X80905D01*
X225394Y200394D02*
Y205906D01*
X215158Y200394D02*
X225394D01*
X215158D02*
Y205906D01*
X225394D01*
X225394Y200394D02*
Y205906D01*
X235630D01*
Y200394D02*
Y205906D01*
X225394Y200394D02*
X235630D01*
X242323Y209449D02*
Y214961D01*
X232087Y209449D02*
X242323D01*
X232087D02*
Y214961D01*
X242323D01*
X242323Y209449D02*
Y214961D01*
X252559D01*
Y209449D02*
Y214961D01*
X242323Y209449D02*
X252559D01*
X260827Y200394D02*
Y205906D01*
X250590Y200394D02*
X260827D01*
X250590D02*
Y205906D01*
X260827D01*
X260827Y200394D02*
Y205906D01*
X271063D01*
Y200394D02*
Y205906D01*
X260827Y200394D02*
X271063D01*
X278150Y209449D02*
Y214961D01*
X267913Y209449D02*
X278150D01*
X267913D02*
Y214961D01*
X278150D01*
X278150Y209449D02*
Y214961D01*
X288386D01*
Y209449D02*
Y214961D01*
X278150Y209449D02*
X288386D01*
X345472Y-5118D02*
X347441Y-7087D01*
X343504D02*
X345472Y-5118D01*
X367126Y-11024D02*
Y-5118D01*
X323819Y-11024D02*
Y-5118D01*
X345472Y-11024D02*
Y-5118D01*
X323819D02*
X367126D01*
X327756Y0D02*
X363189D01*
Y34252D01*
X327756Y0D02*
Y56299D01*
Y57087D01*
X337992D01*
X352953D02*
X363189D01*
Y49606D02*
Y57087D01*
X126182Y240118D02*
X206890D01*
X126181Y261181D02*
X206890D01*
X126181Y236181D02*
Y261181D01*
Y236181D02*
X206890D01*
Y261181D01*
X114173Y236181D02*
Y261181D01*
X33465Y236181D02*
X114173D01*
X33465D02*
Y261181D01*
X114173D01*
X33465Y240118D02*
X114173D01*
X218799D02*
X299508D01*
X218799Y261181D02*
X299508D01*
X218799Y236181D02*
Y261181D01*
Y236181D02*
X299508D01*
Y261181D01*
X144524Y121209D02*
Y135209D01*
X152524Y121209D02*
Y135209D01*
X144524Y121209D02*
X152524D01*
X144524Y135209D02*
X152524D01*
X281299Y40709D02*
X313583D01*
Y66693D01*
X281299D02*
X313583D01*
X281299Y40709D02*
Y66693D01*
X169095Y62992D02*
X187205D01*
Y100787D01*
X169095D02*
X187205D01*
X169095Y62992D02*
Y100787D01*
X369980Y77028D02*
X371161D01*
X344390D02*
X345571D01*
X365256Y91988D02*
X371161D01*
Y77028D02*
Y91988D01*
X344390D02*
X350295D01*
X344390Y77028D02*
Y91988D01*
X301969Y28701D02*
Y33819D01*
X308661Y28701D02*
Y33819D01*
X341929Y107047D02*
X347244D01*
X341929Y115905D02*
X347244D01*
X341929Y110689D02*
Y112264D01*
X166535Y125748D02*
Y130472D01*
X154724Y125748D02*
Y130472D01*
X193898Y39626D02*
X195079D01*
X219488D02*
X220669D01*
X193898Y24665D02*
X199803D01*
X193898D02*
Y39626D01*
X214764Y24665D02*
X220669D01*
Y39626D01*
X192520Y111575D02*
X195276Y108819D01*
X194095Y146614D02*
Y149370D01*
X196850D01*
X230709D02*
X233465D01*
Y146614D02*
Y149370D01*
Y110000D02*
Y112756D01*
X230709Y110000D02*
X233465D01*
X352362Y115650D02*
X357677D01*
X352362Y105610D02*
X357677D01*
X352362D02*
Y115650D01*
X357677Y105610D02*
Y115650D01*
X375201Y103244D02*
Y111244D01*
X362201Y103244D02*
X375201D01*
X362201D02*
Y111244D01*
X375201D01*
X382681Y103244D02*
Y111244D01*
X369681Y103244D02*
X382681D01*
X369681D02*
Y111244D01*
X382681D01*
X320083Y15449D02*
Y23449D01*
X307083Y15449D02*
X320083D01*
X307083D02*
Y23449D01*
X320083D01*
X312799Y7181D02*
Y15181D01*
X299799Y7181D02*
X312799D01*
X299799D02*
Y15181D01*
X312799D01*
X372476Y78106D02*
X380476D01*
X372476D02*
Y91106D01*
X380476D01*
Y78106D02*
Y91106D01*
X108658Y196945D02*
Y204945D01*
X121658D01*
Y196945D02*
Y204945D01*
X108658Y196945D02*
X121658D01*
X91343D02*
Y204945D01*
X78342Y196945D02*
X91343D01*
X78342D02*
Y204945D01*
X91343D01*
X358854Y120961D02*
Y128961D01*
X371854D01*
Y120961D02*
Y128961D01*
X358854Y120961D02*
X371854D01*
X338185Y117654D02*
Y125654D01*
X351185D01*
Y117654D02*
Y125654D01*
X338185Y117654D02*
X351185D01*
X330252Y116697D02*
X338252D01*
Y103697D02*
Y116697D01*
X330252Y103697D02*
X338252D01*
X330252D02*
Y116697D01*
X127693Y183429D02*
X135693D01*
Y170429D02*
Y183429D01*
X127693Y170429D02*
X135693D01*
X127693D02*
Y183429D01*
X119032D02*
X127032D01*
Y170429D02*
Y183429D01*
X119032Y170429D02*
X127032D01*
X119032D02*
Y183429D01*
X75724D02*
X83724D01*
Y170429D02*
Y183429D01*
X75724Y170429D02*
X83724D01*
X75724D02*
Y183429D01*
X67063D02*
X75063D01*
Y170429D02*
Y183429D01*
X67063Y170429D02*
X75063D01*
X67063D02*
Y183429D01*
X84386D02*
X92386D01*
Y170429D02*
Y183429D01*
X84386Y170429D02*
X92386D01*
X84386D02*
Y183429D01*
X101709D02*
X109709D01*
Y170429D02*
Y183429D01*
X101709Y170429D02*
X109709D01*
X101709D02*
Y183429D01*
X293047Y146028D02*
X301047D01*
Y133028D02*
Y146028D01*
X293047Y133028D02*
X301047D01*
X293047D02*
Y146028D01*
X93047Y183429D02*
X101047D01*
Y170429D02*
Y183429D01*
X93047Y170429D02*
X101047D01*
X93047D02*
Y183429D01*
X322083Y120043D02*
X330083D01*
Y107043D02*
Y120043D01*
X322083Y107043D02*
X330083D01*
X322083D02*
Y120043D01*
Y120035D02*
X330083D01*
X322083D02*
Y133035D01*
X330083D01*
Y120035D02*
Y133035D01*
X317319Y133165D02*
Y141165D01*
X330319D01*
Y133165D02*
Y141165D01*
X317319Y133165D02*
X330319D01*
X292949Y120043D02*
X300949D01*
Y107043D02*
Y120043D01*
X292949Y107043D02*
X300949D01*
X292949D02*
Y120043D01*
Y120035D02*
X300949D01*
X292949D02*
Y133035D01*
X300949D01*
Y120035D02*
Y133035D01*
X110370Y183429D02*
X118370D01*
Y170429D02*
Y183429D01*
X110370Y170429D02*
X118370D01*
X110370D02*
Y183429D01*
X78350Y112693D02*
Y120693D01*
X65350Y112693D02*
X78350D01*
X65350D02*
Y120693D01*
X78350D01*
X98035Y112693D02*
Y120693D01*
X85035Y112693D02*
X98035D01*
X85035D02*
Y120693D01*
X98035D01*
X117720Y112693D02*
Y120693D01*
X104720Y112693D02*
X117720D01*
X104720D02*
Y120693D01*
X117720D01*
X137406Y112693D02*
Y120693D01*
X124406Y112693D02*
X137406D01*
X124406D02*
Y120693D01*
X137406D01*
X167130Y136551D02*
Y144551D01*
X154130Y136551D02*
X167130D01*
X154130D02*
Y144551D01*
X167130D01*
X256961Y35783D02*
X264961D01*
X256961D02*
Y48783D01*
X264961D01*
Y35783D02*
Y48783D01*
X264835Y35783D02*
X272835D01*
X264835D02*
Y48783D01*
X272835D01*
Y35783D02*
Y48783D01*
X233106Y86669D02*
X241106D01*
X233106D02*
Y99669D01*
X241106D01*
Y86669D02*
Y99669D01*
X154130Y144819D02*
Y152819D01*
X167130D01*
Y144819D02*
Y152819D01*
X154130Y144819D02*
X167130D01*
X149445Y119650D02*
X157445D01*
Y106650D02*
Y119650D01*
X149445Y106650D02*
X157445D01*
X149445D02*
Y119650D01*
X158205D02*
X166205D01*
Y106650D02*
Y119650D01*
X158205Y106650D02*
X166205D01*
X158205D02*
Y119650D01*
X279728Y17024D02*
Y25024D01*
X266728Y17024D02*
X279728D01*
X266728D02*
Y25024D01*
X279728D01*
X193461Y77201D02*
Y85201D01*
X206461D01*
Y77201D02*
Y85201D01*
X193461Y77201D02*
X206461D01*
X97047Y205276D02*
X102559D01*
X97047Y196614D02*
X102559D01*
X374076Y64720D02*
Y65820D01*
Y64720D02*
X378876D01*
X374076Y65820D02*
X378876D01*
X374076Y65720D02*
Y76621D01*
X378876D01*
Y65720D02*
Y76621D01*
Y64720D02*
Y65820D01*
X255880Y46601D02*
Y47701D01*
X251080D02*
X255880D01*
X251080Y46601D02*
X255880D01*
Y35801D02*
Y46701D01*
X251080Y35801D02*
X255880D01*
X251080D02*
Y46701D01*
Y46601D02*
Y47701D01*
X278715Y46601D02*
Y47701D01*
X273915D02*
X278715D01*
X273915Y46601D02*
X278715D01*
Y35801D02*
Y46701D01*
X273915Y35801D02*
X278715D01*
X273915D02*
Y46701D01*
Y46601D02*
Y47701D01*
X290709Y76260D02*
Y86260D01*
X320709D01*
Y76260D02*
Y86260D01*
X290709Y76260D02*
X320709D01*
X364764Y192913D02*
X375000D01*
X386811Y192913D02*
X398858D01*
Y133071D02*
Y192913D01*
X398858Y133071D01*
X386417D02*
X398858D01*
X364764Y133071D02*
X375000D01*
X350591Y137008D02*
Y142913D01*
Y182677D02*
Y188976D01*
X169449Y186496D02*
X220921D01*
X169449Y176496D02*
Y186496D01*
Y176496D02*
X220921D01*
Y186496D01*
X34142Y221D02*
X96150D01*
X34142Y-11689D02*
Y21776D01*
Y-11689D02*
X96150D01*
Y21776D01*
X34142D02*
X96150D01*
X33847Y-19307D02*
Y-15370D01*
X96445D01*
Y-19307D02*
Y-15370D01*
X65146Y-20370D02*
Y-15370D01*
Y-15646D02*
Y-15370D01*
X65028D02*
X65146D01*
X63177Y-17221D02*
X65028Y-15370D01*
X65264D01*
X67114Y-17221D01*
X234449Y-2362D02*
Y3445D01*
Y-2362D02*
X263779D01*
X263878Y-2264D02*
X263976D01*
X263779Y-2362D02*
X263878Y-2264D01*
X263976D02*
Y3543D01*
X234449Y0D02*
X263976D01*
X256299Y19685D02*
X263976D01*
Y13386D02*
Y19685D01*
X234449Y13386D02*
Y19685D01*
X242126D01*
X227559Y-5610D02*
X270866D01*
Y-11516D02*
Y-5610D01*
X227559Y-11516D02*
Y-5610D01*
X249213Y-11516D02*
Y-5610D01*
X251181Y-7579D01*
X247244D02*
X249213Y-5610D01*
X124142Y221D02*
X186150D01*
X124142Y-11689D02*
Y21776D01*
Y-11689D02*
X186150D01*
Y21776D01*
X124142D02*
X186150D01*
X123846Y-19307D02*
Y-15370D01*
X186445D01*
Y-19307D02*
Y-15370D01*
X155146Y-20370D02*
Y-15370D01*
Y-15646D02*
Y-15370D01*
X155028D02*
X155146D01*
X153177Y-17221D02*
X155028Y-15370D01*
X155264D01*
X157114Y-17221D01*
X267795Y73681D02*
Y134606D01*
X257795D02*
X267795D01*
X257795Y73681D02*
Y134606D01*
Y73681D02*
X267795D01*
X232024Y38539D02*
X240024D01*
X232024D02*
Y51539D01*
X240024D01*
Y38539D02*
Y51539D01*
X195016Y58224D02*
X203016D01*
X195016D02*
Y71224D01*
X203016D01*
Y58224D02*
Y71224D01*
X242161Y99669D02*
X250161D01*
Y86669D02*
Y99669D01*
X242161Y86669D02*
X250161D01*
X242161D02*
Y99669D01*
X71457Y126496D02*
Y166654D01*
X131299D01*
Y126496D02*
Y166654D01*
X71457Y126496D02*
X131299D01*
X286516Y147303D02*
X291437D01*
X292323Y127618D02*
Y146122D01*
X285630Y127618D02*
X292323D01*
X285630D02*
Y146122D01*
X292323D01*
X332480Y70236D02*
X341142D01*
X332480D02*
Y92283D01*
X341142D01*
Y70236D02*
Y92283D01*
X333268Y69055D02*
X340354D01*
X297354Y24504D02*
Y32504D01*
X283354Y24504D02*
Y32504D01*
Y24504D02*
X297354D01*
X283354Y32504D02*
X297354D01*
Y32378D02*
Y40378D01*
X283354Y32378D02*
Y40378D01*
Y32378D02*
X297354D01*
X283354Y40378D02*
X297354D01*
X311157Y23866D02*
X319158D01*
X311157Y37866D02*
X319158D01*
X311157Y23866D02*
Y37866D01*
X319158Y23866D02*
Y37866D01*
X319032Y23866D02*
X327031D01*
X319032Y37866D02*
X327031D01*
X319032Y23866D02*
Y37866D01*
X327031Y23866D02*
Y37866D01*
X171051Y143795D02*
Y151795D01*
X185051Y143795D02*
Y151795D01*
X171051D02*
X185051D01*
X171051Y143795D02*
X185051D01*
X227669Y49307D02*
Y57307D01*
X213669Y49307D02*
Y57307D01*
Y49307D02*
X227669D01*
X213669Y57307D02*
X227669D01*
X232024Y23472D02*
X240024D01*
X232024Y37472D02*
X240024D01*
X232024Y23472D02*
Y37472D01*
X240024Y23472D02*
Y37472D01*
X171051Y134740D02*
Y142740D01*
X185051Y134740D02*
Y142740D01*
X171051D02*
X185051D01*
X171051Y134740D02*
X185051D01*
X242161Y133240D02*
X250161D01*
X242161Y119240D02*
X250161D01*
Y133240D01*
X242161Y119240D02*
Y133240D01*
Y133413D02*
X250161D01*
X242161Y147413D02*
X250161D01*
X242161Y133413D02*
Y147413D01*
X250161Y133413D02*
Y147413D01*
X191130Y157673D02*
Y165673D01*
X205130Y157673D02*
Y165673D01*
X191130D02*
X205130D01*
X191130Y157673D02*
X205130D01*
X177201Y119831D02*
X185201D01*
X177201Y133831D02*
X185201D01*
X177201Y119831D02*
Y133831D01*
X185201Y119831D02*
Y133831D01*
X224051Y85579D02*
X232051D01*
X224051Y99579D02*
X232051D01*
X224051Y85579D02*
Y99579D01*
X232051Y85579D02*
Y99579D01*
X233476Y157280D02*
Y165279D01*
X219476Y157280D02*
Y165279D01*
Y157280D02*
X233476D01*
X219476Y165279D02*
X233476D01*
X170658Y107673D02*
Y115673D01*
X184658Y107673D02*
Y115673D01*
X170658D02*
X184658D01*
X170658Y107673D02*
X184658D01*
X318638Y53220D02*
X326638D01*
X318638Y39220D02*
X326638D01*
Y53220D01*
X318638Y39220D02*
Y53220D01*
X292016Y15449D02*
Y23449D01*
X306016Y15449D02*
Y23449D01*
X292016D02*
X306016D01*
X292016Y15449D02*
X306016D01*
X208968Y49307D02*
Y57307D01*
X194968Y49307D02*
Y57307D01*
Y49307D02*
X208968D01*
X194968Y57307D02*
X208968D01*
X355402Y59937D02*
Y67937D01*
X369402Y59937D02*
Y67937D01*
X355402D02*
X369402D01*
X355402Y59937D02*
X369402D01*
X185138Y153012D02*
Y161673D01*
X163091Y153012D02*
X185138D01*
X163091D02*
Y161673D01*
X185138D01*
X186319Y153799D02*
Y160886D01*
X249665Y75846D02*
Y84508D01*
X227618Y75846D02*
X249665D01*
X227618D02*
Y84508D01*
X249665D01*
X250847Y76634D02*
Y83720D01*
X359142Y112378D02*
Y120378D01*
X373142Y112378D02*
Y120378D01*
X359142D02*
X373142D01*
X359142Y112378D02*
X373142D01*
X303039Y133165D02*
Y141165D01*
X317039Y133165D02*
Y141165D01*
X303039D02*
X317039D01*
X303039Y133165D02*
X317039D01*
X330449Y127409D02*
X338449D01*
X330449Y141409D02*
X338449D01*
X330449Y127409D02*
Y141409D01*
X338449Y127409D02*
Y141409D01*
X158402Y67016D02*
X166402D01*
X158402Y81016D02*
X166402D01*
X158402Y67016D02*
Y81016D01*
X166402Y67016D02*
Y81016D01*
X158402Y96764D02*
X166402D01*
X158402Y82764D02*
X166402D01*
Y96764D01*
X158402Y82764D02*
Y96764D01*
X280228Y25291D02*
Y33291D01*
X266228Y25291D02*
Y33291D01*
Y25291D02*
X280228D01*
X266228Y33291D02*
X280228D01*
X214996Y85776D02*
X222996D01*
X214996Y99776D02*
X222996D01*
X214996Y85776D02*
Y99776D01*
X222996Y85776D02*
Y99776D01*
X205709Y58425D02*
Y67087D01*
X227756D01*
Y58425D02*
Y67087D01*
X205709Y58425D02*
X227756D01*
X204528Y59213D02*
Y66299D01*
X208378Y86158D02*
Y94157D01*
X194378Y86158D02*
Y94157D01*
Y86158D02*
X208378D01*
X194378Y94157D02*
X208378D01*
X222244Y45433D02*
X230906D01*
Y23386D02*
Y45433D01*
X222244Y23386D02*
X230906D01*
X222244D02*
Y45433D01*
X223031Y46614D02*
X230118D01*
X305217Y116693D02*
X317815D01*
X305217Y128504D02*
X317815D01*
X121850Y107244D02*
X125787D01*
X121850Y71811D02*
Y107244D01*
Y71811D02*
X125787D01*
X136024D02*
X139961D01*
Y107244D01*
X136024D02*
X139961D01*
X116339D02*
X120276D01*
Y71811D02*
Y107244D01*
X116339Y71811D02*
X120276D01*
X102165D02*
X106102D01*
X102165D02*
Y107244D01*
X106102D01*
X96653D02*
X100591D01*
Y71811D02*
Y107244D01*
X96653Y71811D02*
X100591D01*
X82480D02*
X86417D01*
X82480D02*
Y107244D01*
X86417D01*
X128149Y60392D02*
X127361Y61180D01*
X125787D01*
X125000Y60392D01*
Y59605D01*
X125787Y58818D01*
X127361D01*
X128149Y58031D01*
Y57244D01*
X127361Y56457D01*
X125787D01*
X125000Y57244D01*
X129723Y61180D02*
Y56457D01*
X131297Y58031D01*
X132871Y56457D01*
Y61180D01*
X134446Y60392D02*
X135233Y61180D01*
X136807D01*
X137594Y60392D01*
Y57244D01*
X136807Y56457D01*
X135233D01*
X134446Y57244D01*
Y60392D01*
X69094Y60786D02*
X68306Y61573D01*
X66732D01*
X65945Y60786D01*
Y59999D01*
X66732Y59212D01*
X68306D01*
X69094Y58425D01*
Y57638D01*
X68306Y56850D01*
X66732D01*
X65945Y57638D01*
X70668Y61573D02*
Y56850D01*
X72242Y58425D01*
X73816Y56850D01*
Y61573D01*
X75391Y60786D02*
X76178Y61573D01*
X77752D01*
X78539Y60786D01*
Y59999D01*
X77752Y59212D01*
X76965D01*
X77752D01*
X78539Y58425D01*
Y57638D01*
X77752Y56850D01*
X76178D01*
X75391Y57638D01*
X258464Y142912D02*
X256889D01*
X257676D01*
Y138976D01*
X256889Y138189D01*
X256102D01*
X255315Y138976D01*
X260038Y142912D02*
X263186D01*
X261612D01*
Y138189D01*
X264761D02*
Y141338D01*
X266335Y142912D01*
X267909Y141338D01*
Y138189D01*
Y140550D01*
X264761D01*
X272632Y142125D02*
X271845Y142912D01*
X270271D01*
X269484Y142125D01*
Y138976D01*
X270271Y138189D01*
X271845D01*
X272632Y138976D01*
Y140550D01*
X271058D01*
X108857Y60392D02*
X108070Y61180D01*
X106496D01*
X105709Y60392D01*
Y59605D01*
X106496Y58818D01*
X108070D01*
X108857Y58031D01*
Y57244D01*
X108070Y56457D01*
X106496D01*
X105709Y57244D01*
X110432Y61180D02*
Y56457D01*
X112006Y58031D01*
X113580Y56457D01*
Y61180D01*
X115154Y56457D02*
X116729D01*
X115942D01*
Y61180D01*
X115154Y60392D01*
X88779D02*
X87991Y61180D01*
X86417D01*
X85630Y60392D01*
Y59605D01*
X86417Y58818D01*
X87991D01*
X88779Y58031D01*
Y57244D01*
X87991Y56457D01*
X86417D01*
X85630Y57244D01*
X90353Y61180D02*
Y56457D01*
X91927Y58031D01*
X93501Y56457D01*
Y61180D01*
X98224Y56457D02*
X95076D01*
X98224Y59605D01*
Y60392D01*
X97437Y61180D01*
X95863D01*
X95076Y60392D01*
X331716Y157444D02*
X336439D01*
X334077D01*
Y160592D01*
X331716D01*
X336439D01*
X331716Y162167D02*
X336439D01*
Y164528D01*
X335651Y165315D01*
X332503D01*
X331716Y164528D01*
Y162167D01*
X336439Y166890D02*
X331716D01*
X333290Y168464D01*
X331716Y170038D01*
X336439D01*
X331716Y171612D02*
Y173187D01*
Y172399D01*
X336439D01*
Y171612D01*
Y173187D01*
X339273Y161380D02*
Y159805D01*
X340060Y159018D01*
X343209D01*
X343996Y159805D01*
Y161380D01*
X343209Y162167D01*
X340060D01*
X339273Y161380D01*
Y163741D02*
X343209D01*
X343996Y164528D01*
Y166102D01*
X343209Y166890D01*
X339273D01*
Y168464D02*
Y171612D01*
Y170038D01*
X343996D01*
X158466Y174016D02*
X162402D01*
X163189Y174803D01*
Y176377D01*
X162402Y177165D01*
X158466D01*
X163189Y178739D02*
X160040D01*
X158466Y180313D01*
X160040Y181887D01*
X163189D01*
X160827D01*
Y178739D01*
X163189Y183462D02*
X158466D01*
Y185823D01*
X159253Y186610D01*
X160827D01*
X161615Y185823D01*
Y183462D01*
Y185036D02*
X163189Y186610D01*
X158466Y188185D02*
Y191333D01*
Y189759D01*
X163189D01*
X200690Y217874D02*
Y217087D01*
Y217480D01*
X203051D01*
X202657Y217874D01*
X107973D02*
Y217087D01*
Y217480D01*
X110334D01*
X109940Y217874D01*
X293307D02*
Y217087D01*
Y217480D01*
X295668D01*
X295275Y217874D01*
X297921Y73047D02*
Y74359D01*
Y73703D01*
X293986D01*
X294641Y73047D01*
X223425Y179528D02*
X224737D01*
X224081D01*
Y183463D01*
X223425Y182807D01*
X99201Y26205D02*
X100250D01*
X99726D01*
Y29353D01*
X99201Y28829D01*
X189201Y26205D02*
X190250D01*
X189726D01*
Y29353D01*
X189201Y28829D01*
X263189Y71653D02*
Y70342D01*
Y70998D01*
X267125D01*
X266469Y71653D01*
D14*
X291634Y90806D02*
Y88182D01*
X292159Y87657D01*
X293208D01*
X293733Y88182D01*
Y90806D01*
X296882Y90281D02*
X296357Y90806D01*
X295307D01*
X294782Y90281D01*
Y89757D01*
X295307Y89232D01*
X296357D01*
X296882Y88707D01*
Y88182D01*
X296357Y87657D01*
X295307D01*
X294782Y88182D01*
X297931Y90806D02*
Y87657D01*
X299505D01*
X300030Y88182D01*
Y88707D01*
X299505Y89232D01*
X297931D01*
X299505D01*
X300030Y89757D01*
Y90281D01*
X299505Y90806D01*
X297931D01*
X196752Y188051D02*
X193603D01*
Y189626D01*
X194128Y190150D01*
X195178D01*
X195702Y189626D01*
Y188051D01*
Y189101D02*
X196752Y190150D01*
X193603Y191200D02*
X196752Y193299D01*
X193603D02*
X196752Y191200D01*
X193603Y194348D02*
X196752D01*
Y195923D01*
X196227Y196447D01*
X194128D01*
X193603Y195923D01*
Y194348D01*
X269291Y119881D02*
X271390D01*
X270341D01*
Y116732D01*
X272440D02*
Y119881D01*
X273489Y118831D01*
X274539Y119881D01*
Y116732D01*
X277688Y119356D02*
X277163Y119881D01*
X276113D01*
X275588Y119356D01*
Y118831D01*
X276113Y118307D01*
X277163D01*
X277688Y117782D01*
Y117257D01*
X277163Y116732D01*
X276113D01*
X275588Y117257D01*
X313123Y91003D02*
X312073D01*
X312598D01*
Y88379D01*
X312073Y87854D01*
X311548D01*
X311024Y88379D01*
X314172Y87854D02*
Y89953D01*
X315222Y91003D01*
X316271Y89953D01*
Y87854D01*
Y89429D01*
X314172D01*
X319420Y90478D02*
X318895Y91003D01*
X317846D01*
X317321Y90478D01*
Y88379D01*
X317846Y87854D01*
X318895D01*
X319420Y88379D01*
X320469Y91003D02*
Y87854D01*
Y88904D01*
X322568Y91003D01*
X320994Y89429D01*
X322568Y87854D01*
X271796Y80473D02*
X271271Y80998D01*
X270222D01*
X269697Y80473D01*
Y78374D01*
X270222Y77849D01*
X271271D01*
X271796Y78374D01*
Y79423D01*
X270746D01*
X272846Y77849D02*
Y80998D01*
X274945Y77849D01*
Y80998D01*
X275994D02*
Y77849D01*
X277569D01*
X278093Y78374D01*
Y80473D01*
X277569Y80998D01*
X275994D01*
X271390Y130183D02*
X270866Y130708D01*
X269816D01*
X269291Y130183D01*
Y129658D01*
X269816Y129133D01*
X270866D01*
X271390Y128609D01*
Y128084D01*
X270866Y127559D01*
X269816D01*
X269291Y128084D01*
X272440Y127559D02*
Y130708D01*
X274014D01*
X274539Y130183D01*
Y129133D01*
X274014Y128609D01*
X272440D01*
X273489D02*
X274539Y127559D01*
X277688Y130183D02*
X277163Y130708D01*
X276113D01*
X275588Y130183D01*
Y129658D01*
X276113Y129133D01*
X277163D01*
X277688Y128609D01*
Y128084D01*
X277163Y127559D01*
X276113D01*
X275588Y128084D01*
X278737Y130708D02*
X280836D01*
X279787D01*
Y127559D01*
X281886D02*
Y130708D01*
X283985Y127559D01*
Y130708D01*
X186516Y188051D02*
X183367D01*
Y189626D01*
X183892Y190150D01*
X184941D01*
X185466Y189626D01*
Y188051D01*
Y189101D02*
X186516Y190150D01*
X183367Y191200D02*
Y193299D01*
Y192249D01*
X186516D01*
X183892Y196447D02*
X183367Y195923D01*
Y194873D01*
X183892Y194348D01*
X184417D01*
X184941Y194873D01*
Y195923D01*
X185466Y196447D01*
X185991D01*
X186516Y195923D01*
Y194873D01*
X185991Y194348D01*
X213912Y190091D02*
X213387Y189566D01*
Y188517D01*
X213912Y187992D01*
X216011D01*
X216535Y188517D01*
Y189566D01*
X216011Y190091D01*
X214961D01*
Y189042D01*
X216535Y191141D02*
X213387D01*
X216535Y193240D01*
X213387D01*
Y194289D02*
X216535D01*
Y195864D01*
X216011Y196388D01*
X213912D01*
X213387Y195864D01*
Y194289D01*
X215650Y10274D02*
Y13423D01*
X217224D01*
X217749Y12898D01*
Y11849D01*
X217224Y11324D01*
X215650D01*
X218798Y10274D02*
Y13423D01*
X220373D01*
X220897Y12898D01*
Y11849D01*
X220373Y11324D01*
X218798D01*
X219848D02*
X220897Y10274D01*
X223521Y13423D02*
X222471D01*
X221947Y12898D01*
Y10799D01*
X222471Y10274D01*
X223521D01*
X224046Y10799D01*
Y12898D01*
X223521Y13423D01*
X227194Y12898D02*
X226670Y13423D01*
X225620D01*
X225095Y12898D01*
Y10799D01*
X225620Y10274D01*
X226670D01*
X227194Y10799D01*
Y11849D01*
X226145D01*
X215650Y8227D02*
Y5604D01*
X216174Y5079D01*
X217224D01*
X217749Y5604D01*
Y8227D01*
X218798Y5079D02*
Y7178D01*
X219848Y8227D01*
X220897Y7178D01*
Y5079D01*
Y6653D01*
X218798D01*
X221947Y5079D02*
Y8227D01*
X223521D01*
X224046Y7703D01*
Y6653D01*
X223521Y6128D01*
X221947D01*
X222996D02*
X224046Y5079D01*
X225095Y8227D02*
X227194D01*
X226145D01*
Y5079D01*
X375396Y46179D02*
X377757D01*
X376576Y47360D02*
Y44998D01*
X378938Y44408D02*
X380119D01*
X379528D01*
Y47950D01*
X378938Y47360D01*
X384251Y44408D02*
X381890D01*
X384251Y46769D01*
Y47360D01*
X383661Y47950D01*
X382480D01*
X381890Y47360D01*
X385432Y47950D02*
Y45589D01*
X386613Y44408D01*
X387793Y45589D01*
Y47950D01*
X376872Y38740D02*
Y42282D01*
X378052Y41102D01*
X379233Y42282D01*
Y38740D01*
X380414D02*
Y41102D01*
X381594Y42282D01*
X382775Y41102D01*
Y38740D01*
Y40511D01*
X380414D01*
X383956Y42282D02*
X386317Y38740D01*
Y42282D02*
X383956Y38740D01*
X269291Y111023D02*
X271390D01*
X270341D01*
Y107874D01*
X272440Y111023D02*
Y107874D01*
X274014D01*
X274539Y108399D01*
Y110498D01*
X274014Y111023D01*
X272440D01*
X277163D02*
X276113D01*
X275588Y110498D01*
Y108399D01*
X276113Y107874D01*
X277163D01*
X277688Y108399D01*
Y110498D01*
X277163Y111023D01*
X269291Y100196D02*
X271390D01*
X270341D01*
Y97047D01*
X272440Y100196D02*
Y97047D01*
X274014D01*
X274539Y97572D01*
Y99671D01*
X274014Y100196D01*
X272440D01*
X275588D02*
X276638D01*
X276113D01*
Y97047D01*
X275588D01*
X276638D01*
X203446Y188051D02*
Y190150D01*
Y189101D01*
X206594D01*
X203446Y191200D02*
X206594Y193299D01*
X203446D02*
X206594Y191200D01*
X203446Y194348D02*
X206594D01*
Y195923D01*
X206070Y196448D01*
X203971D01*
X203446Y195923D01*
Y194348D01*
X297835Y100412D02*
Y103954D01*
X299606D01*
X300196Y103364D01*
Y102183D01*
X299606Y101593D01*
X297835D01*
X301967Y100412D02*
X303148D01*
X303738Y101002D01*
Y102183D01*
X303148Y102773D01*
X301967D01*
X301377Y102183D01*
Y101002D01*
X301967Y100412D01*
X304919Y102773D02*
Y101002D01*
X305509Y100412D01*
X306100Y101002D01*
X306690Y100412D01*
X307280Y101002D01*
Y102773D01*
X310232Y100412D02*
X309051D01*
X308461Y101002D01*
Y102183D01*
X309051Y102773D01*
X310232D01*
X310823Y102183D01*
Y101593D01*
X308461D01*
X312003Y102773D02*
Y100412D01*
Y101593D01*
X312594Y102183D01*
X313184Y102773D01*
X313774D01*
X300196Y97696D02*
X299606Y98286D01*
X298425D01*
X297835Y97696D01*
Y97105D01*
X298425Y96515D01*
X299606D01*
X300196Y95925D01*
Y95334D01*
X299606Y94744D01*
X298425D01*
X297835Y95334D01*
X303148Y94744D02*
X301967D01*
X301377Y95334D01*
Y96515D01*
X301967Y97105D01*
X303148D01*
X303738Y96515D01*
Y95925D01*
X301377D01*
X304919Y94744D02*
X306100D01*
X305509D01*
Y98286D01*
X304919D01*
X309642Y94744D02*
X308461D01*
X307871Y95334D01*
Y96515D01*
X308461Y97105D01*
X309642D01*
X310232Y96515D01*
Y95925D01*
X307871D01*
X313774Y97105D02*
X312003D01*
X311413Y96515D01*
Y95334D01*
X312003Y94744D01*
X313774D01*
X315545Y97696D02*
Y97105D01*
X314955D01*
X316136D01*
X315545D01*
Y95334D01*
X316136Y94744D01*
X269291Y90747D02*
X271390D01*
X270341D01*
Y87598D01*
X274539Y90222D02*
X274014Y90747D01*
X272965D01*
X272440Y90222D01*
Y88123D01*
X272965Y87598D01*
X274014D01*
X274539Y88123D01*
X275588Y90747D02*
Y87598D01*
Y88648D01*
X277688Y90747D01*
X276113Y89173D01*
X277688Y87598D01*
X174049Y190151D02*
X173524Y189626D01*
Y188576D01*
X174049Y188051D01*
X176148D01*
X176673Y188576D01*
Y189626D01*
X176148Y190151D01*
X173524Y191200D02*
Y193299D01*
Y192250D01*
X176673D01*
X174049Y196448D02*
X173524Y195923D01*
Y194873D01*
X174049Y194349D01*
X174574D01*
X175099Y194873D01*
Y195923D01*
X175623Y196448D01*
X176148D01*
X176673Y195923D01*
Y194873D01*
X176148Y194349D01*
D15*
X168493Y45773D02*
Y44723D01*
Y45248D01*
X171117D01*
X171641Y44723D01*
Y44198D01*
X171117Y43674D01*
X171641Y46822D02*
X169542D01*
X168493Y47872D01*
X169542Y48921D01*
X171641D01*
X170067D01*
Y46822D01*
X171641Y49971D02*
Y51020D01*
Y50495D01*
X168493D01*
X169018Y49971D01*
X129123Y43673D02*
X131222D01*
X132272Y44723D01*
X131222Y45772D01*
X129123D01*
X129648Y48921D02*
X129123Y48396D01*
Y47347D01*
X129648Y46822D01*
X131747D01*
X132272Y47347D01*
Y48396D01*
X131747Y48921D01*
X129648Y52069D02*
X129123Y51545D01*
Y50495D01*
X129648Y49970D01*
X131747D01*
X132272Y50495D01*
Y51545D01*
X131747Y52069D01*
X139097Y45772D02*
X138572Y45248D01*
Y44198D01*
X139097Y43673D01*
X141196D01*
X141720Y44198D01*
Y45248D01*
X141196Y45772D01*
X140146D01*
Y44723D01*
X141720Y46822D02*
X138572D01*
X141720Y48921D01*
X138572D01*
Y49970D02*
X141720D01*
Y51545D01*
X141196Y52070D01*
X139097D01*
X138572Y51545D01*
Y49970D01*
X158257Y45772D02*
Y44723D01*
Y45248D01*
X160881D01*
X161406Y44723D01*
Y44198D01*
X160881Y43673D01*
X161406Y46822D02*
X159306D01*
X158257Y47871D01*
X159306Y48921D01*
X161406D01*
X159831D01*
Y46822D01*
X161406Y52069D02*
Y49970D01*
X159306Y52069D01*
X158782D01*
X158257Y51545D01*
Y50495D01*
X158782Y49970D01*
X148021Y45772D02*
Y44723D01*
Y45248D01*
X150645D01*
X151169Y44723D01*
Y44198D01*
X150645Y43673D01*
X151169Y46822D02*
X149070D01*
X148021Y47871D01*
X149070Y48921D01*
X151169D01*
X149595D01*
Y46822D01*
X151169Y52069D02*
Y49970D01*
X149070Y52069D01*
X148545D01*
X148021Y51545D01*
Y50495D01*
X148545Y49970D01*
X68099Y45772D02*
Y44723D01*
Y45248D01*
X70723D01*
X71248Y44723D01*
Y44198D01*
X70723Y43673D01*
X68099Y46822D02*
X71248D01*
Y48396D01*
X70723Y48921D01*
X70198D01*
X69674Y48396D01*
Y46822D01*
Y48396D01*
X69149Y48921D01*
X68624D01*
X68099Y48396D01*
Y46822D01*
X71248Y52070D02*
Y49970D01*
X69149Y52070D01*
X68624D01*
X68099Y51545D01*
Y50495D01*
X68624Y49970D01*
X88572Y45773D02*
Y44723D01*
Y45248D01*
X91195D01*
X91720Y44723D01*
Y44198D01*
X91195Y43674D01*
X88572Y46822D02*
X91720D01*
Y48397D01*
X91195Y48921D01*
X90671D01*
X90146Y48397D01*
Y46822D01*
Y48397D01*
X89621Y48921D01*
X89096D01*
X88572Y48397D01*
Y46822D01*
X91720Y49971D02*
Y51020D01*
Y50495D01*
X88572D01*
X89096Y49971D01*
X78335Y45773D02*
Y44723D01*
Y45248D01*
X80959D01*
X81484Y44723D01*
Y44198D01*
X80959Y43674D01*
X78335Y46822D02*
X81484D01*
Y48397D01*
X80959Y48921D01*
X80434D01*
X79910Y48397D01*
Y46822D01*
Y48397D01*
X79385Y48921D01*
X78860D01*
X78335Y48397D01*
Y46822D01*
X81484Y49971D02*
Y51020D01*
Y50495D01*
X78335D01*
X78860Y49971D01*
X48939Y45772D02*
X48414Y45248D01*
Y44198D01*
X48939Y43673D01*
X51038D01*
X51563Y44198D01*
Y45248D01*
X51038Y45772D01*
X49989D01*
Y44723D01*
X51563Y46822D02*
X48414D01*
X51563Y48921D01*
X48414D01*
Y49970D02*
X51563D01*
Y51545D01*
X51038Y52070D01*
X48939D01*
X48414Y51545D01*
Y49970D01*
X178729Y45773D02*
Y44723D01*
Y45248D01*
X181353D01*
X181878Y44723D01*
Y44198D01*
X181353Y43674D01*
X181878Y46822D02*
X179779D01*
X178729Y47872D01*
X179779Y48921D01*
X181878D01*
X180303D01*
Y46822D01*
X181878Y49971D02*
Y51020D01*
Y50495D01*
X178729D01*
X179254Y49971D01*
X57863Y45772D02*
Y44723D01*
Y45248D01*
X60487D01*
X61012Y44723D01*
Y44198D01*
X60487Y43673D01*
X57863Y46822D02*
X61012D01*
Y48396D01*
X60487Y48921D01*
X59962D01*
X59437Y48396D01*
Y46822D01*
Y48396D01*
X58913Y48921D01*
X58388D01*
X57863Y48396D01*
Y46822D01*
X61012Y52070D02*
Y49970D01*
X58913Y52070D01*
X58388D01*
X57863Y51545D01*
Y50495D01*
X58388Y49970D01*
X38966Y43673D02*
X41065D01*
X42114Y44723D01*
X41065Y45772D01*
X38966D01*
X39491Y48921D02*
X38966Y48396D01*
Y47347D01*
X39491Y46822D01*
X41590D01*
X42114Y47347D01*
Y48396D01*
X41590Y48921D01*
X39491Y52069D02*
X38966Y51545D01*
Y50495D01*
X39491Y49970D01*
X41590D01*
X42114Y50495D01*
Y51545D01*
X41590Y52069D01*
X169358Y105511D02*
Y104987D01*
X170407Y103937D01*
X171457Y104987D01*
Y105511D01*
X170407Y103937D02*
Y102363D01*
X172506D02*
X173556D01*
X173031D01*
Y105511D01*
X172506Y104987D01*
X350625Y101182D02*
Y104330D01*
X352199D01*
X352724Y103805D01*
Y102756D01*
X352199Y102231D01*
X350625D01*
X351674D02*
X352724Y101182D01*
X355348D02*
Y104330D01*
X353773Y102756D01*
X355872D01*
X359021Y104330D02*
X357971Y103805D01*
X356922Y102756D01*
Y101706D01*
X357447Y101182D01*
X358496D01*
X359021Y101706D01*
Y102231D01*
X358496Y102756D01*
X356922D01*
X365585Y98524D02*
Y101673D01*
X367160D01*
X367684Y101148D01*
Y100098D01*
X367160Y99574D01*
X365585D01*
X366635D02*
X367684Y98524D01*
X370308D02*
Y101673D01*
X368734Y100098D01*
X370833D01*
X373982Y101673D02*
X371883D01*
Y100098D01*
X372932Y100623D01*
X373457D01*
X373982Y100098D01*
Y99049D01*
X373457Y98524D01*
X372407D01*
X371883Y99049D01*
X385172Y105768D02*
Y108917D01*
X386746D01*
X387271Y108392D01*
Y107343D01*
X386746Y106818D01*
X385172D01*
X386222D02*
X387271Y105768D01*
X389895D02*
Y108917D01*
X388321Y107343D01*
X390420D01*
X393043Y105768D02*
Y108917D01*
X391469Y107343D01*
X393568D01*
X316109Y74763D02*
X315060D01*
X315585D01*
Y72140D01*
X315060Y71615D01*
X314535D01*
X314010Y72140D01*
X317159Y71615D02*
X318208D01*
X317684D01*
Y74763D01*
X317159Y74239D01*
X319783Y71615D02*
X320832D01*
X320307D01*
Y74763D01*
X319783Y74239D01*
X334318Y96778D02*
X333793Y97303D01*
X332744D01*
X332219Y96778D01*
Y94679D01*
X332744Y94154D01*
X333793D01*
X334318Y94679D01*
X335368Y96778D02*
X335893Y97303D01*
X336942D01*
X337467Y96778D01*
Y96253D01*
X336942Y95728D01*
X336417D01*
X336942D01*
X337467Y95204D01*
Y94679D01*
X336942Y94154D01*
X335893D01*
X335368Y94679D01*
X338516Y96778D02*
X339041Y97303D01*
X340091D01*
X340615Y96778D01*
Y96253D01*
X340091Y95728D01*
X339566D01*
X340091D01*
X340615Y95204D01*
Y94679D01*
X340091Y94154D01*
X339041D01*
X338516Y94679D01*
X323163Y16405D02*
X322638Y15880D01*
Y14831D01*
X323163Y14306D01*
X325262D01*
X325787Y14831D01*
Y15880D01*
X325262Y16405D01*
X325787Y19554D02*
Y17454D01*
X323688Y19554D01*
X323163D01*
X322638Y19029D01*
Y17979D01*
X323163Y17454D01*
X325262Y20603D02*
X325787Y21128D01*
Y22177D01*
X325262Y22702D01*
X323163D01*
X322638Y22177D01*
Y21128D01*
X323163Y20603D01*
X323688D01*
X324213Y21128D01*
Y22702D01*
X320407Y57644D02*
X319883Y58169D01*
X318833D01*
X318308Y57644D01*
Y55545D01*
X318833Y55020D01*
X319883D01*
X320407Y55545D01*
X321457Y55020D02*
X322506D01*
X321982D01*
Y58169D01*
X321457Y57644D01*
X324081Y58169D02*
X326180D01*
Y57644D01*
X324081Y55545D01*
Y55020D01*
X301806Y2855D02*
Y6003D01*
X303380D01*
X303905Y5479D01*
Y4429D01*
X303380Y3904D01*
X301806D01*
X302855D02*
X303905Y2855D01*
X306529D02*
Y6003D01*
X304954Y4429D01*
X307053D01*
X310202Y2855D02*
X308103D01*
X310202Y4954D01*
Y5479D01*
X309677Y6003D01*
X308628D01*
X308103Y5479D01*
X284318Y17880D02*
X283793Y18405D01*
X282744D01*
X282219Y17880D01*
Y15781D01*
X282744Y15256D01*
X283793D01*
X284318Y15781D01*
X285368Y17880D02*
X285893Y18405D01*
X286942D01*
X287467Y17880D01*
Y17356D01*
X286942Y16831D01*
X286417D01*
X286942D01*
X287467Y16306D01*
Y15781D01*
X286942Y15256D01*
X285893D01*
X285368Y15781D01*
X290615Y15256D02*
X288516D01*
X290615Y17356D01*
Y17880D01*
X290091Y18405D01*
X289041D01*
X288516Y17880D01*
X284646Y22703D02*
X284121Y23228D01*
X283072D01*
X282547Y22703D01*
Y20604D01*
X283072Y20079D01*
X284121D01*
X284646Y20604D01*
X285696Y22703D02*
X286221Y23228D01*
X287270D01*
X287795Y22703D01*
Y22178D01*
X287270Y21654D01*
X286745D01*
X287270D01*
X287795Y21129D01*
Y20604D01*
X287270Y20079D01*
X286221D01*
X285696Y20604D01*
X288844Y20079D02*
X289894D01*
X289369D01*
Y23228D01*
X288844Y22703D01*
X316306Y13254D02*
X315782Y13779D01*
X314732D01*
X314207Y13254D01*
Y11155D01*
X314732Y10630D01*
X315782D01*
X316306Y11155D01*
X317356Y13254D02*
X317881Y13779D01*
X318930D01*
X319455Y13254D01*
Y12730D01*
X318930Y12205D01*
X318406D01*
X318930D01*
X319455Y11680D01*
Y11155D01*
X318930Y10630D01*
X317881D01*
X317356Y11155D01*
X320505Y13254D02*
X321029Y13779D01*
X322079D01*
X322604Y13254D01*
Y11155D01*
X322079Y10630D01*
X321029D01*
X320505Y11155D01*
Y13254D01*
X314503Y6004D02*
Y9153D01*
X316077D01*
X316602Y8628D01*
Y7579D01*
X316077Y7054D01*
X314503D01*
X315552D02*
X316602Y6004D01*
X319226D02*
Y9153D01*
X317651Y7579D01*
X319750D01*
X320800Y8628D02*
X321325Y9153D01*
X322374D01*
X322899Y8628D01*
Y8104D01*
X322374Y7579D01*
X321849D01*
X322374D01*
X322899Y7054D01*
Y6529D01*
X322374Y6004D01*
X321325D01*
X320800Y6529D01*
X281169Y71653D02*
Y68504D01*
X283268D01*
X284317D02*
X285367D01*
X284842D01*
Y71653D01*
X284317Y71128D01*
X292356Y12861D02*
X291831Y13385D01*
X290782D01*
X290257Y12861D01*
Y10762D01*
X290782Y10237D01*
X291831D01*
X292356Y10762D01*
X293406Y10237D02*
X294455D01*
X293931D01*
Y13385D01*
X293406Y12861D01*
X298129Y13385D02*
X297079Y12861D01*
X296030Y11811D01*
Y10762D01*
X296554Y10237D01*
X297604D01*
X298129Y10762D01*
Y11286D01*
X297604Y11811D01*
X296030D01*
X171195Y166463D02*
X170670Y166988D01*
X169621D01*
X169096Y166463D01*
Y164364D01*
X169621Y163839D01*
X170670D01*
X171195Y164364D01*
X172244Y163839D02*
X173294D01*
X172769D01*
Y166988D01*
X172244Y166463D01*
X174868D02*
X175393Y166988D01*
X176443D01*
X176967Y166463D01*
Y165938D01*
X176443Y165413D01*
X175918D01*
X176443D01*
X176967Y164889D01*
Y164364D01*
X176443Y163839D01*
X175393D01*
X174868Y164364D01*
X235329Y73746D02*
X234804Y74271D01*
X233754D01*
X233230Y73746D01*
Y71647D01*
X233754Y71123D01*
X234804D01*
X235329Y71647D01*
X236378Y71123D02*
X237428D01*
X236903D01*
Y74271D01*
X236378Y73746D01*
X241101Y71123D02*
X239002D01*
X241101Y73222D01*
Y73746D01*
X240576Y74271D01*
X239527D01*
X239002Y73746D01*
X231562Y63904D02*
X231037Y64429D01*
X229988D01*
X229463Y63904D01*
Y61805D01*
X229988Y61280D01*
X231037D01*
X231562Y61805D01*
X232611Y63904D02*
X233136Y64429D01*
X234186D01*
X234710Y63904D01*
Y63379D01*
X234186Y62854D01*
X233661D01*
X234186D01*
X234710Y62330D01*
Y61805D01*
X234186Y61280D01*
X233136D01*
X232611Y61805D01*
X224016Y21581D02*
X223491Y22106D01*
X222442D01*
X221917Y21581D01*
Y19482D01*
X222442Y18957D01*
X223491D01*
X224016Y19482D01*
X225065Y18957D02*
X226115D01*
X225590D01*
Y22106D01*
X225065Y21581D01*
X241930Y42744D02*
Y40644D01*
X243504D01*
Y41694D01*
Y40644D01*
X245078D01*
X241930Y43793D02*
X245078D01*
Y45367D01*
X244553Y45892D01*
X244029D01*
X243504Y45367D01*
Y43793D01*
Y45367D01*
X242979Y45892D01*
X242454D01*
X241930Y45367D01*
Y43793D01*
X242454Y46942D02*
X241930Y47466D01*
Y48516D01*
X242454Y49041D01*
X242979D01*
X243504Y48516D01*
Y47991D01*
Y48516D01*
X244029Y49041D01*
X244553D01*
X245078Y48516D01*
Y47466D01*
X244553Y46942D01*
X242061Y28078D02*
X241536Y27553D01*
Y26504D01*
X242061Y25979D01*
X244160D01*
X244685Y26504D01*
Y27553D01*
X244160Y28078D01*
X244685Y31227D02*
Y29128D01*
X242585Y31227D01*
X242061D01*
X241536Y30702D01*
Y29652D01*
X242061Y29128D01*
X241536Y34375D02*
X242061Y33326D01*
X243110Y32276D01*
X244160D01*
X244685Y32801D01*
Y33850D01*
X244160Y34375D01*
X243635D01*
X243110Y33850D01*
Y32276D01*
X187435Y44153D02*
Y41529D01*
X187960Y41004D01*
X189009D01*
X189534Y41529D01*
Y44153D01*
X192683Y41004D02*
X190584D01*
X192683Y43104D01*
Y43628D01*
X192158Y44153D01*
X191109D01*
X190584Y43628D01*
X235860Y101339D02*
Y104488D01*
X237435D01*
X237960Y103963D01*
Y102913D01*
X237435Y102389D01*
X235860D01*
X236910D02*
X237960Y101339D01*
X241108Y104488D02*
X240059Y103963D01*
X239009Y102913D01*
Y101864D01*
X239534Y101339D01*
X240583D01*
X241108Y101864D01*
Y102389D01*
X240583Y102913D01*
X239009D01*
X207940Y79528D02*
Y82677D01*
X209515D01*
X210039Y82152D01*
Y81102D01*
X209515Y80578D01*
X207940D01*
X208990D02*
X210039Y79528D01*
X211089D02*
X212138D01*
X211614D01*
Y82677D01*
X211089Y82152D01*
X190355Y64043D02*
Y61944D01*
X191929D01*
Y62993D01*
Y61944D01*
X193503D01*
X190355Y65092D02*
X193503D01*
Y66667D01*
X192979Y67191D01*
X192454D01*
X191929Y66667D01*
Y65092D01*
Y66667D01*
X191404Y67191D01*
X190880D01*
X190355Y66667D01*
Y65092D01*
X193503Y70340D02*
Y68241D01*
X191404Y70340D01*
X190880D01*
X190355Y69815D01*
Y68766D01*
X190880Y68241D01*
X251772Y91989D02*
Y89890D01*
X253346D01*
Y90939D01*
Y89890D01*
X254921D01*
X251772Y93038D02*
X254921D01*
Y94612D01*
X254396Y95137D01*
X253871D01*
X253346Y94612D01*
Y93038D01*
Y94612D01*
X252822Y95137D01*
X252297D01*
X251772Y94612D01*
Y93038D01*
X254921Y96187D02*
Y97236D01*
Y96712D01*
X251772D01*
X252297Y96187D01*
X234220Y55538D02*
X233695Y56063D01*
X232646D01*
X232121Y55538D01*
Y53439D01*
X232646Y52914D01*
X233695D01*
X234220Y53439D01*
X237368Y52914D02*
X235269D01*
X237368Y55013D01*
Y55538D01*
X236844Y56063D01*
X235794D01*
X235269Y55538D01*
X238418Y56063D02*
X240517D01*
Y55538D01*
X238418Y53439D01*
Y52914D01*
X172376Y127035D02*
X171851Y126510D01*
Y125461D01*
X172376Y124936D01*
X174475D01*
X174999Y125461D01*
Y126510D01*
X174475Y127035D01*
X174999Y130183D02*
Y128084D01*
X172900Y130183D01*
X172376D01*
X171851Y129659D01*
Y128609D01*
X172376Y128084D01*
X171851Y133332D02*
Y131233D01*
X173425D01*
X172900Y132282D01*
Y132807D01*
X173425Y133332D01*
X174475D01*
X174999Y132807D01*
Y131758D01*
X174475Y131233D01*
X252199Y127586D02*
X251674Y127061D01*
Y126012D01*
X252199Y125487D01*
X254298D01*
X254822Y126012D01*
Y127061D01*
X254298Y127586D01*
X254822Y130735D02*
Y128636D01*
X252723Y130735D01*
X252199D01*
X251674Y130210D01*
Y129160D01*
X252199Y128636D01*
X254822Y133358D02*
X251674D01*
X253248Y131784D01*
Y133883D01*
X244259Y152388D02*
X243735Y152913D01*
X242685D01*
X242160Y152388D01*
Y150289D01*
X242685Y149764D01*
X243735D01*
X244259Y150289D01*
X247408Y149764D02*
X245309D01*
X247408Y151863D01*
Y152388D01*
X246883Y152913D01*
X245833D01*
X245309Y152388D01*
X248457D02*
X248982Y152913D01*
X250032D01*
X250556Y152388D01*
Y151863D01*
X250032Y151339D01*
X249507D01*
X250032D01*
X250556Y150814D01*
Y150289D01*
X250032Y149764D01*
X248982D01*
X248457Y150289D01*
X195342Y170597D02*
X194817Y171122D01*
X193768D01*
X193243Y170597D01*
Y168498D01*
X193768Y167973D01*
X194817D01*
X195342Y168498D01*
X198491Y167973D02*
X196391D01*
X198491Y170072D01*
Y170597D01*
X197966Y171122D01*
X196916D01*
X196391Y170597D01*
X201639Y167973D02*
X199540D01*
X201639Y170072D01*
Y170597D01*
X201114Y171122D01*
X200065D01*
X199540Y170597D01*
X171162Y119416D02*
X170637Y119940D01*
X169588D01*
X169063Y119416D01*
Y117317D01*
X169588Y116792D01*
X170637D01*
X171162Y117317D01*
X174311Y116792D02*
X172212D01*
X174311Y118891D01*
Y119416D01*
X173786Y119940D01*
X172736D01*
X172212Y119416D01*
X175360Y116792D02*
X176410D01*
X175885D01*
Y119940D01*
X175360Y119416D01*
X222966Y77487D02*
X222442Y76963D01*
Y75913D01*
X222966Y75388D01*
X225065D01*
X225590Y75913D01*
Y76963D01*
X225065Y77487D01*
X225590Y80636D02*
Y78537D01*
X223491Y80636D01*
X222966D01*
X222442Y80111D01*
Y79062D01*
X222966Y78537D01*
Y81686D02*
X222442Y82210D01*
Y83260D01*
X222966Y83785D01*
X225065D01*
X225590Y83260D01*
Y82210D01*
X225065Y81686D01*
X222966D01*
X224246Y169908D02*
X223721Y170433D01*
X222672D01*
X222147Y169908D01*
Y167809D01*
X222672Y167284D01*
X223721D01*
X224246Y167809D01*
X225295Y167284D02*
X226345D01*
X225820D01*
Y170433D01*
X225295Y169908D01*
X227919Y167809D02*
X228444Y167284D01*
X229494D01*
X230018Y167809D01*
Y169908D01*
X229494Y170433D01*
X228444D01*
X227919Y169908D01*
Y169383D01*
X228444Y168858D01*
X230018D01*
X187533Y107376D02*
X187008Y106851D01*
Y105802D01*
X187533Y105277D01*
X189632D01*
X190157Y105802D01*
Y106851D01*
X189632Y107376D01*
X190157Y108425D02*
Y109475D01*
Y108950D01*
X187008D01*
X187533Y108425D01*
Y111049D02*
X187008Y111574D01*
Y112624D01*
X187533Y113148D01*
X188058D01*
X188583Y112624D01*
X189107Y113148D01*
X189632D01*
X190157Y112624D01*
Y111574D01*
X189632Y111049D01*
X189107D01*
X188583Y111574D01*
X188058Y111049D01*
X187533D01*
X188583Y111574D02*
Y112624D01*
X187238Y51699D02*
X186713Y52224D01*
X185664D01*
X185139Y51699D01*
Y49600D01*
X185664Y49075D01*
X186713D01*
X187238Y49600D01*
X188288Y49075D02*
X189337D01*
X188812D01*
Y52224D01*
X188288Y51699D01*
X193010Y52224D02*
X190911D01*
Y50650D01*
X191961Y51174D01*
X192486D01*
X193010Y50650D01*
Y49600D01*
X192486Y49075D01*
X191436D01*
X190911Y49600D01*
X217356Y81267D02*
X216831Y80742D01*
Y79692D01*
X217356Y79167D01*
X219455D01*
X219980Y79692D01*
Y80742D01*
X219455Y81267D01*
X219980Y83890D02*
X216831D01*
X218406Y82316D01*
Y84415D01*
X198885Y98687D02*
X198360Y99212D01*
X197310D01*
X196786Y98687D01*
Y96588D01*
X197310Y96064D01*
X198360D01*
X198885Y96588D01*
X202033Y96064D02*
X199934D01*
X202033Y98163D01*
Y98687D01*
X201508Y99212D01*
X200459D01*
X199934Y98687D01*
X188025Y148649D02*
X187501Y148124D01*
Y147075D01*
X188025Y146550D01*
X190124D01*
X190649Y147075D01*
Y148124D01*
X190124Y148649D01*
X190649Y151798D02*
Y149698D01*
X188550Y151798D01*
X188025D01*
X187501Y151273D01*
Y150223D01*
X188025Y149698D01*
Y152847D02*
X187501Y153372D01*
Y154421D01*
X188025Y154946D01*
X188550D01*
X189075Y154421D01*
X189600Y154946D01*
X190124D01*
X190649Y154421D01*
Y153372D01*
X190124Y152847D01*
X189600D01*
X189075Y153372D01*
X188550Y152847D01*
X188025D01*
X189075Y153372D02*
Y154421D01*
X300853Y224960D02*
X299804D01*
X300328D01*
Y222336D01*
X299804Y221812D01*
X299279D01*
X298754Y222336D01*
X301903Y224435D02*
X302428Y224960D01*
X303477D01*
X304002Y224435D01*
Y223911D01*
X303477Y223386D01*
X302952D01*
X303477D01*
X304002Y222861D01*
Y222336D01*
X303477Y221812D01*
X302428D01*
X301903Y222336D01*
X373098Y92973D02*
Y96122D01*
X374673D01*
X375197Y95597D01*
Y94547D01*
X374673Y94023D01*
X373098D01*
X374148D02*
X375197Y92973D01*
X377821D02*
Y96122D01*
X376247Y94547D01*
X378346D01*
X379396Y92973D02*
X380445D01*
X379920D01*
Y96122D01*
X379396Y95597D01*
X381201Y64661D02*
X384350D01*
Y66760D01*
X381201Y69908D02*
Y67809D01*
X384350D01*
Y69908D01*
X382776Y67809D02*
Y68859D01*
X381201Y70958D02*
X384350D01*
Y72532D01*
X383825Y73057D01*
X381726D01*
X381201Y72532D01*
Y70958D01*
X381726Y74106D02*
X381201Y74631D01*
Y75681D01*
X381726Y76205D01*
X382251D01*
X382776Y75681D01*
Y75156D01*
Y75681D01*
X383300Y76205D01*
X383825D01*
X384350Y75681D01*
Y74631D01*
X383825Y74106D01*
X111058Y206654D02*
Y209803D01*
X112632D01*
X113157Y209278D01*
Y208228D01*
X112632Y207704D01*
X111058D01*
X112107D02*
X113157Y206654D01*
X115781D02*
Y209803D01*
X114206Y208228D01*
X116305D01*
X117355Y209278D02*
X117880Y209803D01*
X118929D01*
X119454Y209278D01*
Y207179D01*
X118929Y206654D01*
X117880D01*
X117355Y207179D01*
Y209278D01*
X80349Y207245D02*
Y210393D01*
X81923D01*
X82448Y209868D01*
Y208819D01*
X81923Y208294D01*
X80349D01*
X81399D02*
X82448Y207245D01*
X83498Y209868D02*
X84022Y210393D01*
X85072D01*
X85597Y209868D01*
Y209344D01*
X85072Y208819D01*
X84547D01*
X85072D01*
X85597Y208294D01*
Y207769D01*
X85072Y207245D01*
X84022D01*
X83498Y207769D01*
X86646D02*
X87171Y207245D01*
X88221D01*
X88745Y207769D01*
Y209868D01*
X88221Y210393D01*
X87171D01*
X86646Y209868D01*
Y209344D01*
X87171Y208819D01*
X88745D01*
X344423Y97795D02*
Y95171D01*
X344948Y94646D01*
X345998D01*
X346522Y95171D01*
Y97795D01*
X347572D02*
X349671D01*
Y97270D01*
X347572Y95171D01*
Y94646D01*
X299148Y39370D02*
Y36746D01*
X299673Y36221D01*
X300722D01*
X301247Y36746D01*
Y39370D01*
X304396D02*
X303346Y38845D01*
X302296Y37795D01*
Y36746D01*
X302821Y36221D01*
X303871D01*
X304396Y36746D01*
Y37271D01*
X303871Y37795D01*
X302296D01*
X340388Y105767D02*
Y103143D01*
X340913Y102619D01*
X341962D01*
X342487Y103143D01*
Y105767D01*
X345636D02*
X343537D01*
Y104193D01*
X344586Y104718D01*
X345111D01*
X345636Y104193D01*
Y103143D01*
X345111Y102619D01*
X344061D01*
X343537Y103143D01*
X302494Y115216D02*
Y112592D01*
X303019Y112067D01*
X304069D01*
X304593Y112592D01*
Y115216D01*
X307217Y112067D02*
Y115216D01*
X305643Y113642D01*
X307742D01*
X166471Y124409D02*
Y121785D01*
X166995Y121260D01*
X168045D01*
X168570Y121785D01*
Y124409D01*
X169619Y123884D02*
X170144Y124409D01*
X171194D01*
X171718Y123884D01*
Y123359D01*
X171194Y122835D01*
X170669D01*
X171194D01*
X171718Y122310D01*
Y121785D01*
X171194Y121260D01*
X170144D01*
X169619Y121785D01*
X192684Y154488D02*
Y151864D01*
X193209Y151339D01*
X194259D01*
X194783Y151864D01*
Y154488D01*
X195833Y151339D02*
X196882D01*
X196358D01*
Y154488D01*
X195833Y153963D01*
X78216Y111049D02*
X77691Y111574D01*
X76642D01*
X76117Y111049D01*
Y110525D01*
X76642Y110000D01*
X77691D01*
X78216Y109475D01*
Y108950D01*
X77691Y108426D01*
X76642D01*
X76117Y108950D01*
X79265Y111574D02*
Y108426D01*
X80315Y109475D01*
X81365Y108426D01*
Y111574D01*
X83988Y108426D02*
Y111574D01*
X82414Y110000D01*
X84513D01*
X98098Y111049D02*
X97573Y111574D01*
X96523D01*
X95999Y111049D01*
Y110525D01*
X96523Y110000D01*
X97573D01*
X98098Y109475D01*
Y108950D01*
X97573Y108426D01*
X96523D01*
X95999Y108950D01*
X99147Y111574D02*
Y108426D01*
X100197Y109475D01*
X101246Y108426D01*
Y111574D01*
X102296Y111049D02*
X102821Y111574D01*
X103870D01*
X104395Y111049D01*
Y110525D01*
X103870Y110000D01*
X103346D01*
X103870D01*
X104395Y109475D01*
Y108950D01*
X103870Y108426D01*
X102821D01*
X102296Y108950D01*
X117192Y111049D02*
X116667Y111574D01*
X115618D01*
X115093Y111049D01*
Y110525D01*
X115618Y110000D01*
X116667D01*
X117192Y109475D01*
Y108950D01*
X116667Y108426D01*
X115618D01*
X115093Y108950D01*
X118242Y111574D02*
Y108426D01*
X119291Y109475D01*
X120341Y108426D01*
Y111574D01*
X123489Y108426D02*
X121390D01*
X123489Y110525D01*
Y111049D01*
X122965Y111574D01*
X121915D01*
X121390Y111049D01*
X137107D02*
X136582Y111574D01*
X135532D01*
X135008Y111049D01*
Y110525D01*
X135532Y110000D01*
X136582D01*
X137107Y109475D01*
Y108950D01*
X136582Y108426D01*
X135532D01*
X135008Y108950D01*
X138156Y111574D02*
Y108426D01*
X139206Y109475D01*
X140255Y108426D01*
Y111574D01*
X141305Y108426D02*
X142354D01*
X141830D01*
Y111574D01*
X141305Y111049D01*
X373755Y123229D02*
Y126377D01*
X375329D01*
X375854Y125853D01*
Y124803D01*
X375329Y124278D01*
X373755D01*
X374804D02*
X375854Y123229D01*
X376903Y125853D02*
X377428Y126377D01*
X378478D01*
X379002Y125853D01*
Y125328D01*
X378478Y124803D01*
X377953D01*
X378478D01*
X379002Y124278D01*
Y123754D01*
X378478Y123229D01*
X377428D01*
X376903Y123754D01*
X380052Y125853D02*
X380577Y126377D01*
X381626D01*
X382151Y125853D01*
Y125328D01*
X381626Y124803D01*
X382151Y124278D01*
Y123754D01*
X381626Y123229D01*
X380577D01*
X380052Y123754D01*
Y124278D01*
X380577Y124803D01*
X380052Y125328D01*
Y125853D01*
X380577Y124803D02*
X381626D01*
X340684Y127756D02*
Y130905D01*
X342258D01*
X342783Y130380D01*
Y129331D01*
X342258Y128806D01*
X340684D01*
X341733D02*
X342783Y127756D01*
X343832Y130380D02*
X344357Y130905D01*
X345407D01*
X345931Y130380D01*
Y129856D01*
X345407Y129331D01*
X344882D01*
X345407D01*
X345931Y128806D01*
Y128281D01*
X345407Y127756D01*
X344357D01*
X343832Y128281D01*
X346981Y130905D02*
X349080D01*
Y130380D01*
X346981Y128281D01*
Y127756D01*
X320507Y101831D02*
Y104980D01*
X322081D01*
X322606Y104455D01*
Y103405D01*
X322081Y102881D01*
X320507D01*
X321556D02*
X322606Y101831D01*
X323655Y104455D02*
X324180Y104980D01*
X325230D01*
X325754Y104455D01*
Y103930D01*
X325230Y103405D01*
X324705D01*
X325230D01*
X325754Y102881D01*
Y102356D01*
X325230Y101831D01*
X324180D01*
X323655Y102356D01*
X328903Y104980D02*
X327853Y104455D01*
X326804Y103405D01*
Y102356D01*
X327329Y101831D01*
X328378D01*
X328903Y102356D01*
Y102881D01*
X328378Y103405D01*
X326804D01*
X133070Y186314D02*
X129922D01*
Y187888D01*
X130447Y188413D01*
X131496D01*
X132021Y187888D01*
Y186314D01*
Y187363D02*
X133070Y188413D01*
X130447Y189462D02*
X129922Y189987D01*
Y191037D01*
X130447Y191561D01*
X130971D01*
X131496Y191037D01*
Y190512D01*
Y191037D01*
X132021Y191561D01*
X132546D01*
X133070Y191037D01*
Y189987D01*
X132546Y189462D01*
X129922Y194710D02*
Y192611D01*
X131496D01*
X130971Y193660D01*
Y194185D01*
X131496Y194710D01*
X132546D01*
X133070Y194185D01*
Y193136D01*
X132546Y192611D01*
X124606Y186314D02*
X121457D01*
Y187888D01*
X121982Y188413D01*
X123031D01*
X123556Y187888D01*
Y186314D01*
Y187363D02*
X124606Y188413D01*
X121982Y189462D02*
X121457Y189987D01*
Y191037D01*
X121982Y191561D01*
X122507D01*
X123031Y191037D01*
Y190512D01*
Y191037D01*
X123556Y191561D01*
X124081D01*
X124606Y191037D01*
Y189987D01*
X124081Y189462D01*
X124606Y194185D02*
X121457D01*
X123031Y192611D01*
Y194710D01*
X81299Y186314D02*
X78150D01*
Y187888D01*
X78675Y188413D01*
X79724D01*
X80249Y187888D01*
Y186314D01*
Y187363D02*
X81299Y188413D01*
X78675Y189462D02*
X78150Y189987D01*
Y191037D01*
X78675Y191561D01*
X79200D01*
X79724Y191037D01*
Y190512D01*
Y191037D01*
X80249Y191561D01*
X80774D01*
X81299Y191037D01*
Y189987D01*
X80774Y189462D01*
X78675Y192611D02*
X78150Y193136D01*
Y194185D01*
X78675Y194710D01*
X79200D01*
X79724Y194185D01*
Y193660D01*
Y194185D01*
X80249Y194710D01*
X80774D01*
X81299Y194185D01*
Y193136D01*
X80774Y192611D01*
X72637Y186117D02*
X69489D01*
Y187691D01*
X70013Y188216D01*
X71063D01*
X71588Y187691D01*
Y186117D01*
Y187166D02*
X72637Y188216D01*
X70013Y189265D02*
X69489Y189790D01*
Y190840D01*
X70013Y191365D01*
X70538D01*
X71063Y190840D01*
Y190315D01*
Y190840D01*
X71588Y191365D01*
X72113D01*
X72637Y190840D01*
Y189790D01*
X72113Y189265D01*
X72637Y194513D02*
Y192414D01*
X70538Y194513D01*
X70013D01*
X69489Y193988D01*
Y192939D01*
X70013Y192414D01*
X89960Y186051D02*
X86812D01*
Y187625D01*
X87336Y188150D01*
X88386D01*
X88911Y187625D01*
Y186051D01*
Y187101D02*
X89960Y188150D01*
X87336Y189200D02*
X86812Y189724D01*
Y190774D01*
X87336Y191299D01*
X87861D01*
X88386Y190774D01*
Y190249D01*
Y190774D01*
X88911Y191299D01*
X89435D01*
X89960Y190774D01*
Y189724D01*
X89435Y189200D01*
X89960Y192348D02*
Y193398D01*
Y192873D01*
X86812D01*
X87336Y192348D01*
X214503Y209292D02*
Y212440D01*
X216077D01*
X216602Y211916D01*
Y210866D01*
X216077Y210341D01*
X214503D01*
X215552D02*
X216602Y209292D01*
X217651Y211916D02*
X218176Y212440D01*
X219226D01*
X219750Y211916D01*
Y211391D01*
X219226Y210866D01*
X218701D01*
X219226D01*
X219750Y210341D01*
Y209817D01*
X219226Y209292D01*
X218176D01*
X217651Y209817D01*
X220800Y211916D02*
X221325Y212440D01*
X222374D01*
X222899Y211916D01*
Y209817D01*
X222374Y209292D01*
X221325D01*
X220800Y209817D01*
Y211916D01*
X226314Y194095D02*
Y197244D01*
X227888D01*
X228413Y196719D01*
Y195669D01*
X227888Y195144D01*
X226314D01*
X227363D02*
X228413Y194095D01*
X231561D02*
X229462D01*
X231561Y196194D01*
Y196719D01*
X231037Y197244D01*
X229987D01*
X229462Y196719D01*
X232611Y194620D02*
X233136Y194095D01*
X234185D01*
X234710Y194620D01*
Y196719D01*
X234185Y197244D01*
X233136D01*
X232611Y196719D01*
Y196194D01*
X233136Y195669D01*
X234710D01*
X228937Y209680D02*
X225788D01*
Y211254D01*
X226313Y211779D01*
X227362D01*
X227887Y211254D01*
Y209680D01*
Y210729D02*
X228937Y211779D01*
Y214928D02*
Y212828D01*
X226837Y214928D01*
X226313D01*
X225788Y214403D01*
Y213353D01*
X226313Y212828D01*
Y215977D02*
X225788Y216502D01*
Y217551D01*
X226313Y218076D01*
X226837D01*
X227362Y217551D01*
X227887Y218076D01*
X228412D01*
X228937Y217551D01*
Y216502D01*
X228412Y215977D01*
X227887D01*
X227362Y216502D01*
X226837Y215977D01*
X226313D01*
X227362Y216502D02*
Y217551D01*
X258956Y209483D02*
X255808D01*
Y211057D01*
X256332Y211582D01*
X257382D01*
X257907Y211057D01*
Y209483D01*
Y210532D02*
X258956Y211582D01*
Y214731D02*
Y212632D01*
X256857Y214731D01*
X256332D01*
X255808Y214206D01*
Y213156D01*
X256332Y212632D01*
X255808Y215780D02*
Y217879D01*
X256332D01*
X258431Y215780D01*
X258956D01*
X251215Y194095D02*
Y197244D01*
X252790D01*
X253314Y196719D01*
Y195669D01*
X252790Y195144D01*
X251215D01*
X252265D02*
X253314Y194095D01*
X256463D02*
X254364D01*
X256463Y196194D01*
Y196719D01*
X255938Y197244D01*
X254889D01*
X254364Y196719D01*
X259612Y197244D02*
X258562Y196719D01*
X257512Y195669D01*
Y194620D01*
X258037Y194095D01*
X259087D01*
X259612Y194620D01*
Y195144D01*
X259087Y195669D01*
X257512D01*
X262042Y193898D02*
Y197047D01*
X263616D01*
X264141Y196522D01*
Y195473D01*
X263616Y194948D01*
X262042D01*
X263092D02*
X264141Y193898D01*
X267290D02*
X265191D01*
X267290Y195997D01*
Y196522D01*
X266765Y197047D01*
X265715D01*
X265191Y196522D01*
X270438Y197047D02*
X268339D01*
Y195473D01*
X269389Y195997D01*
X269914D01*
X270438Y195473D01*
Y194423D01*
X269914Y193898D01*
X268864D01*
X268339Y194423D01*
X279626Y198597D02*
X276477D01*
Y200171D01*
X277002Y200696D01*
X278051D01*
X278576Y200171D01*
Y198597D01*
Y199647D02*
X279626Y200696D01*
Y203845D02*
Y201746D01*
X277526Y203845D01*
X277002D01*
X276477Y203320D01*
Y202271D01*
X277002Y201746D01*
X279626Y206469D02*
X276477D01*
X278051Y204894D01*
Y206993D01*
X281235Y203249D02*
Y206397D01*
X282809D01*
X283334Y205872D01*
Y204823D01*
X282809Y204298D01*
X281235D01*
X282284D02*
X283334Y203249D01*
X286483D02*
X284384D01*
X286483Y205348D01*
Y205872D01*
X285958Y206397D01*
X284908D01*
X284384Y205872D01*
X287532D02*
X288057Y206397D01*
X289106D01*
X289631Y205872D01*
Y205348D01*
X289106Y204823D01*
X288582D01*
X289106D01*
X289631Y204298D01*
Y203773D01*
X289106Y203249D01*
X288057D01*
X287532Y203773D01*
X106889Y186314D02*
X103741D01*
Y187888D01*
X104265Y188413D01*
X105315D01*
X105840Y187888D01*
Y186314D01*
Y187363D02*
X106889Y188413D01*
Y191561D02*
Y189462D01*
X104790Y191561D01*
X104265D01*
X103741Y191037D01*
Y189987D01*
X104265Y189462D01*
X106889Y194710D02*
Y192611D01*
X104790Y194710D01*
X104265D01*
X103741Y194185D01*
Y193136D01*
X104265Y192611D01*
X295244Y147993D02*
Y151141D01*
X296818D01*
X297343Y150617D01*
Y149567D01*
X296818Y149042D01*
X295244D01*
X296293D02*
X297343Y147993D01*
X300492D02*
X298393D01*
X300492Y150092D01*
Y150617D01*
X299967Y151141D01*
X298917D01*
X298393Y150617D01*
X301541Y147993D02*
X302591D01*
X302066D01*
Y151141D01*
X301541Y150617D01*
X98031Y186314D02*
X94882D01*
Y187888D01*
X95407Y188413D01*
X96457D01*
X96981Y187888D01*
Y186314D01*
Y187363D02*
X98031Y188413D01*
Y191561D02*
Y189462D01*
X95932Y191561D01*
X95407D01*
X94882Y191037D01*
Y189987D01*
X95407Y189462D01*
Y192611D02*
X94882Y193136D01*
Y194185D01*
X95407Y194710D01*
X97506D01*
X98031Y194185D01*
Y193136D01*
X97506Y192611D01*
X95407D01*
X319881Y106556D02*
X316733D01*
Y108131D01*
X317257Y108655D01*
X318307D01*
X318832Y108131D01*
Y106556D01*
Y107606D02*
X319881Y108655D01*
Y109705D02*
Y110755D01*
Y110230D01*
X316733D01*
X317257Y109705D01*
X319357Y112329D02*
X319881Y112854D01*
Y113903D01*
X319357Y114428D01*
X317257D01*
X316733Y113903D01*
Y112854D01*
X317257Y112329D01*
X317782D01*
X318307Y112854D01*
Y114428D01*
X335236Y118072D02*
X332087D01*
Y119646D01*
X332612Y120171D01*
X333661D01*
X334186Y119646D01*
Y118072D01*
Y119122D02*
X335236Y120171D01*
Y121221D02*
Y122270D01*
Y121746D01*
X332087D01*
X332612Y121221D01*
Y123845D02*
X332087Y124369D01*
Y125419D01*
X332612Y125944D01*
X333137D01*
X333661Y125419D01*
X334186Y125944D01*
X334711D01*
X335236Y125419D01*
Y124369D01*
X334711Y123845D01*
X334186D01*
X333661Y124369D01*
X333137Y123845D01*
X332612D01*
X333661Y124369D02*
Y125419D01*
X320474Y142973D02*
Y146122D01*
X322048D01*
X322573Y145597D01*
Y144547D01*
X322048Y144023D01*
X320474D01*
X321523D02*
X322573Y142973D01*
X323622D02*
X324672D01*
X324147D01*
Y146122D01*
X323622Y145597D01*
X326246Y146122D02*
X328345D01*
Y145597D01*
X326246Y143498D01*
Y142973D01*
X291338Y106950D02*
X288190D01*
Y108524D01*
X288714Y109049D01*
X289764D01*
X290288Y108524D01*
Y106950D01*
Y108000D02*
X291338Y109049D01*
Y110099D02*
Y111148D01*
Y110624D01*
X288190D01*
X288714Y110099D01*
X288190Y114822D02*
X288714Y113772D01*
X289764Y112723D01*
X290813D01*
X291338Y113247D01*
Y114297D01*
X290813Y114822D01*
X290288D01*
X289764Y114297D01*
Y112723D01*
X291535Y117678D02*
X288386D01*
Y119253D01*
X288911Y119778D01*
X289961D01*
X290485Y119253D01*
Y117678D01*
Y118728D02*
X291535Y119778D01*
Y120827D02*
Y121877D01*
Y121352D01*
X288386D01*
X288911Y120827D01*
X288386Y125550D02*
Y123451D01*
X289961D01*
X289436Y124500D01*
Y125025D01*
X289961Y125550D01*
X291010D01*
X291535Y125025D01*
Y123976D01*
X291010Y123451D01*
X115747Y186576D02*
X112599D01*
Y188150D01*
X113124Y188675D01*
X114173D01*
X114698Y188150D01*
Y186576D01*
Y187626D02*
X115747Y188675D01*
Y189725D02*
Y190774D01*
Y190249D01*
X112599D01*
X113124Y189725D01*
X115747Y193923D02*
X112599D01*
X114173Y192349D01*
Y194448D01*
X67816Y122008D02*
Y125157D01*
X69390D01*
X69915Y124632D01*
Y123583D01*
X69390Y123058D01*
X67816D01*
X68866D02*
X69915Y122008D01*
X70965D02*
X72014D01*
X71490D01*
Y125157D01*
X70965Y124632D01*
X73589D02*
X74113Y125157D01*
X75163D01*
X75688Y124632D01*
Y124107D01*
X75163Y123583D01*
X74638D01*
X75163D01*
X75688Y123058D01*
Y122533D01*
X75163Y122008D01*
X74113D01*
X73589Y122533D01*
X87206Y122008D02*
Y125157D01*
X88780D01*
X89305Y124632D01*
Y123583D01*
X88780Y123058D01*
X87206D01*
X88256D02*
X89305Y122008D01*
X90355D02*
X91404D01*
X90879D01*
Y125157D01*
X90355Y124632D01*
X95078Y122008D02*
X92978D01*
X95078Y124107D01*
Y124632D01*
X94553Y125157D01*
X93503D01*
X92978Y124632D01*
X107613Y122107D02*
Y125255D01*
X109187D01*
X109712Y124731D01*
Y123681D01*
X109187Y123156D01*
X107613D01*
X108662D02*
X109712Y122107D01*
X110761D02*
X111811D01*
X111286D01*
Y125255D01*
X110761Y124731D01*
X113385Y122107D02*
X114435D01*
X113910D01*
Y125255D01*
X113385Y124731D01*
X127068Y122107D02*
Y125255D01*
X128642D01*
X129167Y124731D01*
Y123681D01*
X128642Y123156D01*
X127068D01*
X128118D02*
X129167Y122107D01*
X130217D02*
X131266D01*
X130742D01*
Y125255D01*
X130217Y124731D01*
X132841D02*
X133365Y125255D01*
X134415D01*
X134940Y124731D01*
Y122632D01*
X134415Y122107D01*
X133365D01*
X132841Y122632D01*
Y124731D01*
X146392Y138879D02*
Y142027D01*
X147966D01*
X148491Y141502D01*
Y140453D01*
X147966Y139928D01*
X146392D01*
X147441D02*
X148491Y138879D01*
X149540Y139403D02*
X150065Y138879D01*
X151115D01*
X151640Y139403D01*
Y141502D01*
X151115Y142027D01*
X150065D01*
X149540Y141502D01*
Y140978D01*
X150065Y140453D01*
X151640D01*
X257908Y52028D02*
Y55177D01*
X259482D01*
X260007Y54652D01*
Y53602D01*
X259482Y53078D01*
X257908D01*
X258957D02*
X260007Y52028D01*
X261056Y54652D02*
X261581Y55177D01*
X262631D01*
X263155Y54652D01*
Y54127D01*
X262631Y53602D01*
X263155Y53078D01*
Y52553D01*
X262631Y52028D01*
X261581D01*
X261056Y52553D01*
Y53078D01*
X261581Y53602D01*
X261056Y54127D01*
Y54652D01*
X261581Y53602D02*
X262631D01*
X265880Y52028D02*
Y55177D01*
X267454D01*
X267979Y54652D01*
Y53602D01*
X267454Y53078D01*
X265880D01*
X266930D02*
X267979Y52028D01*
X269029Y55177D02*
X271128D01*
Y54652D01*
X269029Y52553D01*
Y52028D01*
X146392Y147343D02*
Y150492D01*
X147966D01*
X148491Y149967D01*
Y148917D01*
X147966Y148393D01*
X146392D01*
X147441D02*
X148491Y147343D01*
X151640Y150492D02*
X149540D01*
Y148917D01*
X150590Y149442D01*
X151115D01*
X151640Y148917D01*
Y147868D01*
X151115Y147343D01*
X150065D01*
X149540Y147868D01*
X147933Y111805D02*
X144784D01*
Y113380D01*
X145309Y113904D01*
X146358D01*
X146883Y113380D01*
Y111805D01*
Y112855D02*
X147933Y113904D01*
Y116528D02*
X144784D01*
X146358Y114954D01*
Y117053D01*
X159778Y101831D02*
Y104980D01*
X161352D01*
X161877Y104455D01*
Y103405D01*
X161352Y102881D01*
X159778D01*
X160827D02*
X161877Y101831D01*
X162926Y104455D02*
X163451Y104980D01*
X164501D01*
X165025Y104455D01*
Y103930D01*
X164501Y103405D01*
X163976D01*
X164501D01*
X165025Y102881D01*
Y102356D01*
X164501Y101831D01*
X163451D01*
X162926Y102356D01*
X274935Y12264D02*
Y15413D01*
X276509D01*
X277034Y14888D01*
Y13839D01*
X276509Y13314D01*
X274935D01*
X275985D02*
X277034Y12264D01*
X280183D02*
X278084D01*
X280183Y14363D01*
Y14888D01*
X279658Y15413D01*
X278609D01*
X278084Y14888D01*
X96949Y207966D02*
Y210065D01*
X96424Y210590D01*
X95375D01*
X94850Y210065D01*
Y207966D01*
X95375Y207441D01*
X96424D01*
X95899Y208491D02*
X96949Y207441D01*
X96424D02*
X96949Y207966D01*
X97998Y207441D02*
X99048D01*
X98523D01*
Y210590D01*
X97998Y210065D01*
X251280Y50684D02*
X254429D01*
Y52783D01*
X251280Y55932D02*
Y53833D01*
X254429D01*
Y55932D01*
X252854Y53833D02*
Y54882D01*
X251280Y56981D02*
X254429D01*
Y58556D01*
X253904Y59080D01*
X251805D01*
X251280Y58556D01*
Y56981D01*
X254429Y62229D02*
Y60130D01*
X252330Y62229D01*
X251805D01*
X251280Y61704D01*
Y60655D01*
X251805Y60130D01*
X274804Y51111D02*
X277952D01*
Y53210D01*
X274804Y56358D02*
Y54259D01*
X277952D01*
Y56358D01*
X276378Y54259D02*
Y55309D01*
X274804Y57408D02*
X277952D01*
Y58982D01*
X277428Y59507D01*
X275328D01*
X274804Y58982D01*
Y57408D01*
X277952Y60556D02*
Y61606D01*
Y61081D01*
X274804D01*
X275328Y60556D01*
X329758Y63484D02*
X328708D01*
X329233D01*
Y60860D01*
X328708Y60335D01*
X328184D01*
X327659Y60860D01*
X330807Y60335D02*
X331857D01*
X331332D01*
Y63484D01*
X330807Y62959D01*
X333431D02*
X333956Y63484D01*
X335005D01*
X335530Y62959D01*
Y60860D01*
X335005Y60335D01*
X333956D01*
X333431Y60860D01*
Y62959D01*
X354790Y200787D02*
X353741D01*
X354265D01*
Y198163D01*
X353741Y197638D01*
X353216D01*
X352691Y198163D01*
X355840D02*
X356364Y197638D01*
X357414D01*
X357939Y198163D01*
Y200262D01*
X357414Y200787D01*
X356364D01*
X355840Y200262D01*
Y199737D01*
X356364Y199213D01*
X357939D01*
X116995Y225846D02*
X115945D01*
X116470D01*
Y223222D01*
X115945Y222697D01*
X115421D01*
X114896Y223222D01*
X118044Y225321D02*
X118569Y225846D01*
X119619D01*
X120143Y225321D01*
Y224796D01*
X119619Y224272D01*
X120143Y223747D01*
Y223222D01*
X119619Y222697D01*
X118569D01*
X118044Y223222D01*
Y223747D01*
X118569Y224272D01*
X118044Y224796D01*
Y225321D01*
X118569Y224272D02*
X119619D01*
X212664Y174803D02*
X211615D01*
X212140D01*
Y172179D01*
X211615Y171654D01*
X211090D01*
X210565Y172179D01*
X213714Y174803D02*
X215813D01*
Y174278D01*
X213714Y172179D01*
Y171654D01*
X210499Y225846D02*
X209449D01*
X209974D01*
Y223222D01*
X209449Y222697D01*
X208925D01*
X208400Y223222D01*
X213647Y225846D02*
X212598Y225321D01*
X211548Y224272D01*
Y223222D01*
X212073Y222697D01*
X213123D01*
X213647Y223222D01*
Y223747D01*
X213123Y224272D01*
X211548D01*
X99672Y19645D02*
X98623D01*
X99147D01*
Y17021D01*
X98623Y16497D01*
X98098D01*
X97573Y17021D01*
X102821Y19645D02*
X100722D01*
Y18071D01*
X101771Y18596D01*
X102296D01*
X102821Y18071D01*
Y17021D01*
X102296Y16497D01*
X101246D01*
X100722Y17021D01*
X228806Y18307D02*
X227756D01*
X228281D01*
Y15683D01*
X227756Y15158D01*
X227232D01*
X226707Y15683D01*
X231430Y15158D02*
Y18307D01*
X229855Y16732D01*
X231955D01*
X189534Y20039D02*
X188485D01*
X189009D01*
Y17415D01*
X188485Y16890D01*
X187960D01*
X187435Y17415D01*
X192683Y16890D02*
X190584D01*
X192683Y18989D01*
Y19514D01*
X192158Y20039D01*
X191109D01*
X190584Y19514D01*
X254626Y76161D02*
X253576D01*
X254101D01*
Y73537D01*
X253576Y73012D01*
X253052D01*
X252527Y73537D01*
X255676Y73012D02*
X256725D01*
X256200D01*
Y76161D01*
X255676Y75636D01*
X133039Y165511D02*
Y162363D01*
X134614D01*
X135138Y162888D01*
Y164987D01*
X134614Y165511D01*
X133039D01*
X138287Y164987D02*
X137762Y165511D01*
X136713D01*
X136188Y164987D01*
Y164462D01*
X136713Y163937D01*
X137762D01*
X138287Y163412D01*
Y162888D01*
X137762Y162363D01*
X136713D01*
X136188Y162888D01*
X139336Y162363D02*
X140386D01*
X139861D01*
Y165511D01*
X139336Y164987D01*
X287665Y152519D02*
Y149371D01*
X289239D01*
X289764Y149895D01*
Y151994D01*
X289239Y152519D01*
X287665D01*
X290813Y149371D02*
X291863D01*
X291338D01*
Y152519D01*
X290813Y151994D01*
X347770Y66857D02*
X347245Y67381D01*
X346195D01*
X345671Y66857D01*
Y64758D01*
X346195Y64233D01*
X347245D01*
X347770Y64758D01*
X348819Y64233D02*
X349869D01*
X349344D01*
Y67381D01*
X348819Y66857D01*
X353017Y64233D02*
Y67381D01*
X351443Y65807D01*
X353542D01*
X376739Y117782D02*
X376215Y118307D01*
X375165D01*
X374640Y117782D01*
Y115683D01*
X375165Y115158D01*
X376215D01*
X376739Y115683D01*
X377789Y115158D02*
X378838D01*
X378314D01*
Y118307D01*
X377789Y117782D01*
X380413Y115158D02*
X381462D01*
X380937D01*
Y118307D01*
X380413Y117782D01*
X307907Y145695D02*
X307383Y146220D01*
X306333D01*
X305808Y145695D01*
Y143596D01*
X306333Y143071D01*
X307383D01*
X307907Y143596D01*
X308957Y143071D02*
X310006D01*
X309482D01*
Y146220D01*
X308957Y145695D01*
X311581D02*
X312105Y146220D01*
X313155D01*
X313680Y145695D01*
Y143596D01*
X313155Y143071D01*
X312105D01*
X311581Y143596D01*
Y145695D01*
X334318Y145892D02*
X333793Y146417D01*
X332744D01*
X332219Y145892D01*
Y143793D01*
X332744Y143268D01*
X333793D01*
X334318Y143793D01*
X335367D02*
X335892Y143268D01*
X336942D01*
X337466Y143793D01*
Y145892D01*
X336942Y146417D01*
X335892D01*
X335367Y145892D01*
Y145367D01*
X335892Y144843D01*
X337466D01*
X154167Y74770D02*
X153642Y74246D01*
Y73196D01*
X154167Y72671D01*
X156266D01*
X156791Y73196D01*
Y74246D01*
X156266Y74770D01*
X154167Y75820D02*
X153642Y76345D01*
Y77394D01*
X154167Y77919D01*
X154692D01*
X155217Y77394D01*
X155741Y77919D01*
X156266D01*
X156791Y77394D01*
Y76345D01*
X156266Y75820D01*
X155741D01*
X155217Y76345D01*
X154692Y75820D01*
X154167D01*
X155217Y76345D02*
Y77394D01*
X154069Y89337D02*
X153544Y88813D01*
Y87763D01*
X154069Y87238D01*
X156168D01*
X156692Y87763D01*
Y88813D01*
X156168Y89337D01*
X153544Y90387D02*
Y92486D01*
X154069D01*
X156168Y90387D01*
X156692D01*
X140191Y128471D02*
X139666Y127946D01*
Y126897D01*
X140191Y126372D01*
X142290D01*
X142814Y126897D01*
Y127946D01*
X142290Y128471D01*
X139666Y131620D02*
X140191Y130570D01*
X141240Y129521D01*
X142290D01*
X142814Y130046D01*
Y131095D01*
X142290Y131620D01*
X141765D01*
X141240Y131095D01*
Y129521D01*
X261089Y30341D02*
X260565Y30866D01*
X259515D01*
X258990Y30341D01*
Y28242D01*
X259515Y27717D01*
X260565D01*
X261089Y28242D01*
X264238Y30866D02*
X262139D01*
Y29291D01*
X263189Y29816D01*
X263713D01*
X264238Y29291D01*
Y28242D01*
X263713Y27717D01*
X262664D01*
X262139Y28242D01*
M02*
