G04*
G04 #@! TF.GenerationSoftware,Altium Limited,Altium Designer,25.2.1 (25)*
G04*
G04 Layer_Color=32896*
%FSLAX25Y25*%
%MOIN*%
G70*
G04*
G04 #@! TF.SameCoordinates,382838D2-828E-4769-9F82-A9EE904C746A*
G04*
G04*
G04 #@! TF.FilePolarity,Positive*
G04*
G01*
G75*
%ADD13C,0.00787*%
%ADD15C,0.00602*%
%ADD84C,0.01181*%
D13*
X8071Y83071D02*
X13583D01*
Y93307D01*
X8071D02*
X13583D01*
X8071Y83071D02*
Y93307D01*
X20796Y79974D02*
X26308D01*
X20796Y69738D02*
Y79974D01*
Y69738D02*
X26308D01*
Y79974D01*
X15945Y83071D02*
X21457D01*
Y93307D01*
X15945D02*
X21457D01*
X15945Y83071D02*
Y93307D01*
X28670Y79974D02*
X34182D01*
X28670Y69738D02*
Y79974D01*
Y69738D02*
X34182D01*
Y79974D01*
X33661Y83071D02*
X39173D01*
Y93307D01*
X33661D02*
X39173D01*
X33661Y83071D02*
Y93307D01*
X46654Y79921D02*
X52165D01*
X46654Y69685D02*
Y79921D01*
Y69685D02*
X52165D01*
Y79921D01*
X41535Y83071D02*
X47047D01*
Y93307D01*
X41535D02*
X47047D01*
X41535Y83071D02*
Y93307D01*
X54528Y79921D02*
X60039D01*
X54528Y69685D02*
Y79921D01*
Y69685D02*
X60039D01*
Y79921D01*
X133661Y52756D02*
X139173D01*
Y62992D01*
X133661D02*
X139173D01*
X133661Y52756D02*
Y62992D01*
X147047Y76378D02*
X152559D01*
X147047Y66142D02*
Y76378D01*
Y66142D02*
X152559D01*
Y76378D01*
X141929Y52756D02*
X147441D01*
Y62992D01*
X141929D02*
X147441D01*
X141929Y52756D02*
Y62992D01*
X154921Y76378D02*
X160433D01*
X154921Y66142D02*
Y76378D01*
Y66142D02*
X160433D01*
Y76378D01*
X160039Y52756D02*
X165551D01*
Y62992D01*
X160039D02*
X165551D01*
X160039Y52756D02*
Y62992D01*
X173425Y75984D02*
X178937D01*
X173425Y65748D02*
Y75984D01*
Y65748D02*
X178937D01*
Y75984D01*
X168307Y52756D02*
X173819D01*
Y62992D01*
X168307D02*
X173819D01*
X168307Y52756D02*
Y62992D01*
X181693Y75984D02*
X187205D01*
X181693Y65748D02*
Y75984D01*
Y65748D02*
X187205D01*
Y75984D01*
X235519Y122811D02*
Y118088D01*
X233158D01*
X232371Y118875D01*
Y122023D01*
X233158Y122811D01*
X235519D01*
X228435Y118088D02*
X230009D01*
X230796Y118875D01*
Y120449D01*
X230009Y121236D01*
X228435D01*
X227648Y120449D01*
Y119662D01*
X230796D01*
X226074Y118088D02*
X223712D01*
X222925Y118875D01*
X223712Y119662D01*
X225286D01*
X226074Y120449D01*
X225286Y121236D01*
X222925D01*
X221351Y118088D02*
X219776D01*
X220564D01*
Y121236D01*
X221351D01*
X215841Y116513D02*
X215053D01*
X214266Y117300D01*
Y121236D01*
X216628D01*
X217415Y120449D01*
Y118875D01*
X216628Y118088D01*
X214266D01*
X212692D02*
Y121236D01*
X210331D01*
X209543Y120449D01*
Y118088D01*
X202459Y121236D02*
X200885D01*
X200098Y120449D01*
Y118088D01*
X202459D01*
X203246Y118875D01*
X202459Y119662D01*
X200098D01*
X198523Y118088D02*
Y121236D01*
X196162D01*
X195375Y120449D01*
Y118088D01*
X190652Y122811D02*
Y118088D01*
X193013D01*
X193800Y118875D01*
Y120449D01*
X193013Y121236D01*
X190652D01*
X184355Y118088D02*
X182780D01*
X183568D01*
Y122811D01*
X184355D01*
X179632Y121236D02*
X178058D01*
X177270Y120449D01*
Y118088D01*
X179632D01*
X180419Y118875D01*
X179632Y119662D01*
X177270D01*
X175696Y121236D02*
Y118875D01*
X174909Y118088D01*
X172547D01*
Y117300D01*
X173335Y116513D01*
X174122D01*
X172547Y118088D02*
Y121236D01*
X170186Y118088D02*
X168612D01*
X167825Y118875D01*
Y120449D01*
X168612Y121236D01*
X170186D01*
X170973Y120449D01*
Y118875D01*
X170186Y118088D01*
X166250Y121236D02*
Y118875D01*
X165463Y118088D01*
X163102D01*
Y121236D01*
X160740Y122023D02*
Y121236D01*
X161528D01*
X159953D01*
X160740D01*
Y118875D01*
X159953Y118088D01*
X230009Y113679D02*
Y108956D01*
X227648D01*
X226861Y109743D01*
Y110530D01*
Y111318D01*
X227648Y112105D01*
X230009D01*
X225286D02*
Y109743D01*
X224499Y108956D01*
X222138D01*
Y108169D01*
X222925Y107382D01*
X223712D01*
X222138Y108956D02*
Y112105D01*
X215841Y113679D02*
Y108956D01*
X212692D01*
X210331Y112105D02*
X208756D01*
X207969Y111318D01*
Y108956D01*
X210331D01*
X211118Y109743D01*
X210331Y110530D01*
X207969D01*
X206395Y112105D02*
Y109743D01*
X205608Y108956D01*
X203246D01*
Y112105D01*
X201672D02*
Y108956D01*
Y110530D01*
X200885Y111318D01*
X200098Y112105D01*
X199311D01*
X196162D02*
X194588D01*
X193800Y111318D01*
Y108956D01*
X196162D01*
X196949Y109743D01*
X196162Y110530D01*
X193800D01*
X187503Y108956D02*
Y113679D01*
X185142D01*
X184355Y112892D01*
Y111318D01*
X185142Y110530D01*
X187503D01*
X185929D02*
X184355Y108956D01*
X180419D02*
X181993D01*
X182780Y109743D01*
Y111318D01*
X181993Y112105D01*
X180419D01*
X179632Y111318D01*
Y110530D01*
X182780D01*
X176483Y107382D02*
X175696D01*
X174909Y108169D01*
Y112105D01*
X177270D01*
X178058Y111318D01*
Y109743D01*
X177270Y108956D01*
X174909D01*
X172547Y112105D02*
X170973D01*
X170186Y111318D01*
Y108956D01*
X172547D01*
X173335Y109743D01*
X172547Y110530D01*
X170186D01*
X168612Y108956D02*
Y112105D01*
X166250D01*
X165463Y111318D01*
Y108956D01*
D15*
X12401Y104198D02*
X9252D01*
Y102624D01*
X9777Y102099D01*
X10827D01*
X11351Y102624D01*
Y104198D01*
Y103149D02*
X12401Y102099D01*
X9252Y98950D02*
X9777Y100000D01*
X10827Y101049D01*
X11876D01*
X12401Y100525D01*
Y99475D01*
X11876Y98950D01*
X11351D01*
X10827Y99475D01*
Y101049D01*
X12401Y95802D02*
Y97901D01*
X10302Y95802D01*
X9777D01*
X9252Y96327D01*
Y97376D01*
X9777Y97901D01*
X25393Y67059D02*
X22245D01*
Y65485D01*
X22769Y64960D01*
X23819D01*
X24344Y65485D01*
Y67059D01*
Y66010D02*
X25393Y64960D01*
X22245Y61812D02*
X22769Y62861D01*
X23819Y63911D01*
X24868D01*
X25393Y63386D01*
Y62336D01*
X24868Y61812D01*
X24344D01*
X23819Y62336D01*
Y63911D01*
X25393Y60762D02*
Y59712D01*
Y60237D01*
X22245D01*
X22769Y60762D01*
X20275Y104592D02*
X17127D01*
Y103017D01*
X17651Y102493D01*
X18701D01*
X19226Y103017D01*
Y104592D01*
Y103542D02*
X20275Y102493D01*
X17127Y99344D02*
X17651Y100394D01*
X18701Y101443D01*
X19750D01*
X20275Y100918D01*
Y99869D01*
X19750Y99344D01*
X19226D01*
X18701Y99869D01*
Y101443D01*
X17651Y98295D02*
X17127Y97770D01*
Y96720D01*
X17651Y96196D01*
X19750D01*
X20275Y96720D01*
Y97770D01*
X19750Y98295D01*
X17651D01*
X33267Y67190D02*
X30119D01*
Y65616D01*
X30643Y65091D01*
X31693D01*
X32218Y65616D01*
Y67190D01*
Y66141D02*
X33267Y65091D01*
X30119Y61943D02*
Y64042D01*
X31693D01*
X31168Y62992D01*
Y62467D01*
X31693Y61943D01*
X32742D01*
X33267Y62467D01*
Y63517D01*
X32742Y64042D01*
Y60893D02*
X33267Y60368D01*
Y59319D01*
X32742Y58794D01*
X30643D01*
X30119Y59319D01*
Y60368D01*
X30643Y60893D01*
X31168D01*
X31693Y60368D01*
Y58794D01*
X37992Y104592D02*
X34843D01*
Y103017D01*
X35368Y102493D01*
X36417D01*
X36942Y103017D01*
Y104592D01*
Y103542D02*
X37992Y102493D01*
X34843Y99344D02*
Y101443D01*
X36417D01*
X35893Y100394D01*
Y99869D01*
X36417Y99344D01*
X37467D01*
X37992Y99869D01*
Y100918D01*
X37467Y101443D01*
X35368Y98295D02*
X34843Y97770D01*
Y96720D01*
X35368Y96196D01*
X35893D01*
X36417Y96720D01*
X36942Y96196D01*
X37467D01*
X37992Y96720D01*
Y97770D01*
X37467Y98295D01*
X36942D01*
X36417Y97770D01*
X35893Y98295D01*
X35368D01*
X36417Y97770D02*
Y96720D01*
X51377Y67190D02*
X48229D01*
Y65616D01*
X48754Y65091D01*
X49803D01*
X50328Y65616D01*
Y67190D01*
Y66141D02*
X51377Y65091D01*
X48229Y61943D02*
Y64042D01*
X49803D01*
X49278Y62992D01*
Y62467D01*
X49803Y61943D01*
X50853D01*
X51377Y62467D01*
Y63517D01*
X50853Y64042D01*
X48229Y60893D02*
Y58794D01*
X48754D01*
X50853Y60893D01*
X51377D01*
X45472Y104592D02*
X42323D01*
Y103017D01*
X42848Y102493D01*
X43898D01*
X44422Y103017D01*
Y104592D01*
Y103542D02*
X45472Y102493D01*
X42323Y99344D02*
Y101443D01*
X43898D01*
X43373Y100394D01*
Y99869D01*
X43898Y99344D01*
X44947D01*
X45472Y99869D01*
Y100918D01*
X44947Y101443D01*
X42323Y96196D02*
X42848Y97245D01*
X43898Y98295D01*
X44947D01*
X45472Y97770D01*
Y96720D01*
X44947Y96196D01*
X44422D01*
X43898Y96720D01*
Y98295D01*
X58858Y67190D02*
X55709D01*
Y65616D01*
X56234Y65091D01*
X57284D01*
X57808Y65616D01*
Y67190D01*
Y66141D02*
X58858Y65091D01*
X55709Y61943D02*
Y64042D01*
X57284D01*
X56759Y62992D01*
Y62467D01*
X57284Y61943D01*
X58333D01*
X58858Y62467D01*
Y63517D01*
X58333Y64042D01*
X55709Y58794D02*
Y60893D01*
X57284D01*
X56759Y59843D01*
Y59319D01*
X57284Y58794D01*
X58333D01*
X58858Y59319D01*
Y60368D01*
X58333Y60893D01*
X134843Y41865D02*
X137992D01*
Y43439D01*
X137467Y43964D01*
X136417D01*
X135893Y43439D01*
Y41865D01*
Y42914D02*
X134843Y43964D01*
X137992Y47113D02*
Y45013D01*
X136417D01*
X136942Y46063D01*
Y46588D01*
X136417Y47113D01*
X135368D01*
X134843Y46588D01*
Y45538D01*
X135368Y45013D01*
X134843Y49736D02*
X137992D01*
X136417Y48162D01*
Y50261D01*
X151377Y87269D02*
X148229D01*
Y85695D01*
X148754Y85170D01*
X149803D01*
X150328Y85695D01*
Y87269D01*
Y86220D02*
X151377Y85170D01*
X148229Y82021D02*
Y84120D01*
X149803D01*
X149278Y83071D01*
Y82546D01*
X149803Y82021D01*
X150853D01*
X151377Y82546D01*
Y83596D01*
X150853Y84120D01*
X148754Y80972D02*
X148229Y80447D01*
Y79397D01*
X148754Y78873D01*
X149278D01*
X149803Y79397D01*
Y79922D01*
Y79397D01*
X150328Y78873D01*
X150853D01*
X151377Y79397D01*
Y80447D01*
X150853Y80972D01*
X144685Y41471D02*
X147834D01*
Y43045D01*
X147309Y43570D01*
X146260D01*
X145735Y43045D01*
Y41471D01*
Y42521D02*
X144685Y43570D01*
X147834Y46719D02*
Y44620D01*
X146260D01*
X146785Y45669D01*
Y46194D01*
X146260Y46719D01*
X145210D01*
X144685Y46194D01*
Y45145D01*
X145210Y44620D01*
X144685Y49867D02*
Y47768D01*
X146785Y49867D01*
X147309D01*
X147834Y49343D01*
Y48293D01*
X147309Y47768D01*
X159251Y86744D02*
X156103D01*
Y85170D01*
X156628Y84645D01*
X157677D01*
X158202Y85170D01*
Y86744D01*
Y85695D02*
X159251Y84645D01*
X156103Y81497D02*
Y83596D01*
X157677D01*
X157152Y82546D01*
Y82021D01*
X157677Y81497D01*
X158727D01*
X159251Y82021D01*
Y83071D01*
X158727Y83596D01*
X159251Y80447D02*
Y79397D01*
Y79922D01*
X156103D01*
X156628Y80447D01*
X164370Y49867D02*
X161221D01*
Y48293D01*
X161746Y47768D01*
X162795D01*
X163320Y48293D01*
Y49867D01*
Y48818D02*
X164370Y47768D01*
X161221Y44620D02*
Y46719D01*
X162795D01*
X162270Y45669D01*
Y45145D01*
X162795Y44620D01*
X163845D01*
X164370Y45145D01*
Y46194D01*
X163845Y46719D01*
X161746Y43570D02*
X161221Y43045D01*
Y41996D01*
X161746Y41471D01*
X163845D01*
X164370Y41996D01*
Y43045D01*
X163845Y43570D01*
X161746D01*
X177755Y87269D02*
X174607D01*
Y85695D01*
X175132Y85170D01*
X176181D01*
X176706Y85695D01*
Y87269D01*
Y86220D02*
X177755Y85170D01*
Y82546D02*
X174607D01*
X176181Y84120D01*
Y82021D01*
X177231Y80972D02*
X177755Y80447D01*
Y79397D01*
X177231Y78873D01*
X175132D01*
X174607Y79397D01*
Y80447D01*
X175132Y80972D01*
X175656D01*
X176181Y80447D01*
Y78873D01*
X172637Y50261D02*
X169489D01*
Y48687D01*
X170013Y48162D01*
X171063D01*
X171588Y48687D01*
Y50261D01*
Y49212D02*
X172637Y48162D01*
Y45538D02*
X169489D01*
X171063Y47113D01*
Y45013D01*
X170013Y43964D02*
X169489Y43439D01*
Y42390D01*
X170013Y41865D01*
X170538D01*
X171063Y42390D01*
X171588Y41865D01*
X172113D01*
X172637Y42390D01*
Y43439D01*
X172113Y43964D01*
X171588D01*
X171063Y43439D01*
X170538Y43964D01*
X170013D01*
X171063Y43439D02*
Y42390D01*
X186023Y87269D02*
X182875D01*
Y85695D01*
X183399Y85170D01*
X184449D01*
X184974Y85695D01*
Y87269D01*
Y86220D02*
X186023Y85170D01*
Y82546D02*
X182875D01*
X184449Y84120D01*
Y82021D01*
X182875Y80972D02*
Y78873D01*
X183399D01*
X185498Y80972D01*
X186023D01*
D84*
X261692Y156116D02*
Y149032D01*
X258150D01*
X256969Y150213D01*
Y151393D01*
X258150Y152574D01*
X261692D01*
X258150D01*
X256969Y153755D01*
Y154936D01*
X258150Y156116D01*
X261692D01*
X254608Y149032D02*
X252246D01*
X253427D01*
Y153755D01*
X254608D01*
X247523Y154936D02*
Y153755D01*
X248704D01*
X246343D01*
X247523D01*
Y150213D01*
X246343Y149032D01*
X238078Y153755D02*
X241620D01*
X242800Y152574D01*
Y150213D01*
X241620Y149032D01*
X238078D01*
X234535D02*
X232174D01*
X230993Y150213D01*
Y152574D01*
X232174Y153755D01*
X234535D01*
X235716Y152574D01*
Y150213D01*
X234535Y149032D01*
X228632D02*
X226270D01*
X227451D01*
Y153755D01*
X228632D01*
X222728Y149032D02*
Y153755D01*
X219186D01*
X218005Y152574D01*
Y149032D01*
X212102D02*
X214463D01*
X215644Y150213D01*
Y152574D01*
X214463Y153755D01*
X212102D01*
X210921Y152574D01*
Y151393D01*
X215644D01*
X208559Y153755D02*
Y149032D01*
Y151393D01*
X207379Y152574D01*
X206198Y153755D01*
X205017D01*
X189668Y156116D02*
X194391D01*
Y149032D01*
X189668D01*
X194391Y152574D02*
X192030D01*
X187307Y153755D02*
X182584Y149032D01*
X184945Y151393D01*
X182584Y153755D01*
X187307Y149032D01*
X180222Y146670D02*
Y153755D01*
X176680D01*
X175499Y152574D01*
Y150213D01*
X176680Y149032D01*
X180222D01*
X171957Y153755D02*
X169596D01*
X168415Y152574D01*
Y149032D01*
X171957D01*
X173138Y150213D01*
X171957Y151393D01*
X168415D01*
X166054Y149032D02*
Y153755D01*
X162512D01*
X161331Y152574D01*
Y149032D01*
X158969D02*
X155427D01*
X154246Y150213D01*
X155427Y151393D01*
X157789D01*
X158969Y152574D01*
X157789Y153755D01*
X154246D01*
X151885Y149032D02*
X149524D01*
X150704D01*
Y153755D01*
X151885D01*
X144801Y149032D02*
X142439D01*
X141259Y150213D01*
Y152574D01*
X142439Y153755D01*
X144801D01*
X145981Y152574D01*
Y150213D01*
X144801Y149032D01*
X138897D02*
Y153755D01*
X135355D01*
X134174Y152574D01*
Y149032D01*
X238668Y142419D02*
Y135335D01*
X235126D01*
X233945Y136515D01*
Y137696D01*
X235126Y138877D01*
X238668D01*
X235126D01*
X233945Y140058D01*
Y141238D01*
X235126Y142419D01*
X238668D01*
X230403Y135335D02*
X228041D01*
X226861Y136515D01*
Y138877D01*
X228041Y140058D01*
X230403D01*
X231584Y138877D01*
Y136515D01*
X230403Y135335D01*
X223319Y140058D02*
X220957D01*
X219776Y138877D01*
Y135335D01*
X223319D01*
X224499Y136515D01*
X223319Y137696D01*
X219776D01*
X217415Y140058D02*
Y135335D01*
Y137696D01*
X216234Y138877D01*
X215054Y140058D01*
X213873D01*
X205608Y142419D02*
Y135335D01*
X209150D01*
X210331Y136515D01*
Y138877D01*
X209150Y140058D01*
X205608D01*
X196162Y135335D02*
Y142419D01*
X192620D01*
X191439Y141238D01*
Y138877D01*
X192620Y137696D01*
X196162D01*
X193800D02*
X191439Y135335D01*
X185536D02*
X187897D01*
X189078Y136515D01*
Y138877D01*
X187897Y140058D01*
X185536D01*
X184355Y138877D01*
Y137696D01*
X189078D01*
X181993Y140058D02*
X179632Y135335D01*
X177270Y140058D01*
X174909Y135335D02*
Y136515D01*
X173728D01*
Y135335D01*
X174909D01*
X157198Y141238D02*
X158379Y142419D01*
X160740D01*
X161921Y141238D01*
Y136515D01*
X160740Y135335D01*
X158379D01*
X157198Y136515D01*
X264939Y173127D02*
Y167223D01*
X263758Y166042D01*
X261397D01*
X260216Y167223D01*
Y173127D01*
X257855Y166042D02*
Y170765D01*
X254313D01*
X253132Y169585D01*
Y166042D01*
X250770D02*
X248409D01*
X249590D01*
Y170765D01*
X250770D01*
X244867D02*
X242505Y166042D01*
X240144Y170765D01*
X234240Y166042D02*
X236602D01*
X237783Y167223D01*
Y169585D01*
X236602Y170765D01*
X234240D01*
X233060Y169585D01*
Y168404D01*
X237783D01*
X230698Y170765D02*
Y166042D01*
Y168404D01*
X229517Y169585D01*
X228337Y170765D01*
X227156D01*
X223614Y166042D02*
X220072D01*
X218891Y167223D01*
X220072Y168404D01*
X222433D01*
X223614Y169585D01*
X222433Y170765D01*
X218891D01*
X216529Y166042D02*
X214168D01*
X215349D01*
Y170765D01*
X216529D01*
X209445Y171946D02*
Y170765D01*
X210626D01*
X208264D01*
X209445D01*
Y167223D01*
X208264Y166042D01*
X204722Y170765D02*
Y167223D01*
X203542Y166042D01*
X199999D01*
Y164862D01*
X201180Y163681D01*
X202361D01*
X199999Y166042D02*
Y170765D01*
X189373Y166042D02*
X187012D01*
X185831Y167223D01*
Y169585D01*
X187012Y170765D01*
X189373D01*
X190554Y169585D01*
Y167223D01*
X189373Y166042D01*
X182289D02*
Y171946D01*
Y169585D01*
X183469D01*
X181108D01*
X182289D01*
Y171946D01*
X181108Y173127D01*
X170481Y166042D02*
Y173127D01*
X168120Y170765D01*
X165759Y173127D01*
Y166042D01*
X162216Y170765D02*
X159855D01*
X158674Y169585D01*
Y166042D01*
X162216D01*
X163397Y167223D01*
X162216Y168404D01*
X158674D01*
X156313Y166042D02*
X153951D01*
X155132D01*
Y173127D01*
X156313D01*
X149229Y170765D02*
X146867D01*
X145686Y169585D01*
Y166042D01*
X149229D01*
X150409Y167223D01*
X149229Y168404D01*
X145686D01*
X140963Y163681D02*
X139783D01*
X138602Y164862D01*
Y170765D01*
X142144D01*
X143325Y169585D01*
Y167223D01*
X142144Y166042D01*
X138602D01*
X135060Y170765D02*
X132698D01*
X131518Y169585D01*
Y166042D01*
X135060D01*
X136241Y167223D01*
X135060Y168404D01*
X131518D01*
M02*
