G04*
G04 #@! TF.GenerationSoftware,Altium Limited,Altium Designer,25.2.1 (25)*
G04*
G04 Layer_Physical_Order=1*
G04 Layer_Color=255*
%FSLAX25Y25*%
%MOIN*%
G70*
G04*
G04 #@! TF.SameCoordinates,382838D2-828E-4769-9F82-A9EE904C746A*
G04*
G04*
G04 #@! TF.FilePolarity,Positive*
G04*
G01*
G75*
%ADD12C,0.01968*%
%ADD16R,0.02362X0.03543*%
%ADD17R,0.05118X0.03543*%
%ADD18R,0.09449X0.23622*%
%ADD19R,0.04724X0.13780*%
%ADD20R,0.03740X0.07480*%
%ADD21R,0.12795X0.07480*%
%ADD22R,0.01181X0.02638*%
%ADD23R,0.02362X0.01654*%
%ADD24R,0.02756X0.03937*%
%ADD25R,0.05807X0.01181*%
%ADD26R,0.01181X0.05807*%
%ADD27R,0.03150X0.02362*%
%ADD28R,0.02756X0.05118*%
%ADD29R,0.05118X0.02756*%
%ADD30R,0.03150X0.03150*%
%ADD31R,0.03150X0.03150*%
%ADD32R,0.10236X0.01102*%
%ADD33R,0.01575X0.05512*%
%ADD34R,0.09055X0.07480*%
%ADD35R,0.07087X0.07480*%
%ADD36R,0.04803X0.03583*%
%ADD37R,0.05315X0.08661*%
%ADD38R,0.03543X0.05118*%
%ADD39R,0.08661X0.05315*%
%ADD40R,0.03347X0.01968*%
%ADD41R,0.03347X0.01575*%
%ADD82C,0.05118*%
%ADD84C,0.01181*%
%ADD85C,0.00804*%
%ADD86C,0.00987*%
%ADD87C,0.07874*%
%ADD88C,0.00709*%
%ADD89R,0.05512X0.16339*%
%ADD90C,0.07874*%
%ADD91C,0.14173*%
%ADD92C,0.12598*%
%ADD93C,0.12205*%
%ADD94C,0.04134*%
%ADD95R,0.04134X0.04134*%
%ADD96O,0.06299X0.07874*%
%ADD97R,0.06299X0.07874*%
%ADD98O,0.12205X0.05906*%
%ADD99O,0.09055X0.05906*%
%ADD100C,0.06102*%
%ADD101O,0.07874X0.06299*%
%ADD102R,0.07874X0.06299*%
%ADD103C,0.04724*%
%ADD104R,0.04724X0.04724*%
%ADD105C,0.02362*%
G36*
X270944Y228799D02*
X270660Y228797D01*
X270149Y228758D01*
X269921Y228722D01*
X269711Y228675D01*
X269520Y228616D01*
X269347Y228547D01*
X269192Y228466D01*
X269056Y228374D01*
X268938Y228271D01*
X268370Y228840D01*
X268473Y228958D01*
X268564Y229094D01*
X268645Y229248D01*
X268714Y229421D01*
X268773Y229613D01*
X268820Y229822D01*
X268856Y230051D01*
X268881Y230297D01*
X268898Y230845D01*
X270944Y228799D01*
D02*
G37*
G36*
X241538Y230562D02*
X241577Y230051D01*
X241613Y229822D01*
X241660Y229613D01*
X241718Y229421D01*
X241788Y229248D01*
X241868Y229094D01*
X241960Y228958D01*
X242063Y228840D01*
X241494Y228271D01*
X241377Y228374D01*
X241241Y228466D01*
X241086Y228547D01*
X240913Y228616D01*
X240722Y228675D01*
X240512Y228722D01*
X240284Y228758D01*
X240037Y228783D01*
X239489Y228799D01*
X241535Y230845D01*
X241538Y230562D01*
D02*
G37*
G36*
X186200Y228799D02*
X185966Y228795D01*
X185743Y228778D01*
X185531Y228748D01*
X185330Y228705D01*
X185141Y228648D01*
X184963Y228579D01*
X184795Y228497D01*
X184639Y228401D01*
X184495Y228292D01*
X184361Y228171D01*
X183526Y229006D01*
X183647Y229140D01*
X183756Y229285D01*
X183851Y229441D01*
X183934Y229608D01*
X184003Y229786D01*
X184059Y229976D01*
X184103Y230176D01*
X184133Y230388D01*
X184150Y230611D01*
X184154Y230845D01*
X186200Y228799D01*
D02*
G37*
G36*
X133174Y230611D02*
X133191Y230388D01*
X133221Y230176D01*
X133264Y229976D01*
X133321Y229786D01*
X133390Y229608D01*
X133473Y229441D01*
X133568Y229285D01*
X133676Y229140D01*
X133798Y229006D01*
X132963Y228171D01*
X132829Y228292D01*
X132684Y228401D01*
X132528Y228497D01*
X132361Y228579D01*
X132183Y228648D01*
X131993Y228705D01*
X131793Y228748D01*
X131581Y228778D01*
X131358Y228795D01*
X131123Y228799D01*
X133170Y230845D01*
X133174Y230611D01*
D02*
G37*
G36*
X85609Y228799D02*
X85375Y228795D01*
X85152Y228778D01*
X84940Y228748D01*
X84739Y228705D01*
X84550Y228648D01*
X84372Y228579D01*
X84204Y228497D01*
X84048Y228401D01*
X83904Y228292D01*
X83770Y228171D01*
X82935Y229006D01*
X83056Y229140D01*
X83165Y229285D01*
X83260Y229441D01*
X83343Y229608D01*
X83412Y229786D01*
X83468Y229976D01*
X83512Y230176D01*
X83542Y230388D01*
X83559Y230611D01*
X83563Y230845D01*
X85609Y228799D01*
D02*
G37*
G36*
X61987D02*
X61753Y228795D01*
X61530Y228778D01*
X61318Y228748D01*
X61117Y228705D01*
X60928Y228648D01*
X60750Y228579D01*
X60582Y228497D01*
X60426Y228401D01*
X60282Y228292D01*
X60148Y228171D01*
X59313Y229006D01*
X59434Y229140D01*
X59543Y229285D01*
X59638Y229441D01*
X59721Y229608D01*
X59790Y229786D01*
X59846Y229976D01*
X59890Y230176D01*
X59920Y230388D01*
X59937Y230611D01*
X59941Y230845D01*
X61987Y228799D01*
D02*
G37*
G36*
X48331Y230611D02*
X48348Y230388D01*
X48378Y230176D01*
X48421Y229976D01*
X48478Y229786D01*
X48547Y229608D01*
X48630Y229441D01*
X48725Y229285D01*
X48833Y229140D01*
X48955Y229006D01*
X48120Y228171D01*
X47986Y228292D01*
X47841Y228401D01*
X47685Y228497D01*
X47518Y228579D01*
X47340Y228648D01*
X47150Y228705D01*
X46950Y228748D01*
X46738Y228778D01*
X46515Y228795D01*
X46281Y228799D01*
X48327Y230845D01*
X48331Y230611D01*
D02*
G37*
G36*
X40457D02*
X40474Y230388D01*
X40504Y230176D01*
X40547Y229976D01*
X40604Y229786D01*
X40673Y229608D01*
X40756Y229441D01*
X40851Y229285D01*
X40959Y229140D01*
X41081Y229006D01*
X40246Y228171D01*
X40112Y228292D01*
X39967Y228401D01*
X39811Y228497D01*
X39644Y228579D01*
X39466Y228648D01*
X39276Y228705D01*
X39076Y228748D01*
X38864Y228778D01*
X38641Y228795D01*
X38407Y228799D01*
X40453Y230845D01*
X40457Y230611D01*
D02*
G37*
G36*
X223738Y225522D02*
X223747Y225428D01*
X223763Y225344D01*
X223785Y225270D01*
X223813Y225206D01*
X223847Y225152D01*
X223888Y225107D01*
X223935Y225073D01*
X223988Y225048D01*
X224047Y225033D01*
X222665Y224769D01*
X222715Y224806D01*
X222761Y224854D01*
X222800Y224913D01*
X222835Y224982D01*
X222864Y225062D01*
X222888Y225153D01*
X222907Y225255D01*
X222920Y225368D01*
X222928Y225491D01*
X222931Y225625D01*
X223735D01*
X223738Y225522D01*
D02*
G37*
G36*
X229802Y221963D02*
X229691Y222141D01*
X229575Y222301D01*
X229454Y222442D01*
X229327Y222564D01*
X229194Y222667D01*
X229056Y222751D01*
X228912Y222817D01*
X228763Y222864D01*
X228608Y222892D01*
X228448Y222901D01*
Y223706D01*
X228623Y223714D01*
X228797Y223738D01*
X228972Y223778D01*
X229147Y223834D01*
X229321Y223906D01*
X229495Y223995D01*
X229669Y224099D01*
X229843Y224219D01*
X230016Y224356D01*
X230190Y224509D01*
X229802Y221963D01*
D02*
G37*
G36*
X280894Y223259D02*
X280919Y223206D01*
X280954Y223160D01*
X280998Y223119D01*
X281052Y223085D01*
X281117Y223057D01*
X281191Y223035D01*
X281274Y223019D01*
X281368Y223010D01*
X281472Y223007D01*
Y222202D01*
X281337Y222200D01*
X281101Y222179D01*
X280999Y222160D01*
X280908Y222136D01*
X280828Y222107D01*
X280759Y222072D01*
X280700Y222032D01*
X280653Y221987D01*
X280616Y221937D01*
X280879Y223319D01*
X280894Y223259D01*
D02*
G37*
G36*
X261313Y221937D02*
X261276Y221987D01*
X261228Y222032D01*
X261170Y222072D01*
X261101Y222107D01*
X261020Y222136D01*
X260929Y222160D01*
X260828Y222179D01*
X260715Y222192D01*
X260592Y222200D01*
X260457Y222202D01*
Y223007D01*
X260561Y223010D01*
X260654Y223019D01*
X260738Y223035D01*
X260812Y223057D01*
X260876Y223085D01*
X260931Y223119D01*
X260975Y223160D01*
X261010Y223206D01*
X261034Y223259D01*
X261049Y223319D01*
X261313Y221937D01*
D02*
G37*
G36*
X249398Y223259D02*
X249423Y223206D01*
X249458Y223160D01*
X249502Y223119D01*
X249556Y223085D01*
X249621Y223057D01*
X249694Y223035D01*
X249778Y223019D01*
X249872Y223010D01*
X249975Y223007D01*
Y222202D01*
X249841Y222200D01*
X249605Y222179D01*
X249503Y222160D01*
X249412Y222136D01*
X249332Y222107D01*
X249263Y222072D01*
X249204Y222032D01*
X249157Y221987D01*
X249120Y221937D01*
X249383Y223319D01*
X249398Y223259D01*
D02*
G37*
G36*
X272661Y224213D02*
X273027Y223891D01*
X273206Y223761D01*
X273383Y223650D01*
X273557Y223560D01*
X273729Y223490D01*
X273899Y223440D01*
X274066Y223409D01*
X274231Y223399D01*
X274233Y222595D01*
X274068Y222585D01*
X273901Y222555D01*
X273731Y222504D01*
X273559Y222434D01*
X273385Y222343D01*
X273209Y222232D01*
X273030Y222101D01*
X272850Y221951D01*
X272667Y221779D01*
X272481Y221588D01*
X272475Y224404D01*
X272661Y224213D01*
D02*
G37*
G36*
X129627Y221545D02*
X129416Y221753D01*
X129015Y222102D01*
X128825Y222245D01*
X128641Y222365D01*
X128464Y222463D01*
X128295Y222539D01*
X128132Y222594D01*
X127976Y222627D01*
X127826Y222638D01*
Y223346D01*
X127976Y223357D01*
X128132Y223390D01*
X128295Y223445D01*
X128464Y223521D01*
X128641Y223620D01*
X128825Y223740D01*
X129015Y223882D01*
X129212Y224046D01*
X129627Y224439D01*
Y221545D01*
D02*
G37*
G36*
X162578Y220925D02*
X162344Y220921D01*
X162121Y220904D01*
X161909Y220874D01*
X161708Y220830D01*
X161519Y220774D01*
X161340Y220705D01*
X161173Y220622D01*
X161017Y220527D01*
X160873Y220419D01*
X160739Y220297D01*
X159904Y221132D01*
X160025Y221266D01*
X160134Y221411D01*
X160229Y221567D01*
X160312Y221734D01*
X160381Y221912D01*
X160437Y222102D01*
X160480Y222302D01*
X160511Y222514D01*
X160528Y222737D01*
X160532Y222972D01*
X162578Y220925D01*
D02*
G37*
G36*
X64079Y222737D02*
X64096Y222514D01*
X64126Y222302D01*
X64170Y222102D01*
X64226Y221912D01*
X64295Y221734D01*
X64377Y221567D01*
X64473Y221411D01*
X64581Y221266D01*
X64703Y221132D01*
X63868Y220297D01*
X63734Y220419D01*
X63589Y220527D01*
X63433Y220622D01*
X63266Y220705D01*
X63088Y220774D01*
X62898Y220830D01*
X62698Y220874D01*
X62486Y220904D01*
X62263Y220921D01*
X62028Y220925D01*
X64075Y222972D01*
X64079Y222737D01*
D02*
G37*
G36*
X38365Y220925D02*
X38131Y220921D01*
X37908Y220904D01*
X37696Y220874D01*
X37495Y220830D01*
X37306Y220774D01*
X37128Y220705D01*
X36960Y220622D01*
X36804Y220527D01*
X36660Y220419D01*
X36526Y220297D01*
X35691Y221132D01*
X35812Y221266D01*
X35921Y221411D01*
X36016Y221567D01*
X36099Y221734D01*
X36168Y221912D01*
X36224Y222102D01*
X36268Y222302D01*
X36298Y222514D01*
X36315Y222737D01*
X36319Y222972D01*
X38365Y220925D01*
D02*
G37*
G36*
X147268Y220968D02*
X147025Y220913D01*
X146580Y220784D01*
X146377Y220709D01*
X146010Y220540D01*
X145846Y220445D01*
X145695Y220343D01*
X145557Y220235D01*
X145432Y220121D01*
X144408Y220766D01*
X144534Y220905D01*
X144641Y221053D01*
X144730Y221209D01*
X144800Y221373D01*
X144852Y221546D01*
X144886Y221727D01*
X144901Y221917D01*
X144897Y222114D01*
X144876Y222320D01*
X144835Y222535D01*
X147268Y220968D01*
D02*
G37*
G36*
X140261Y221347D02*
X140115Y221178D01*
X139987Y221006D01*
X139876Y220834D01*
X139781Y220660D01*
X139704Y220485D01*
X139644Y220308D01*
X139602Y220131D01*
X139576Y219952D01*
X139567Y219771D01*
X138386D01*
X138378Y219952D01*
X138352Y220131D01*
X138309Y220308D01*
X138249Y220485D01*
X138172Y220660D01*
X138078Y220834D01*
X137967Y221006D01*
X137838Y221178D01*
X137693Y221347D01*
X137530Y221516D01*
X140424D01*
X140261Y221347D01*
D02*
G37*
G36*
X55935Y221939D02*
X55642Y221077D01*
X55595Y220885D01*
X55533Y220529D01*
X55517Y220366D01*
X55512Y220211D01*
X54331Y219694D01*
X54321Y219886D01*
X54292Y220066D01*
X54243Y220234D01*
X54175Y220390D01*
X54088Y220534D01*
X53981Y220666D01*
X53854Y220786D01*
X53708Y220895D01*
X53543Y220991D01*
X53358Y221076D01*
X56034Y222179D01*
X55935Y221939D01*
D02*
G37*
G36*
X113338Y218060D02*
X113433Y217980D01*
X113529Y217909D01*
X113626Y217847D01*
X113725Y217795D01*
X113824Y217753D01*
X113926Y217720D01*
X114028Y217696D01*
X114132Y217682D01*
X114237Y217677D01*
Y216968D01*
X114132Y216964D01*
X114028Y216950D01*
X113926Y216926D01*
X113824Y216893D01*
X113725Y216850D01*
X113626Y216798D01*
X113529Y216737D01*
X113433Y216666D01*
X113338Y216586D01*
X113245Y216496D01*
Y218150D01*
X113338Y218060D01*
D02*
G37*
G36*
X271065Y215409D02*
X271154Y214125D01*
X271181Y214036D01*
X271213Y213982D01*
X271248Y213964D01*
X268910D01*
X268945Y213982D01*
X268976Y214036D01*
X269004Y214125D01*
X269028Y214250D01*
X269048Y214410D01*
X269078Y214838D01*
X269094Y215748D01*
X271063D01*
X271065Y215409D01*
D02*
G37*
G36*
X235238D02*
X235327Y214125D01*
X235354Y214036D01*
X235386Y213982D01*
X235421Y213964D01*
X233083D01*
X233118Y213982D01*
X233149Y214036D01*
X233177Y214125D01*
X233201Y214250D01*
X233222Y214410D01*
X233251Y214838D01*
X233268Y215748D01*
X235236D01*
X235238Y215409D01*
D02*
G37*
G36*
X200185Y213937D02*
X200118Y213933D01*
X200047Y213920D01*
X199975Y213897D01*
X199899Y213865D01*
X199821Y213824D01*
X199740Y213773D01*
X199657Y213713D01*
X199570Y213643D01*
X199390Y213476D01*
X198555Y214311D01*
X198643Y214403D01*
X198791Y214578D01*
X198852Y214661D01*
X198902Y214742D01*
X198944Y214820D01*
X198976Y214896D01*
X198998Y214969D01*
X199012Y215039D01*
X199016Y215106D01*
X200185Y213937D01*
D02*
G37*
G36*
X252955Y213964D02*
X252690Y213691D01*
X252244Y213178D01*
X252062Y212938D01*
X251908Y212709D01*
X251781Y212491D01*
X251682Y212284D01*
X251611Y212088D01*
X251567Y211903D01*
X251551Y211729D01*
X249327Y213952D01*
X249501Y213969D01*
X249687Y214012D01*
X249883Y214084D01*
X250090Y214183D01*
X250308Y214309D01*
X250537Y214463D01*
X250777Y214645D01*
X251290Y215092D01*
X251563Y215356D01*
X252955Y213964D01*
D02*
G37*
G36*
X287409Y213817D02*
X287468Y213685D01*
X287567Y213569D01*
X287704Y213468D01*
X287882Y213383D01*
X288098Y213313D01*
X288354Y213259D01*
X288649Y213220D01*
X288984Y213197D01*
X289358Y213189D01*
Y211221D01*
X288984Y211213D01*
X288354Y211151D01*
X288098Y211096D01*
X287882Y211027D01*
X287704Y210941D01*
X287567Y210841D01*
X287468Y210724D01*
X287409Y210592D01*
X287390Y210445D01*
Y213964D01*
X287409Y213817D01*
D02*
G37*
G36*
X269884Y206504D02*
X269972Y205086D01*
X270000Y204988D01*
X270032Y204929D01*
X270067Y204909D01*
X267728D01*
X267764Y204929D01*
X267795Y204988D01*
X267823Y205086D01*
X267847Y205224D01*
X267867Y205401D01*
X267906Y206169D01*
X267913Y206878D01*
X269882D01*
X269884Y206504D01*
D02*
G37*
G36*
X253925Y204909D02*
X251866D01*
X251886Y204920D01*
X251903Y204953D01*
X251918Y205007D01*
X251932Y205083D01*
X251943Y205181D01*
X251964Y205605D01*
X251969Y205996D01*
X253937D01*
X253925Y204909D01*
D02*
G37*
G36*
X234511Y206504D02*
X234610Y204929D01*
X234634Y204909D01*
X232295D01*
X232342Y204929D01*
X232384Y204988D01*
X232421Y205086D01*
X232453Y205224D01*
X232480Y205401D01*
X232519Y205874D01*
X232541Y206878D01*
X234510D01*
X234511Y206504D01*
D02*
G37*
G36*
X218309Y206354D02*
X218398Y205070D01*
X218425Y204981D01*
X218457Y204927D01*
X218492Y204909D01*
X216154D01*
X216189Y204927D01*
X216220Y204981D01*
X216248Y205070D01*
X216272Y205195D01*
X216292Y205355D01*
X216322Y205783D01*
X216339Y206693D01*
X218307D01*
X218309Y206354D01*
D02*
G37*
G36*
X82468Y203492D02*
X80709D01*
X80821Y203504D01*
X80921Y203539D01*
X81010Y203598D01*
X81087Y203681D01*
X81152Y203787D01*
X81205Y203917D01*
X81246Y204071D01*
X81276Y204248D01*
X81293Y204449D01*
X81299Y204673D01*
X82480D01*
X82468Y203492D01*
D02*
G37*
G36*
X102541Y204995D02*
X102708Y204853D01*
X102875Y204727D01*
X103042Y204618D01*
X103209Y204524D01*
X103376Y204448D01*
X103543Y204388D01*
X103710Y204344D01*
X103877Y204317D01*
X104044Y204307D01*
X102374Y202689D01*
X101539Y204319D01*
X102374Y205154D01*
X102541Y204995D01*
D02*
G37*
G36*
X120265Y203021D02*
X120300Y202936D01*
X120356Y202861D01*
X120434Y202796D01*
X120534Y202741D01*
X120655Y202695D01*
X120798Y202660D01*
X120962Y202635D01*
X121148Y202620D01*
X121355Y202615D01*
Y201434D01*
X121148Y201429D01*
X120962Y201414D01*
X120798Y201389D01*
X120655Y201354D01*
X120534Y201309D01*
X120434Y201254D01*
X120356Y201188D01*
X120300Y201113D01*
X120265Y201028D01*
X120252Y200933D01*
Y203116D01*
X120265Y203021D01*
D02*
G37*
G36*
X104724Y201717D02*
X104760Y201679D01*
X104819Y201645D01*
X104901Y201616D01*
X105008Y201591D01*
X105138Y201571D01*
X105468Y201544D01*
X105894Y201535D01*
Y200354D01*
X105669Y200352D01*
X105138Y200319D01*
X105008Y200298D01*
X104901Y200274D01*
X104819Y200244D01*
X104760Y200211D01*
X104724Y200173D01*
X104712Y200130D01*
Y201760D01*
X104724Y201717D01*
D02*
G37*
G36*
X94894Y200130D02*
X93713Y200354D01*
Y201535D01*
X94894Y201760D01*
Y200130D01*
D02*
G37*
G36*
X110063Y199764D02*
X110049Y199876D01*
X110012Y199976D01*
X109951Y200065D01*
X109867Y200142D01*
X109759Y200207D01*
X109628Y200260D01*
X109474Y200301D01*
X109296Y200331D01*
X109095Y200348D01*
X108870Y200354D01*
Y201535D01*
X109095Y201541D01*
X109296Y201559D01*
X109474Y201589D01*
X109628Y201630D01*
X109759Y201683D01*
X109867Y201748D01*
X109951Y201825D01*
X110012Y201913D01*
X110049Y202014D01*
X110063Y202126D01*
Y199764D01*
D02*
G37*
G36*
X89951Y202014D02*
X89988Y201913D01*
X90049Y201825D01*
X90133Y201748D01*
X90241Y201683D01*
X90372Y201630D01*
X90526Y201589D01*
X90704Y201559D01*
X90905Y201541D01*
X91130Y201535D01*
Y200354D01*
X90905Y200348D01*
X90704Y200331D01*
X90526Y200301D01*
X90372Y200260D01*
X90241Y200207D01*
X90133Y200142D01*
X90049Y200065D01*
X89988Y199976D01*
X89951Y199876D01*
X89937Y199764D01*
Y202126D01*
X89951Y202014D01*
D02*
G37*
G36*
X102374Y197571D02*
X101193Y197992D01*
Y199173D01*
X102374Y199201D01*
Y197571D01*
D02*
G37*
G36*
X96564D02*
X96397Y197563D01*
X96230Y197538D01*
X96063Y197496D01*
X95896Y197437D01*
X95729Y197362D01*
X95562Y197270D01*
X95395Y197162D01*
X95228Y197037D01*
X95061Y196895D01*
X94894Y196736D01*
X94059Y197571D01*
X94894Y199201D01*
X96564Y197571D01*
D02*
G37*
G36*
X94199Y196041D02*
X94111Y195949D01*
X94035Y195860D01*
X93970Y195774D01*
X93916Y195691D01*
X93875Y195610D01*
X93844Y195533D01*
X93825Y195459D01*
X93818Y195388D01*
X93822Y195320D01*
X93837Y195255D01*
X92366Y196010D01*
X92407Y196026D01*
X92454Y196050D01*
X92507Y196083D01*
X92565Y196125D01*
X92699Y196233D01*
X92857Y196375D01*
X93038Y196550D01*
X94199Y196041D01*
D02*
G37*
G36*
X100002Y195538D02*
X100021Y195310D01*
X100038Y195208D01*
X100059Y195115D01*
X100085Y195031D01*
X100116Y194955D01*
X100151Y194887D01*
X100191Y194828D01*
X100236Y194778D01*
X98583D01*
X98628Y194828D01*
X98668Y194887D01*
X98703Y194955D01*
X98734Y195031D01*
X98760Y195115D01*
X98781Y195208D01*
X98798Y195310D01*
X98809Y195420D01*
X98819Y195666D01*
X100000D01*
X100002Y195538D01*
D02*
G37*
G36*
X376490Y190359D02*
X376431Y190470D01*
X376353Y190570D01*
X376259Y190658D01*
X376147Y190734D01*
X376017Y190798D01*
X375871Y190851D01*
X375707Y190892D01*
X375525Y190921D01*
X375326Y190939D01*
X375110Y190945D01*
Y192126D01*
X375326Y192132D01*
X375525Y192149D01*
X375707Y192179D01*
X375871Y192220D01*
X376017Y192272D01*
X376147Y192337D01*
X376259Y192413D01*
X376353Y192501D01*
X376431Y192601D01*
X376490Y192712D01*
Y190359D01*
D02*
G37*
G36*
X363176Y192601D02*
X363253Y192501D01*
X363348Y192413D01*
X363459Y192337D01*
X363589Y192272D01*
X363736Y192220D01*
X363900Y192179D01*
X364081Y192149D01*
X364280Y192132D01*
X364497Y192126D01*
Y190945D01*
X364280Y190939D01*
X364081Y190921D01*
X363900Y190892D01*
X363736Y190851D01*
X363589Y190798D01*
X363459Y190734D01*
X363348Y190658D01*
X363253Y190570D01*
X363176Y190470D01*
X363116Y190359D01*
Y192712D01*
X363176Y192601D01*
D02*
G37*
G36*
X381817Y188584D02*
X381716Y188546D01*
X381628Y188485D01*
X381551Y188401D01*
X381486Y188293D01*
X381433Y188162D01*
X381392Y188008D01*
X381362Y187830D01*
X381345Y187629D01*
X381339Y187405D01*
X380157D01*
X380152Y187629D01*
X380134Y187830D01*
X380104Y188008D01*
X380063Y188162D01*
X380010Y188293D01*
X379945Y188401D01*
X379868Y188485D01*
X379780Y188546D01*
X379679Y188584D01*
X379567Y188598D01*
X381929D01*
X381817Y188584D01*
D02*
G37*
G36*
X117154Y182809D02*
X117104Y182743D01*
X117060Y182672D01*
X117022Y182596D01*
X116990Y182515D01*
X116964Y182429D01*
X116943Y182338D01*
X116929Y182242D01*
X116920Y182141D01*
X116917Y182035D01*
X113869Y182023D01*
X114036Y182034D01*
X114203Y182061D01*
X114370Y182105D01*
X114537Y182165D01*
X114704Y182241D01*
X114871Y182334D01*
X115038Y182443D01*
X115205Y182569D01*
X115372Y182712D01*
X115539Y182870D01*
X117209D01*
X117154Y182809D01*
D02*
G37*
G36*
X135075Y182232D02*
X134916Y182065D01*
X134774Y181898D01*
X134648Y181731D01*
X134539Y181564D01*
X134446Y181397D01*
X134369Y181230D01*
X134309Y181063D01*
X134266Y180896D01*
X134239Y180729D01*
X134228Y180562D01*
X132373Y182023D01*
X132544Y182038D01*
X132724Y182078D01*
X132912Y182142D01*
X133108Y182231D01*
X133312Y182345D01*
X133525Y182484D01*
X133747Y182648D01*
X134214Y183050D01*
X134461Y183288D01*
X135075Y182232D01*
D02*
G37*
G36*
X126414Y182035D02*
X126255Y181868D01*
X126113Y181701D01*
X125987Y181534D01*
X125877Y181367D01*
X125784Y181200D01*
X125708Y181033D01*
X125648Y180866D01*
X125604Y180699D01*
X125577Y180532D01*
X125567Y180365D01*
X123908Y182023D01*
X124075Y182034D01*
X124242Y182061D01*
X124409Y182105D01*
X124576Y182165D01*
X124743Y182241D01*
X124910Y182334D01*
X125077Y182443D01*
X125244Y182569D01*
X125411Y182712D01*
X125578Y182870D01*
X126414Y182035D01*
D02*
G37*
G36*
X91768D02*
X91609Y181868D01*
X91467Y181701D01*
X91341Y181534D01*
X91232Y181367D01*
X91139Y181200D01*
X91062Y181033D01*
X91002Y180866D01*
X90959Y180699D01*
X90931Y180532D01*
X90921Y180365D01*
X89262Y182023D01*
X89430Y182034D01*
X89597Y182061D01*
X89764Y182105D01*
X89931Y182165D01*
X90098Y182241D01*
X90265Y182334D01*
X90432Y182443D01*
X90599Y182569D01*
X90766Y182712D01*
X90933Y182870D01*
X91768Y182035D01*
D02*
G37*
G36*
X68683Y182712D02*
X68850Y182570D01*
X69017Y182445D01*
X69184Y182336D01*
X69351Y182244D01*
X69518Y182169D01*
X69685Y182110D01*
X69852Y182069D01*
X70019Y182044D01*
X70186Y182035D01*
X68516Y180365D01*
X68508Y180532D01*
X68483Y180699D01*
X68441Y180866D01*
X68382Y181033D01*
X68307Y181200D01*
X68215Y181367D01*
X68107Y181534D01*
X67981Y181701D01*
X67839Y181868D01*
X67681Y182035D01*
X68516Y182870D01*
X68683Y182712D01*
D02*
G37*
G36*
X349185Y180169D02*
X348759Y180157D01*
Y180962D01*
X349197Y180986D01*
X349185Y180169D01*
D02*
G37*
G36*
X77177Y182035D02*
Y179303D01*
X76342Y180871D01*
Y182542D01*
X77177Y182035D01*
D02*
G37*
G36*
X364708Y177913D02*
X364657Y177958D01*
X364598Y177998D01*
X364530Y178034D01*
X364455Y178065D01*
X364370Y178091D01*
X364277Y178112D01*
X364175Y178128D01*
X364065Y178140D01*
X363820Y178150D01*
Y179331D01*
X363947Y179333D01*
X364175Y179352D01*
X364277Y179368D01*
X364370Y179390D01*
X364455Y179416D01*
X364530Y179446D01*
X364598Y179482D01*
X364657Y179522D01*
X364708Y179567D01*
Y177913D01*
D02*
G37*
G36*
X207764Y179372D02*
X207748Y179247D01*
X207753Y179119D01*
X207777Y178986D01*
X207823Y178849D01*
X207888Y178709D01*
X207975Y178565D01*
X208081Y178417D01*
X208208Y178265D01*
X208355Y178110D01*
X207520Y177275D01*
X207365Y177422D01*
X207213Y177549D01*
X207065Y177655D01*
X206921Y177742D01*
X206780Y177807D01*
X206644Y177852D01*
X206511Y177877D01*
X206383Y177882D01*
X206258Y177866D01*
X206137Y177829D01*
X207801Y179493D01*
X207764Y179372D01*
D02*
G37*
G36*
X177209Y178554D02*
X177169Y178452D01*
X177152Y178344D01*
X177159Y178229D01*
X177189Y178107D01*
X177242Y177979D01*
X177319Y177843D01*
X177419Y177702D01*
X177542Y177553D01*
X177689Y177398D01*
X176574Y176843D01*
X176417Y176992D01*
X176260Y177124D01*
X176103Y177240D01*
X175946Y177339D01*
X175790Y177421D01*
X175634Y177486D01*
X175478Y177535D01*
X175323Y177567D01*
X175167Y177582D01*
X175012Y177580D01*
X177272Y178649D01*
X177209Y178554D01*
D02*
G37*
G36*
X186522Y178008D02*
X186459Y177929D01*
X186423Y177840D01*
X186412Y177741D01*
X186428Y177633D01*
X186470Y177515D01*
X186538Y177389D01*
X186632Y177252D01*
X186753Y177106D01*
X186900Y176951D01*
X185429Y176752D01*
X185270Y176906D01*
X184959Y177175D01*
X184808Y177290D01*
X184512Y177483D01*
X184367Y177560D01*
X184225Y177625D01*
X184086Y177676D01*
X183949Y177715D01*
X186611Y178079D01*
X186522Y178008D01*
D02*
G37*
G36*
X196654Y178089D02*
X196592Y178009D01*
X196556Y177919D01*
X196547Y177819D01*
X196564Y177709D01*
X196608Y177590D01*
X196679Y177460D01*
X196776Y177321D01*
X196900Y177172D01*
X197050Y177013D01*
X195659Y176734D01*
X195507Y176879D01*
X195190Y177138D01*
X195025Y177252D01*
X194856Y177355D01*
X194683Y177448D01*
X194506Y177530D01*
X194324Y177602D01*
X194139Y177664D01*
X193949Y177715D01*
X196743Y178159D01*
X196654Y178089D01*
D02*
G37*
G36*
X349185Y177311D02*
X349197Y176495D01*
X349191Y176499D01*
X349176Y176503D01*
X349153Y176507D01*
X349121Y176510D01*
X348978Y176516D01*
X348759Y176518D01*
Y177323D01*
X349185Y177311D01*
D02*
G37*
G36*
X93611Y177160D02*
X93670Y177120D01*
X93737Y177084D01*
X93813Y177053D01*
X93898Y177028D01*
X93991Y177006D01*
X94092Y176990D01*
X94203Y176978D01*
X94448Y176969D01*
Y175787D01*
X94321Y175785D01*
X94092Y175766D01*
X93991Y175750D01*
X93898Y175728D01*
X93813Y175702D01*
X93737Y175672D01*
X93670Y175636D01*
X93611Y175596D01*
X93560Y175551D01*
Y177205D01*
X93611Y177160D01*
D02*
G37*
G36*
X349185Y174264D02*
X348759Y174252D01*
Y175056D01*
X349197Y175080D01*
X349185Y174264D01*
D02*
G37*
G36*
X364708Y172008D02*
X364657Y172053D01*
X364598Y172093D01*
X364530Y172128D01*
X364455Y172159D01*
X364370Y172185D01*
X364277Y172206D01*
X364175Y172223D01*
X364065Y172235D01*
X363820Y172244D01*
Y173425D01*
X363947Y173428D01*
X364175Y173447D01*
X364277Y173463D01*
X364370Y173484D01*
X364455Y173510D01*
X364530Y173541D01*
X364598Y173576D01*
X364657Y173617D01*
X364708Y173661D01*
Y172008D01*
D02*
G37*
G36*
X125577Y173326D02*
X125604Y173159D01*
X125648Y172992D01*
X125708Y172825D01*
X125784Y172658D01*
X125877Y172491D01*
X125987Y172324D01*
X126113Y172157D01*
X126255Y171990D01*
X126414Y171823D01*
X125578Y170988D01*
X125411Y171147D01*
X125244Y171289D01*
X125077Y171415D01*
X124910Y171524D01*
X124743Y171617D01*
X124576Y171694D01*
X124409Y171754D01*
X124242Y171797D01*
X124075Y171824D01*
X123908Y171835D01*
X125567Y173493D01*
X125577Y173326D01*
D02*
G37*
G36*
X132762Y171821D02*
X132661Y171783D01*
X132573Y171723D01*
X132496Y171638D01*
X132431Y171531D01*
X132378Y171400D01*
X132337Y171245D01*
X132307Y171068D01*
X132289Y170866D01*
X132283Y170642D01*
X131102D01*
X131096Y170866D01*
X131079Y171068D01*
X131049Y171245D01*
X131008Y171400D01*
X130955Y171531D01*
X130890Y171638D01*
X130813Y171723D01*
X130724Y171783D01*
X130624Y171821D01*
X130512Y171835D01*
X132874D01*
X132762Y171821D01*
D02*
G37*
G36*
X115439D02*
X115339Y171783D01*
X115250Y171723D01*
X115173Y171638D01*
X115108Y171531D01*
X115055Y171400D01*
X115014Y171245D01*
X114984Y171068D01*
X114966Y170866D01*
X114961Y170642D01*
X113779D01*
X113774Y170866D01*
X113756Y171068D01*
X113726Y171245D01*
X113685Y171400D01*
X113632Y171531D01*
X113567Y171638D01*
X113490Y171723D01*
X113402Y171783D01*
X113301Y171821D01*
X113189Y171835D01*
X115551D01*
X115439Y171821D01*
D02*
G37*
G36*
X106778D02*
X106677Y171783D01*
X106589Y171723D01*
X106512Y171638D01*
X106447Y171531D01*
X106394Y171400D01*
X106352Y171245D01*
X106323Y171068D01*
X106305Y170866D01*
X106299Y170642D01*
X105118D01*
X105112Y170866D01*
X105095Y171068D01*
X105065Y171245D01*
X105024Y171400D01*
X104971Y171531D01*
X104905Y171638D01*
X104829Y171723D01*
X104740Y171783D01*
X104640Y171821D01*
X104528Y171835D01*
X106890D01*
X106778Y171821D01*
D02*
G37*
G36*
X98116D02*
X98016Y171783D01*
X97927Y171723D01*
X97850Y171638D01*
X97785Y171531D01*
X97732Y171400D01*
X97691Y171245D01*
X97661Y171068D01*
X97644Y170866D01*
X97638Y170642D01*
X96457D01*
X96451Y170866D01*
X96433Y171068D01*
X96403Y171245D01*
X96362Y171400D01*
X96309Y171531D01*
X96244Y171638D01*
X96167Y171723D01*
X96079Y171783D01*
X95978Y171821D01*
X95866Y171835D01*
X98228D01*
X98116Y171821D01*
D02*
G37*
G36*
X90933Y171823D02*
X90945Y170642D01*
X89764D01*
X89758Y170866D01*
X89740Y171068D01*
X89711Y171245D01*
X89669Y171400D01*
X89616Y171531D01*
X89551Y171638D01*
X89474Y171723D01*
X89386Y171783D01*
X89285Y171821D01*
X89173Y171835D01*
X90933Y171823D01*
D02*
G37*
G36*
X80793Y171821D02*
X80693Y171783D01*
X80604Y171723D01*
X80528Y171638D01*
X80463Y171531D01*
X80409Y171400D01*
X80368Y171245D01*
X80339Y171068D01*
X80321Y170866D01*
X80315Y170642D01*
X79134D01*
X79128Y170866D01*
X79110Y171068D01*
X79081Y171245D01*
X79039Y171400D01*
X78986Y171531D01*
X78921Y171638D01*
X78844Y171723D01*
X78756Y171783D01*
X78655Y171821D01*
X78543Y171835D01*
X80905D01*
X80793Y171821D01*
D02*
G37*
G36*
X72132D02*
X72031Y171783D01*
X71943Y171723D01*
X71866Y171638D01*
X71801Y171531D01*
X71748Y171400D01*
X71707Y171245D01*
X71677Y171068D01*
X71659Y170866D01*
X71653Y170642D01*
X70472D01*
X70467Y170866D01*
X70449Y171068D01*
X70419Y171245D01*
X70378Y171400D01*
X70325Y171531D01*
X70260Y171638D01*
X70183Y171723D01*
X70095Y171783D01*
X69994Y171821D01*
X69882Y171835D01*
X72244D01*
X72132Y171821D01*
D02*
G37*
G36*
X349185Y171405D02*
X349197Y170589D01*
X349191Y170594D01*
X349176Y170598D01*
X349153Y170601D01*
X349121Y170604D01*
X348978Y170611D01*
X348759Y170613D01*
Y171417D01*
X349185Y171405D01*
D02*
G37*
G36*
Y168359D02*
X348759Y168347D01*
Y169151D01*
X349197Y169175D01*
X349185Y168359D01*
D02*
G37*
G36*
X364708Y166102D02*
X364657Y166147D01*
X364598Y166187D01*
X364530Y166223D01*
X364455Y166253D01*
X364370Y166279D01*
X364277Y166301D01*
X364175Y166317D01*
X364065Y166329D01*
X363820Y166339D01*
X363820Y167520D01*
X363947Y167522D01*
X364175Y167541D01*
X364277Y167558D01*
X364370Y167579D01*
X364455Y167605D01*
X364530Y167635D01*
X364598Y167671D01*
X364657Y167711D01*
X364708Y167756D01*
X364708Y166102D01*
D02*
G37*
G36*
X349185Y165500D02*
X349197Y164684D01*
X349191Y164688D01*
X349176Y164692D01*
X349153Y164696D01*
X349121Y164699D01*
X348978Y164705D01*
X348759Y164707D01*
Y165512D01*
X349185Y165500D01*
D02*
G37*
G36*
X121979Y165084D02*
X122011Y164886D01*
X122064Y164688D01*
X122139Y164488D01*
X122234Y164287D01*
X122351Y164085D01*
X122489Y163881D01*
X122649Y163676D01*
X122829Y163470D01*
X123031Y163262D01*
X119724D01*
X119926Y163470D01*
X120266Y163881D01*
X120405Y164085D01*
X120522Y164287D01*
X120617Y164488D01*
X120692Y164688D01*
X120745Y164886D01*
X120777Y165084D01*
X120787Y165279D01*
X121968D01*
X121979Y165084D01*
D02*
G37*
G36*
X101979D02*
X102011Y164886D01*
X102064Y164688D01*
X102139Y164488D01*
X102234Y164287D01*
X102351Y164085D01*
X102489Y163881D01*
X102649Y163676D01*
X102830Y163470D01*
X103032Y163262D01*
X99724D01*
X99926Y163470D01*
X100267Y163881D01*
X100405Y164085D01*
X100522Y164287D01*
X100617Y164488D01*
X100692Y164688D01*
X100745Y164886D01*
X100777Y165084D01*
X100787Y165279D01*
X101969D01*
X101979Y165084D01*
D02*
G37*
G36*
X81979D02*
X82011Y164886D01*
X82064Y164688D01*
X82139Y164488D01*
X82234Y164287D01*
X82351Y164085D01*
X82489Y163881D01*
X82649Y163676D01*
X82829Y163470D01*
X83031Y163262D01*
X79724D01*
X79926Y163470D01*
X80266Y163881D01*
X80405Y164085D01*
X80522Y164287D01*
X80617Y164488D01*
X80692Y164688D01*
X80745Y164886D01*
X80777Y165084D01*
X80787Y165279D01*
X81968D01*
X81979Y165084D01*
D02*
G37*
G36*
X349185Y162453D02*
X348759Y162441D01*
Y163245D01*
X349197Y163269D01*
X349185Y162453D01*
D02*
G37*
G36*
X114415Y163777D02*
X114284Y163631D01*
X114167Y163469D01*
X114065Y163291D01*
X113976Y163097D01*
X113901Y162887D01*
X113841Y162661D01*
X113795Y162420D01*
X113762Y162162D01*
X113744Y161888D01*
X113740Y161598D01*
X111402Y163937D01*
X111691Y163941D01*
X112223Y163991D01*
X112464Y164038D01*
X112690Y164098D01*
X112900Y164173D01*
X113094Y164261D01*
X113272Y164364D01*
X113434Y164481D01*
X113580Y164612D01*
X114415Y163777D01*
D02*
G37*
G36*
X88884Y164133D02*
X89050Y164017D01*
X89227Y163923D01*
X89417Y163850D01*
X89618Y163798D01*
X89830Y163769D01*
X90055Y163760D01*
X90291Y163774D01*
X90539Y163808D01*
X90798Y163865D01*
X89077Y161041D01*
X89001Y161347D01*
X88745Y162148D01*
X88651Y162376D01*
X88447Y162775D01*
X88337Y162944D01*
X88223Y163095D01*
X88104Y163226D01*
X88730Y164271D01*
X88884Y164133D01*
D02*
G37*
G36*
X234294Y160453D02*
X234244Y160498D01*
X234185Y160538D01*
X234117Y160573D01*
X234041Y160604D01*
X233957Y160630D01*
X233863Y160651D01*
X233762Y160668D01*
X233652Y160679D01*
X233406Y160689D01*
Y161870D01*
X233533Y161872D01*
X233762Y161891D01*
X233863Y161908D01*
X233957Y161929D01*
X234041Y161955D01*
X234117Y161986D01*
X234185Y162021D01*
X234244Y162061D01*
X234294Y162106D01*
Y160453D01*
D02*
G37*
G36*
X364708Y160197D02*
X364657Y160242D01*
X364598Y160282D01*
X364530Y160317D01*
X364455Y160348D01*
X364370Y160374D01*
X364277Y160395D01*
X364175Y160412D01*
X364065Y160424D01*
X363820Y160433D01*
X363820Y161614D01*
X363947Y161617D01*
X364175Y161635D01*
X364277Y161652D01*
X364370Y161673D01*
X364455Y161699D01*
X364530Y161730D01*
X364598Y161765D01*
X364657Y161805D01*
X364708Y161850D01*
X364708Y160197D01*
D02*
G37*
G36*
X231978Y162348D02*
X232016Y162248D01*
X232077Y162159D01*
X232161Y162083D01*
X232269Y162018D01*
X232400Y161965D01*
X232554Y161923D01*
X232732Y161894D01*
X232933Y161876D01*
X233157Y161870D01*
Y160689D01*
X232933Y160683D01*
X232732Y160665D01*
X232554Y160636D01*
X232400Y160594D01*
X232269Y160541D01*
X232161Y160476D01*
X232077Y160400D01*
X232016Y160311D01*
X231978Y160211D01*
X231964Y160098D01*
Y162461D01*
X231978Y162348D01*
D02*
G37*
G36*
X203632Y162178D02*
X203669Y162078D01*
X203730Y161989D01*
X203814Y161913D01*
X203922Y161848D01*
X204053Y161794D01*
X204207Y161753D01*
X204385Y161724D01*
X204586Y161706D01*
X204811Y161700D01*
Y160519D01*
X204586Y160513D01*
X204385Y160495D01*
X204207Y160466D01*
X204053Y160424D01*
X203922Y160371D01*
X203814Y160306D01*
X203730Y160230D01*
X203669Y160141D01*
X203632Y160041D01*
X203618Y159928D01*
Y162291D01*
X203632Y162178D01*
D02*
G37*
G36*
X349185Y159594D02*
X349197Y158778D01*
X349191Y158783D01*
X349176Y158787D01*
X349153Y158790D01*
X349121Y158793D01*
X348978Y158800D01*
X348759Y158802D01*
Y159606D01*
X349185Y159594D01*
D02*
G37*
G36*
X228457Y158732D02*
X228446Y158793D01*
X228414Y158848D01*
X228360Y158896D01*
X228284Y158937D01*
X228187Y158972D01*
X228069Y159001D01*
X227929Y159024D01*
X227767Y159040D01*
X227379Y159052D01*
Y160233D01*
X227584Y160238D01*
X227768Y160253D01*
X227930Y160277D01*
X228071Y160311D01*
X228190Y160355D01*
X228289Y160409D01*
X228366Y160472D01*
X228421Y160545D01*
X228456Y160628D01*
X228469Y160721D01*
X228457Y158732D01*
D02*
G37*
G36*
X222624Y158730D02*
X222524Y158693D01*
X222435Y158632D01*
X222358Y158548D01*
X222293Y158440D01*
X222240Y158309D01*
X222199Y158155D01*
X222169Y157977D01*
X222152Y157776D01*
X222146Y157551D01*
X220965D01*
X220977Y158732D01*
X222736Y158745D01*
X222624Y158730D01*
D02*
G37*
G36*
X196358Y163644D02*
X196658Y162920D01*
X196949Y162629D01*
Y158268D01*
X201575D01*
Y155217D01*
Y152569D01*
X201080Y152494D01*
X200394Y154699D01*
Y155966D01*
X197638D01*
Y155512D01*
X194587Y155512D01*
X191634Y155512D01*
Y164272D01*
X196358D01*
Y163644D01*
D02*
G37*
G36*
X365101Y148386D02*
X365051Y148431D01*
X364992Y148471D01*
X364924Y148506D01*
X364848Y148537D01*
X364764Y148563D01*
X364671Y148584D01*
X364569Y148601D01*
X364459Y148613D01*
X364213Y148622D01*
Y149803D01*
X364340Y149805D01*
X364569Y149824D01*
X364671Y149841D01*
X364764Y149862D01*
X364848Y149888D01*
X364924Y149919D01*
X364992Y149954D01*
X365051Y149995D01*
X365101Y150039D01*
Y148386D01*
D02*
G37*
G36*
X157480Y145091D02*
X156299D01*
X155709Y146272D01*
X158071D01*
X157480Y145091D01*
D02*
G37*
G36*
X350934Y144748D02*
X350767Y144738D01*
X350600Y144711D01*
X350433Y144667D01*
X350266Y144607D01*
X350099Y144531D01*
X349932Y144438D01*
X349765Y144328D01*
X349598Y144202D01*
X349431Y144060D01*
X349264Y143901D01*
X348350Y144658D01*
X349185Y145815D01*
X350934Y144748D01*
D02*
G37*
G36*
X240097Y145027D02*
X239262Y143870D01*
X237591Y145027D01*
X237758Y145036D01*
X237925Y145061D01*
X238092Y145103D01*
X238259Y145161D01*
X238426Y145236D01*
X238594Y145328D01*
X238760Y145437D01*
X238928Y145562D01*
X239095Y145704D01*
X239262Y145862D01*
X240097Y145027D01*
D02*
G37*
G36*
X284057Y145168D02*
X284069Y145097D01*
X284090Y145024D01*
X284121Y144948D01*
X284162Y144870D01*
X284212Y144789D01*
X284272Y144705D01*
X284341Y144618D01*
X284507Y144438D01*
X283649Y143626D01*
X283558Y143714D01*
X283383Y143863D01*
X283300Y143924D01*
X283219Y143975D01*
X283141Y144017D01*
X283067Y144051D01*
X282994Y144074D01*
X282925Y144089D01*
X282858Y144095D01*
X284054Y145236D01*
X284057Y145168D01*
D02*
G37*
G36*
X292201Y145086D02*
X292042Y144919D01*
X291900Y144752D01*
X291774Y144585D01*
X291665Y144418D01*
X291572Y144251D01*
X291495Y144084D01*
X291435Y143917D01*
X291392Y143750D01*
X291365Y143583D01*
X291354Y143416D01*
X289696Y145074D01*
X289863Y145085D01*
X290030Y145112D01*
X290197Y145156D01*
X290364Y145216D01*
X290531Y145292D01*
X290698Y145385D01*
X290865Y145495D01*
X291032Y145621D01*
X291199Y145763D01*
X291366Y145922D01*
X292201Y145086D01*
D02*
G37*
G36*
X157486Y144055D02*
X157504Y143854D01*
X157534Y143677D01*
X157575Y143523D01*
X157628Y143394D01*
X157693Y143287D01*
X157770Y143204D01*
X157858Y143146D01*
X157959Y143110D01*
X158071Y143098D01*
X155709D01*
X155821Y143110D01*
X155921Y143146D01*
X156010Y143204D01*
X156087Y143287D01*
X156152Y143394D01*
X156205Y143523D01*
X156246Y143677D01*
X156276Y143854D01*
X156293Y144055D01*
X156299Y144279D01*
X157480D01*
X157486Y144055D01*
D02*
G37*
G36*
X286587Y142126D02*
X285406Y142717D01*
Y143898D01*
X286587Y144488D01*
Y142126D01*
D02*
G37*
G36*
X296170Y141902D02*
X296004Y141893D01*
X295836Y141868D01*
X295669Y141827D01*
X295502Y141768D01*
X295335Y141693D01*
X295168Y141601D01*
X295001Y141492D01*
X294834Y141367D01*
X294667Y141225D01*
X294500Y141067D01*
X293665Y141902D01*
X293824Y142069D01*
X293966Y142236D01*
X294091Y142403D01*
X294199Y142570D01*
X294291Y142737D01*
X294367Y142904D01*
X294425Y143071D01*
X294467Y143238D01*
X294492Y143405D01*
X294500Y143572D01*
X296170Y141902D01*
D02*
G37*
G36*
X195838Y139697D02*
X195787Y139739D01*
X195727Y139778D01*
X195659Y139811D01*
X195582Y139840D01*
X195497Y139865D01*
X195404Y139885D01*
X195302Y139901D01*
X195073Y139919D01*
X194946Y139921D01*
X194900Y141102D01*
X195027Y141105D01*
X195255Y141125D01*
X195357Y141142D01*
X195449Y141164D01*
X195533Y141191D01*
X195608Y141223D01*
X195675Y141260D01*
X195733Y141302D01*
X195783Y141349D01*
X195838Y139697D01*
D02*
G37*
G36*
X381345Y138355D02*
X381362Y138154D01*
X381392Y137976D01*
X381433Y137822D01*
X381486Y137691D01*
X381551Y137583D01*
X381628Y137499D01*
X381716Y137438D01*
X381817Y137401D01*
X381929Y137387D01*
X379567D01*
X379679Y137401D01*
X379780Y137438D01*
X379868Y137499D01*
X379945Y137583D01*
X380010Y137691D01*
X380063Y137822D01*
X380104Y137976D01*
X380134Y138154D01*
X380152Y138355D01*
X380157Y138580D01*
X381339D01*
X381345Y138355D01*
D02*
G37*
G36*
X165439Y138002D02*
X165339Y137965D01*
X165250Y137904D01*
X165173Y137820D01*
X165108Y137712D01*
X165055Y137581D01*
X165014Y137426D01*
X164984Y137249D01*
X164967Y137048D01*
X164961Y136823D01*
X163779D01*
X163774Y137048D01*
X163756Y137249D01*
X163726Y137426D01*
X163685Y137581D01*
X163632Y137712D01*
X163567Y137820D01*
X163490Y137904D01*
X163402Y137965D01*
X163301Y138002D01*
X163189Y138016D01*
X165551D01*
X165439Y138002D01*
D02*
G37*
G36*
X157959D02*
X157858Y137965D01*
X157770Y137904D01*
X157693Y137820D01*
X157628Y137712D01*
X157575Y137581D01*
X157534Y137426D01*
X157504Y137249D01*
X157486Y137048D01*
X157480Y136823D01*
X156299D01*
X156293Y137048D01*
X156276Y137249D01*
X156246Y137426D01*
X156205Y137581D01*
X156152Y137712D01*
X156087Y137820D01*
X156010Y137904D01*
X155921Y137965D01*
X155821Y138002D01*
X155709Y138016D01*
X158071D01*
X157959Y138002D01*
D02*
G37*
G36*
X174409Y153839D02*
X176870Y151378D01*
Y145193D01*
X176563Y145132D01*
X176302Y144957D01*
X176128Y144697D01*
X176067Y144390D01*
Y136280D01*
Y136196D01*
X172555D01*
Y136280D01*
X172494Y136587D01*
X172320Y136847D01*
X172259Y136887D01*
Y142972D01*
X172198Y143280D01*
X172198Y143280D01*
X172091Y143539D01*
Y144003D01*
X172198Y144262D01*
X172198Y144262D01*
X172259Y144570D01*
Y148228D01*
X172198Y148536D01*
X172024Y148796D01*
X171764Y148970D01*
X171457Y149031D01*
X169965D01*
X164272Y154724D01*
Y160039D01*
X174409D01*
Y153839D01*
D02*
G37*
G36*
X337008Y136002D02*
X336409Y135403D01*
X331791D01*
X331791Y135403D01*
X331366Y135319D01*
X331005Y135078D01*
X331005Y135078D01*
X329491Y133563D01*
X328642D01*
Y128839D01*
X319989D01*
X319963Y128951D01*
X319935Y129094D01*
X319929Y129103D01*
X319926Y129114D01*
X319882Y129177D01*
Y133819D01*
X322244D01*
Y139764D01*
X337008D01*
Y136002D01*
D02*
G37*
G36*
X161618Y136386D02*
X161675Y135500D01*
X161710Y135283D01*
X161752Y135106D01*
X161801Y134968D01*
X161858Y134870D01*
X161923Y134811D01*
X161996Y134791D01*
X159264D01*
X159336Y134811D01*
X159401Y134870D01*
X159459Y134968D01*
X159508Y135106D01*
X159550Y135283D01*
X159585Y135500D01*
X159611Y135756D01*
X159642Y136386D01*
X159646Y136760D01*
X161614D01*
X161618Y136386D01*
D02*
G37*
G36*
X164967Y135748D02*
X164984Y135547D01*
X165014Y135369D01*
X165055Y135214D01*
X165108Y135083D01*
X165173Y134976D01*
X165250Y134892D01*
X165339Y134831D01*
X165439Y134793D01*
X165551Y134779D01*
X163189D01*
X163301Y134793D01*
X163402Y134831D01*
X163490Y134892D01*
X163567Y134976D01*
X163632Y135083D01*
X163685Y135214D01*
X163726Y135369D01*
X163756Y135547D01*
X163774Y135748D01*
X163779Y135972D01*
X164961D01*
X164967Y135748D01*
D02*
G37*
G36*
X157486D02*
X157504Y135547D01*
X157534Y135369D01*
X157575Y135214D01*
X157628Y135083D01*
X157693Y134976D01*
X157770Y134892D01*
X157858Y134831D01*
X157959Y134793D01*
X158071Y134779D01*
X155709D01*
X155821Y134793D01*
X155921Y134831D01*
X156010Y134892D01*
X156087Y134976D01*
X156152Y135083D01*
X156205Y135214D01*
X156246Y135369D01*
X156276Y135547D01*
X156293Y135748D01*
X156299Y135972D01*
X157480D01*
X157486Y135748D01*
D02*
G37*
G36*
X81974Y134882D02*
X81992Y134680D01*
X82022Y134503D01*
X82063Y134348D01*
X82116Y134217D01*
X82181Y134110D01*
X82258Y134025D01*
X82346Y133965D01*
X82447Y133927D01*
X82559Y133913D01*
X80197D01*
X80309Y133927D01*
X80409Y133965D01*
X80498Y134025D01*
X80575Y134110D01*
X80640Y134217D01*
X80693Y134348D01*
X80734Y134503D01*
X80764Y134680D01*
X80782Y134882D01*
X80787Y135106D01*
X81968D01*
X81974Y134882D01*
D02*
G37*
G36*
X199381Y133791D02*
X199330Y133834D01*
X199270Y133872D01*
X199202Y133906D01*
X199126Y133935D01*
X199041Y133960D01*
X198947Y133980D01*
X198845Y133995D01*
X198616Y134013D01*
X198489Y134016D01*
X198444Y135197D01*
X198571Y135199D01*
X198799Y135219D01*
X198900Y135236D01*
X198992Y135259D01*
X199076Y135286D01*
X199152Y135318D01*
X199218Y135355D01*
X199277Y135397D01*
X199326Y135444D01*
X199381Y133791D01*
D02*
G37*
G36*
X114652Y133226D02*
X114533Y133095D01*
X114419Y132944D01*
X114309Y132774D01*
X114205Y132585D01*
X114105Y132376D01*
X113920Y131901D01*
X113835Y131633D01*
X113679Y131041D01*
X111958Y133865D01*
X112217Y133808D01*
X112465Y133774D01*
X112701Y133760D01*
X112926Y133769D01*
X113138Y133798D01*
X113339Y133850D01*
X113529Y133923D01*
X113706Y134017D01*
X113872Y134133D01*
X114026Y134271D01*
X114652Y133226D01*
D02*
G37*
G36*
X376490Y133272D02*
X376431Y133384D01*
X376353Y133483D01*
X376259Y133571D01*
X376147Y133647D01*
X376017Y133712D01*
X375871Y133765D01*
X375707Y133806D01*
X375525Y133835D01*
X375326Y133852D01*
X375110Y133858D01*
Y135039D01*
X375326Y135045D01*
X375525Y135063D01*
X375707Y135092D01*
X375871Y135133D01*
X376017Y135186D01*
X376147Y135250D01*
X376259Y135327D01*
X376353Y135414D01*
X376431Y135514D01*
X376490Y135625D01*
Y133272D01*
D02*
G37*
G36*
X363176Y135514D02*
X363253Y135414D01*
X363348Y135327D01*
X363459Y135250D01*
X363589Y135186D01*
X363736Y135133D01*
X363900Y135092D01*
X364081Y135063D01*
X364280Y135045D01*
X364497Y135039D01*
Y133858D01*
X364280Y133852D01*
X364081Y133835D01*
X363900Y133806D01*
X363736Y133765D01*
X363589Y133712D01*
X363459Y133647D01*
X363348Y133571D01*
X363253Y133483D01*
X363176Y133384D01*
X363116Y133272D01*
Y135625D01*
X363176Y135514D01*
D02*
G37*
G36*
X101979Y135083D02*
X102011Y134886D01*
X102064Y134688D01*
X102139Y134488D01*
X102234Y134287D01*
X102351Y134085D01*
X102489Y133881D01*
X102649Y133676D01*
X102830Y133469D01*
X103032Y133262D01*
X99724D01*
X99926Y133469D01*
X100267Y133881D01*
X100405Y134085D01*
X100522Y134287D01*
X100617Y134488D01*
X100692Y134688D01*
X100745Y134886D01*
X100777Y135083D01*
X100787Y135279D01*
X101969D01*
X101979Y135083D01*
D02*
G37*
G36*
X186417Y154331D02*
X195866D01*
X196260Y153937D01*
Y147638D01*
X231299D01*
Y112992D01*
X226972D01*
X226320Y113606D01*
X226275Y113714D01*
X225721Y114267D01*
X224998Y114567D01*
X224215D01*
X223491Y114267D01*
X222937Y113714D01*
X222893Y113606D01*
X222241Y112992D01*
X219643D01*
X219385Y113615D01*
X218832Y114169D01*
X218108Y114469D01*
X217325D01*
X216601Y114169D01*
X216048Y113615D01*
X215790Y112992D01*
X208661D01*
X208460Y113477D01*
X207906Y114031D01*
X207183Y114331D01*
X206400D01*
X205676Y114031D01*
X205122Y113477D01*
X204922Y112992D01*
X197441D01*
Y109055D01*
X179724D01*
Y115354D01*
X196260D01*
Y126824D01*
X196760Y127031D01*
X197113Y126678D01*
X197837Y126378D01*
X198620D01*
X199343Y126678D01*
X199897Y127231D01*
X200197Y127955D01*
Y128738D01*
X199897Y129462D01*
X199524Y129834D01*
X199531Y130341D01*
X199583Y130429D01*
X200086Y130932D01*
X200385Y131656D01*
Y132439D01*
X200793Y132762D01*
X201312Y132977D01*
X201866Y133531D01*
X201976Y133798D01*
X202172Y133848D01*
X202539Y133850D01*
X203019Y133371D01*
X203742Y133071D01*
X204525D01*
X205249Y133371D01*
X205803Y133924D01*
X206102Y134648D01*
Y135431D01*
X205803Y136154D01*
X205249Y136708D01*
X204525Y137008D01*
X203742D01*
X203019Y136708D01*
X202465Y136154D01*
X202354Y135887D01*
X202159Y135837D01*
X201792Y135835D01*
X201312Y136314D01*
X200588Y136614D01*
X199805D01*
X199082Y136314D01*
X198828Y136061D01*
X198810Y136049D01*
X198807Y136048D01*
X198801Y136044D01*
X198791Y136037D01*
X198775Y136032D01*
X198738Y136023D01*
X198696Y136016D01*
X198528Y136002D01*
X198428Y136000D01*
X198420Y135998D01*
X198413Y135999D01*
X198267Y135964D01*
X198122Y135932D01*
X198116Y135928D01*
X198108Y135926D01*
X197987Y135839D01*
X197865Y135753D01*
X197861Y135747D01*
X197854Y135742D01*
X197840Y135718D01*
X196260D01*
Y138581D01*
X196262Y138583D01*
X197045D01*
X197769Y138882D01*
X198322Y139436D01*
X198622Y140160D01*
Y140943D01*
X198322Y141666D01*
X197769Y142220D01*
X197045Y142520D01*
X196262D01*
X196260Y142521D01*
Y144095D01*
X188301D01*
Y144390D01*
X188287Y144457D01*
Y145276D01*
X177756D01*
Y154724D01*
X175394Y154724D01*
Y159843D01*
X186417D01*
Y154331D01*
D02*
G37*
G36*
X370866Y133858D02*
X370866D01*
X370866Y133858D01*
X370642Y133846D01*
X370441Y133811D01*
X370264Y133752D01*
X370110Y133669D01*
X369980Y133563D01*
X369874Y133433D01*
X369791Y133280D01*
X369732Y133102D01*
X369697Y132902D01*
X369685Y132677D01*
X368504D01*
X368492Y132902D01*
X368457Y133102D01*
X368398Y133280D01*
X368315Y133433D01*
X368209Y133563D01*
X368079Y133669D01*
X367925Y133752D01*
X367748Y133811D01*
X367547Y133846D01*
X367323Y133858D01*
X367323Y133858D01*
X367323D01*
X369094Y135039D01*
X370866Y133858D01*
D02*
G37*
G36*
X289573Y133169D02*
X289591Y132968D01*
X289620Y132790D01*
X289661Y132636D01*
X289715Y132505D01*
X289779Y132397D01*
X289856Y132313D01*
X289945Y132252D01*
X290045Y132214D01*
X290158Y132200D01*
X287795D01*
X287908Y132214D01*
X288008Y132252D01*
X288096Y132313D01*
X288173Y132397D01*
X288238Y132505D01*
X288291Y132636D01*
X288333Y132790D01*
X288362Y132968D01*
X288380Y133169D01*
X288386Y133394D01*
X289567D01*
X289573Y133169D01*
D02*
G37*
G36*
X198049Y133170D02*
X197273Y131753D01*
X197252Y131809D01*
X197219Y131859D01*
X197174Y131903D01*
X197117Y131941D01*
X197049Y131974D01*
X196968Y132000D01*
X196876Y132021D01*
X196771Y132036D01*
X196655Y132044D01*
X196527Y132047D01*
X196685Y133228D01*
X198049Y133170D01*
D02*
G37*
G36*
X124415Y133777D02*
X124284Y133631D01*
X124167Y133469D01*
X124065Y133291D01*
X123976Y133097D01*
X123901Y132887D01*
X123841Y132661D01*
X123794Y132420D01*
X123762Y132162D01*
X123744Y131888D01*
X123740Y131598D01*
X121402Y133937D01*
X121691Y133941D01*
X122223Y133991D01*
X122465Y134038D01*
X122690Y134098D01*
X122900Y134173D01*
X123094Y134261D01*
X123272Y134364D01*
X123434Y134481D01*
X123580Y134612D01*
X124415Y133777D01*
D02*
G37*
G36*
X94415D02*
X94284Y133631D01*
X94167Y133469D01*
X94064Y133291D01*
X93976Y133097D01*
X93901Y132887D01*
X93841Y132661D01*
X93795Y132420D01*
X93762Y132162D01*
X93744Y131888D01*
X93740Y131598D01*
X91402Y133937D01*
X91691Y133941D01*
X92223Y133991D01*
X92465Y134038D01*
X92690Y134098D01*
X92900Y134173D01*
X93094Y134261D01*
X93272Y134364D01*
X93434Y134481D01*
X93580Y134612D01*
X94415Y133777D01*
D02*
G37*
G36*
X151078Y133437D02*
X151131Y133314D01*
X151219Y133206D01*
X151340Y133112D01*
X151495Y133032D01*
X151684Y132967D01*
X151907Y132916D01*
X152164Y132880D01*
X152454Y132858D01*
X152779Y132851D01*
Y130882D01*
X152454Y130876D01*
X151908Y130820D01*
X151686Y130772D01*
X151498Y130709D01*
X151344Y130633D01*
X151224Y130543D01*
X151139Y130439D01*
X151088Y130321D01*
X151071Y130189D01*
X151059Y133575D01*
X151078Y133437D01*
D02*
G37*
G36*
X258710Y131858D02*
X258861Y131732D01*
X259003Y131632D01*
X259137Y131556D01*
X259263Y131506D01*
X259380Y131481D01*
X259488Y131481D01*
X259588Y131507D01*
X259680Y131557D01*
X259763Y131633D01*
X258894Y129173D01*
X258871Y129352D01*
X258835Y129528D01*
X258786Y129701D01*
X258723Y129870D01*
X258647Y130036D01*
X258559Y130199D01*
X258457Y130358D01*
X258342Y130514D01*
X258214Y130666D01*
X258074Y130816D01*
X258550Y132009D01*
X258710Y131858D01*
D02*
G37*
G36*
X168799Y148228D02*
X171457D01*
Y144570D01*
X171288Y144162D01*
Y143379D01*
X171457Y142972D01*
Y136280D01*
X171752D01*
Y135394D01*
X176870D01*
Y136280D01*
Y144390D01*
X187498D01*
Y143071D01*
X189272D01*
Y141890D01*
X187498D01*
Y139134D01*
Y137165D01*
Y135197D01*
Y133228D01*
Y131260D01*
X189272D01*
Y130079D01*
X187498D01*
Y128839D01*
X173915D01*
X172528Y130225D01*
X172168Y130466D01*
X171742Y130551D01*
X171742Y130551D01*
X166634D01*
Y133071D01*
X166634Y143504D01*
X166535Y143602D01*
Y143898D01*
X166240D01*
X165453Y144685D01*
X162303D01*
Y151476D01*
X165551D01*
X168799Y148228D01*
D02*
G37*
G36*
X248721Y128150D02*
X240061D01*
Y130079D01*
X238779D01*
Y131260D01*
X240061D01*
Y133228D01*
Y135197D01*
Y137165D01*
Y138484D01*
X248721D01*
Y128150D01*
D02*
G37*
G36*
X319199Y128563D02*
X319216Y128361D01*
X319246Y128184D01*
X319287Y128029D01*
X319340Y127898D01*
X319406Y127791D01*
X319482Y127707D01*
X319571Y127646D01*
X319671Y127608D01*
X319783Y127594D01*
X317421D01*
X317533Y127608D01*
X317634Y127646D01*
X317722Y127707D01*
X317799Y127791D01*
X317864Y127898D01*
X317917Y128029D01*
X317959Y128184D01*
X317988Y128361D01*
X318006Y128563D01*
X318012Y128787D01*
X319193D01*
X319199Y128563D01*
D02*
G37*
G36*
X369691Y128464D02*
X369709Y128263D01*
X369738Y128085D01*
X369779Y127931D01*
X369833Y127800D01*
X369898Y127692D01*
X369974Y127608D01*
X370063Y127547D01*
X370163Y127510D01*
X370276Y127496D01*
X367913D01*
X368026Y127510D01*
X368126Y127547D01*
X368215Y127608D01*
X368291Y127692D01*
X368356Y127800D01*
X368409Y127931D01*
X368451Y128085D01*
X368480Y128263D01*
X368498Y128464D01*
X368504Y128689D01*
X369685D01*
X369691Y128464D01*
D02*
G37*
G36*
X335518Y128908D02*
X335417Y128870D01*
X335329Y128809D01*
X335252Y128725D01*
X335187Y128617D01*
X335134Y128486D01*
X335092Y128332D01*
X335063Y128154D01*
X335045Y127953D01*
X335039Y127728D01*
X334209D01*
X335039Y127617D01*
X334981Y126254D01*
X333564Y127030D01*
X333620Y127051D01*
X333670Y127084D01*
X333714Y127129D01*
X333752Y127185D01*
X333785Y127254D01*
X333811Y127334D01*
X333832Y127427D01*
X333846Y127531D01*
X333855Y127647D01*
X333858Y127751D01*
X333852Y127953D01*
X333835Y128154D01*
X333805Y128332D01*
X333764Y128486D01*
X333711Y128617D01*
X333646Y128725D01*
X333569Y128809D01*
X333480Y128870D01*
X333380Y128908D01*
X333268Y128922D01*
X335630D01*
X335518Y128908D01*
D02*
G37*
G36*
X319197Y125662D02*
X319783D01*
X319387Y124869D01*
X319406Y124838D01*
X319482Y124754D01*
X319571Y124693D01*
X319671Y124655D01*
X319783Y124641D01*
X319273D01*
X319193Y124480D01*
X318012D01*
X317931Y124641D01*
X317421D01*
X317533Y124655D01*
X317634Y124693D01*
X317722Y124754D01*
X317799Y124838D01*
X317818Y124869D01*
X317421Y125662D01*
X318007D01*
X318012Y125835D01*
X319193D01*
X319197Y125662D01*
D02*
G37*
G36*
X328630Y124161D02*
X326870Y124149D01*
X326982Y124163D01*
X327083Y124201D01*
X327171Y124262D01*
X327248Y124346D01*
X327313Y124453D01*
X327366Y124584D01*
X327408Y124739D01*
X327437Y124917D01*
X327455Y125118D01*
X327461Y125342D01*
X328642D01*
X328630Y124161D01*
D02*
G37*
G36*
X347578Y124189D02*
X347071Y123097D01*
X346236Y123896D01*
X347071Y124732D01*
X347578Y124189D01*
D02*
G37*
G36*
X315551Y123031D02*
X300458D01*
X300409Y123097D01*
X300342Y123199D01*
X300300Y123274D01*
X300295Y123285D01*
Y124961D01*
X294685D01*
X294685Y140300D01*
X294719Y140310D01*
X294784Y140328D01*
X294793Y140333D01*
X294803Y140336D01*
X294862Y140367D01*
X294923Y140398D01*
X294931Y140404D01*
X294940Y140409D01*
X294992Y140451D01*
X295045Y140493D01*
X295196Y140637D01*
X295328Y140749D01*
X295455Y140844D01*
X295575Y140922D01*
X295689Y140984D01*
X295796Y141033D01*
X295897Y141068D01*
X295991Y141092D01*
X296063Y141102D01*
X300394D01*
Y142913D01*
X315551D01*
Y123031D01*
D02*
G37*
G36*
X291445Y123577D02*
X291504Y123537D01*
X291572Y123502D01*
X291648Y123471D01*
X291732Y123445D01*
X291826Y123424D01*
X291927Y123407D01*
X292037Y123395D01*
X292283Y123386D01*
Y122205D01*
X292156Y122202D01*
X291927Y122184D01*
X291826Y122167D01*
X291732Y122146D01*
X291648Y122120D01*
X291572Y122089D01*
X291504Y122054D01*
X291445Y122013D01*
X291395Y121968D01*
Y123622D01*
X291445Y123577D01*
D02*
G37*
G36*
X294414Y121614D02*
X294400Y121726D01*
X294362Y121827D01*
X294301Y121915D01*
X294217Y121992D01*
X294110Y122057D01*
X293979Y122110D01*
X293824Y122152D01*
X293646Y122181D01*
X293445Y122199D01*
X293221Y122205D01*
Y123386D01*
X293445Y123392D01*
X293646Y123409D01*
X293824Y123439D01*
X293979Y123480D01*
X294110Y123533D01*
X294217Y123598D01*
X294301Y123675D01*
X294362Y123764D01*
X294400Y123864D01*
X294414Y123976D01*
Y121614D01*
D02*
G37*
G36*
X323536Y121429D02*
X322539Y121417D01*
Y122598D01*
X322729Y122602D01*
X323048Y122635D01*
X323179Y122663D01*
X323290Y122700D01*
X323380Y122745D01*
X323452Y122797D01*
X323503Y122858D01*
X323535Y122927D01*
X323548Y123004D01*
X323536Y121429D01*
D02*
G37*
G36*
X178654Y121331D02*
X176685Y122267D01*
Y124236D01*
X178654Y124850D01*
Y121331D01*
D02*
G37*
G36*
X370494Y121232D02*
X369313D01*
X368722Y122414D01*
X370460D01*
X370494Y121232D01*
D02*
G37*
G36*
X299506Y123149D02*
X299538Y123041D01*
X299591Y122921D01*
X299665Y122788D01*
X299761Y122643D01*
X299877Y122486D01*
X300174Y122136D01*
X300555Y121737D01*
X299720Y120901D01*
X299615Y121002D01*
X299411Y121171D01*
X299310Y121239D01*
X299212Y121297D01*
X299115Y121345D01*
X299020Y121382D01*
X298926Y121408D01*
X298834Y121424D01*
X298744Y121429D01*
X299496Y123245D01*
X299506Y123149D01*
D02*
G37*
G36*
X157194Y121429D02*
X157027Y121421D01*
X156860Y121396D01*
X156693Y121354D01*
X156526Y121296D01*
X156359Y121221D01*
X156192Y121129D01*
X156025Y121020D01*
X155858Y120895D01*
X155691Y120753D01*
X155524Y120594D01*
X154689Y121429D01*
X154847Y121596D01*
X154989Y121763D01*
X155115Y121930D01*
X155223Y122098D01*
X155315Y122265D01*
X155390Y122432D01*
X155449Y122599D01*
X155490Y122766D01*
X155516Y122933D01*
X155524Y123100D01*
X157194Y121429D01*
D02*
G37*
G36*
X321445Y120925D02*
X321220Y120921D01*
X320842Y120891D01*
X320689Y120864D01*
X320559Y120830D01*
X320453Y120788D01*
X320370Y120738D01*
X320311Y120681D01*
X320275Y120616D01*
X320264Y120544D01*
Y122094D01*
X321445Y122106D01*
Y120925D01*
D02*
G37*
G36*
X302768Y120544D02*
X301587Y120728D01*
Y121909D01*
X302768Y122094D01*
Y120544D01*
D02*
G37*
G36*
X254626Y141400D02*
Y120276D01*
X236370D01*
Y121417D01*
X240061D01*
Y123386D01*
Y125354D01*
Y127323D01*
Y127347D01*
X248721D01*
X249028Y127408D01*
X249048Y127421D01*
X249508D01*
Y128072D01*
X249523Y128150D01*
Y138484D01*
X249508Y138562D01*
Y139232D01*
X248996D01*
X248721Y139287D01*
X240061D01*
Y141890D01*
X236370D01*
Y143071D01*
X240061D01*
Y143606D01*
X240748Y144557D01*
X240787Y144642D01*
X240839Y144720D01*
X240851Y144784D01*
X240878Y144842D01*
X240881Y144936D01*
X240900Y145027D01*
X240889Y145082D01*
X241968Y146161D01*
X249865D01*
X254626Y141400D01*
D02*
G37*
G36*
X161699Y121427D02*
X161599Y121390D01*
X161510Y121329D01*
X161433Y121245D01*
X161368Y121137D01*
X161315Y121006D01*
X161274Y120852D01*
X161244Y120674D01*
X161226Y120473D01*
X161221Y120248D01*
X160039D01*
X160034Y120473D01*
X160016Y120674D01*
X159986Y120852D01*
X159945Y121006D01*
X159892Y121137D01*
X159827Y121245D01*
X159750Y121329D01*
X159661Y121390D01*
X159561Y121427D01*
X159449Y121441D01*
X161811D01*
X161699Y121427D01*
D02*
G37*
G36*
X165740Y123935D02*
X165784Y123656D01*
X165855Y123378D01*
X165954Y123100D01*
X166081Y122821D01*
X166235Y122543D01*
X166417Y122265D01*
X166626Y121986D01*
X166863Y121708D01*
X167128Y121429D01*
X165736Y120037D01*
X163004Y121429D01*
X165724Y124213D01*
X165740Y123935D01*
D02*
G37*
G36*
X370500Y119882D02*
X370517Y119680D01*
X370547Y119503D01*
X370588Y119348D01*
X370641Y119217D01*
X370706Y119110D01*
X370783Y119025D01*
X370872Y118965D01*
X370972Y118927D01*
X371084Y118913D01*
X368722D01*
X368834Y118927D01*
X368935Y118965D01*
X369023Y119025D01*
X369100Y119110D01*
X369165Y119217D01*
X369218Y119348D01*
X369259Y119503D01*
X369289Y119680D01*
X369307Y119882D01*
X369313Y120106D01*
X370494D01*
X370500Y119882D01*
D02*
G37*
G36*
X349799Y120610D02*
X349825Y120443D01*
X349866Y120276D01*
X349925Y120109D01*
X350000Y119942D01*
X350092Y119775D01*
X350200Y119608D01*
X350326Y119441D01*
X350468Y119273D01*
X350626Y119106D01*
X349791Y118271D01*
X349624Y118430D01*
X349457Y118572D01*
X349290Y118697D01*
X349123Y118806D01*
X348956Y118898D01*
X348789Y118973D01*
X348622Y119031D01*
X348455Y119073D01*
X348288Y119098D01*
X348121Y119106D01*
X349791Y120777D01*
X349799Y120610D01*
D02*
G37*
G36*
X161226Y119212D02*
X161244Y119011D01*
X161274Y118833D01*
X161315Y118679D01*
X161368Y118548D01*
X161433Y118440D01*
X161510Y118356D01*
X161599Y118295D01*
X161699Y118258D01*
X161811Y118244D01*
X159658Y118256D01*
X159730Y118268D01*
X159795Y118303D01*
X159852Y118362D01*
X159902Y118445D01*
X159944Y118551D01*
X159978Y118681D01*
X160005Y118834D01*
X160024Y119012D01*
X160039Y119437D01*
X161221D01*
X161226Y119212D01*
D02*
G37*
G36*
X154927D02*
X154945Y119011D01*
X154974Y118833D01*
X155016Y118679D01*
X155069Y118548D01*
X155134Y118440D01*
X155211Y118356D01*
X155299Y118295D01*
X155400Y118258D01*
X155512Y118244D01*
X153150D01*
X153262Y118258D01*
X153362Y118295D01*
X153451Y118356D01*
X153528Y118440D01*
X153593Y118548D01*
X153646Y118679D01*
X153687Y118833D01*
X153717Y119011D01*
X153734Y119212D01*
X153740Y119437D01*
X154921D01*
X154927Y119212D01*
D02*
G37*
G36*
X66744Y119240D02*
X66756Y118059D01*
X66748Y118061D01*
X66728Y118063D01*
X66652Y118067D01*
X66142Y118071D01*
Y119252D01*
X66744Y119240D01*
D02*
G37*
G36*
X259424Y117683D02*
X259342Y117795D01*
X259245Y117894D01*
X259132Y117981D01*
X259005Y118057D01*
X258862Y118122D01*
X258704Y118174D01*
X258531Y118215D01*
X258342Y118244D01*
X258139Y118262D01*
X257920Y118268D01*
X257680Y119449D01*
X257890Y119455D01*
X258082Y119472D01*
X258255Y119502D01*
X258409Y119543D01*
X258544Y119596D01*
X258660Y119660D01*
X258757Y119737D01*
X258835Y119825D01*
X258894Y119925D01*
X258935Y120037D01*
X259424Y117683D01*
D02*
G37*
G36*
X302768Y117591D02*
X301587Y117973D01*
Y119153D01*
X302768Y119535D01*
Y117591D01*
D02*
G37*
G36*
X300677Y117973D02*
X300452Y117966D01*
X300251Y117949D01*
X300074Y117919D01*
X299919Y117878D01*
X299788Y117825D01*
X299680Y117760D01*
X299596Y117683D01*
X299535Y117595D01*
X299498Y117494D01*
X299484Y117382D01*
X299496Y118649D01*
X300677Y119153D01*
Y117973D01*
D02*
G37*
G36*
X289280Y118065D02*
X289339Y118025D01*
X289406Y117990D01*
X289482Y117959D01*
X289567Y117933D01*
X289660Y117912D01*
X289762Y117895D01*
X289872Y117884D01*
X290117Y117874D01*
X290117Y116693D01*
X289990Y116691D01*
X289762Y116672D01*
X289660Y116655D01*
X289567Y116634D01*
X289482Y116608D01*
X289406Y116577D01*
X289339Y116542D01*
X289280Y116502D01*
X289229Y116457D01*
X289229Y118110D01*
X289280Y118065D01*
D02*
G37*
G36*
X328631Y118316D02*
X328666Y118231D01*
X328722Y118156D01*
X328800Y118091D01*
X328900Y118036D01*
X329021Y117991D01*
X329164Y117956D01*
X329328Y117930D01*
X329514Y117915D01*
X329721Y117911D01*
Y116729D01*
X329514Y116724D01*
X329328Y116709D01*
X329164Y116684D01*
X329021Y116649D01*
X328900Y116604D01*
X328800Y116549D01*
X328722Y116484D01*
X328666Y116409D01*
X328631Y116323D01*
X328618Y116228D01*
Y118412D01*
X328631Y118316D01*
D02*
G37*
G36*
X323536Y116102D02*
X322355Y116693D01*
Y117874D01*
X323536Y118465D01*
Y116102D01*
D02*
G37*
G36*
X294402D02*
X293221Y116693D01*
Y117874D01*
X294402Y118465D01*
Y116102D01*
D02*
G37*
G36*
X164754Y117959D02*
X164791Y117858D01*
X164852Y117770D01*
X164936Y117693D01*
X165044Y117628D01*
X165175Y117575D01*
X165330Y117534D01*
X165507Y117504D01*
X165708Y117486D01*
X165933Y117480D01*
Y116299D01*
X165708Y116293D01*
X165507Y116276D01*
X165330Y116246D01*
X165175Y116205D01*
X165044Y116152D01*
X164936Y116087D01*
X164852Y116010D01*
X164791Y115921D01*
X164754Y115821D01*
X164740Y115709D01*
Y118071D01*
X164754Y117959D01*
D02*
G37*
G36*
X125811Y115512D02*
X125797Y115624D01*
X125760Y115724D01*
X125699Y115813D01*
X125615Y115890D01*
X125507Y115955D01*
X125376Y116008D01*
X125222Y116049D01*
X125044Y116079D01*
X124843Y116096D01*
X124618Y116102D01*
Y117283D01*
X124843Y117289D01*
X125044Y117307D01*
X125222Y117337D01*
X125376Y117378D01*
X125507Y117431D01*
X125615Y117496D01*
X125699Y117573D01*
X125760Y117661D01*
X125797Y117762D01*
X125811Y117874D01*
Y115512D01*
D02*
G37*
G36*
X106126D02*
X106112Y115624D01*
X106075Y115724D01*
X106014Y115813D01*
X105930Y115890D01*
X105822Y115955D01*
X105691Y116008D01*
X105537Y116049D01*
X105359Y116079D01*
X105158Y116096D01*
X104933Y116102D01*
Y117283D01*
X105158Y117289D01*
X105359Y117307D01*
X105537Y117337D01*
X105691Y117378D01*
X105822Y117431D01*
X105930Y117496D01*
X106014Y117573D01*
X106075Y117661D01*
X106112Y117762D01*
X106126Y117874D01*
Y115512D01*
D02*
G37*
G36*
X86441Y114724D02*
X86427Y114837D01*
X86390Y114937D01*
X86329Y115026D01*
X86245Y115102D01*
X86137Y115167D01*
X86006Y115220D01*
X85852Y115262D01*
X85674Y115291D01*
X85473Y115309D01*
X85248Y115315D01*
Y116496D01*
X85473Y116502D01*
X85674Y116520D01*
X85852Y116549D01*
X86006Y116590D01*
X86137Y116644D01*
X86245Y116709D01*
X86329Y116785D01*
X86390Y116874D01*
X86427Y116974D01*
X86441Y117087D01*
Y114724D01*
D02*
G37*
G36*
X364075Y113878D02*
X357382D01*
Y115354D01*
X356102D01*
Y127362D01*
X356201Y127461D01*
X364075D01*
Y113878D01*
D02*
G37*
G36*
X345061Y124407D02*
X345109Y124383D01*
X345238Y124258D01*
X345436Y123909D01*
X345433Y123896D01*
X345435Y123888D01*
X345433Y123879D01*
X345465Y123734D01*
X345494Y123589D01*
X345499Y123582D01*
X345501Y123573D01*
X345586Y123452D01*
X345668Y123329D01*
X345676Y123324D01*
X345681Y123316D01*
X346260Y122762D01*
Y118307D01*
X348071D01*
X348081Y118305D01*
X348208Y118298D01*
X348298Y118285D01*
X348392Y118261D01*
X348491Y118227D01*
X348597Y118179D01*
X348710Y118117D01*
X348830Y118039D01*
X348956Y117944D01*
X349087Y117833D01*
X349238Y117689D01*
X349362Y117611D01*
X349410Y117579D01*
Y113386D01*
X342815D01*
Y115650D01*
X339695D01*
X339677Y115653D01*
X339567Y116141D01*
Y124409D01*
X345052D01*
X345061Y124407D01*
D02*
G37*
G36*
X339677Y113221D02*
X338496Y113396D01*
Y114577D01*
X339677Y114850D01*
Y113221D01*
D02*
G37*
G36*
X135715Y114144D02*
X135614Y114106D01*
X135526Y114045D01*
X135449Y113961D01*
X135384Y113854D01*
X135331Y113723D01*
X135289Y113568D01*
X135260Y113390D01*
X135242Y113189D01*
X135236Y112965D01*
X134055D01*
X134049Y113189D01*
X134031Y113390D01*
X134002Y113568D01*
X133961Y113723D01*
X133907Y113854D01*
X133843Y113961D01*
X133766Y114045D01*
X133677Y114106D01*
X133577Y114144D01*
X133465Y114158D01*
X135827D01*
X135715Y114144D01*
D02*
G37*
G36*
X116030D02*
X115929Y114106D01*
X115840Y114045D01*
X115764Y113961D01*
X115699Y113854D01*
X115646Y113723D01*
X115604Y113568D01*
X115575Y113390D01*
X115557Y113189D01*
X115551Y112965D01*
X114370D01*
X114364Y113189D01*
X114347Y113390D01*
X114317Y113568D01*
X114276Y113723D01*
X114222Y113854D01*
X114157Y113961D01*
X114081Y114045D01*
X113992Y114106D01*
X113892Y114144D01*
X113779Y114158D01*
X116142D01*
X116030Y114144D01*
D02*
G37*
G36*
X96345D02*
X96244Y114106D01*
X96156Y114045D01*
X96079Y113961D01*
X96014Y113854D01*
X95961Y113723D01*
X95919Y113568D01*
X95890Y113390D01*
X95872Y113189D01*
X95866Y112965D01*
X94685D01*
X94679Y113189D01*
X94661Y113390D01*
X94632Y113568D01*
X94591Y113723D01*
X94537Y113854D01*
X94472Y113961D01*
X94396Y114045D01*
X94307Y114106D01*
X94207Y114144D01*
X94095Y114158D01*
X96457D01*
X96345Y114144D01*
D02*
G37*
G36*
X76660D02*
X76559Y114106D01*
X76471Y114045D01*
X76394Y113961D01*
X76329Y113854D01*
X76276Y113723D01*
X76234Y113568D01*
X76205Y113390D01*
X76187Y113189D01*
X76181Y112965D01*
X75000D01*
X74994Y113189D01*
X74976Y113390D01*
X74947Y113568D01*
X74906Y113723D01*
X74852Y113854D01*
X74787Y113961D01*
X74711Y114045D01*
X74622Y114106D01*
X74522Y114144D01*
X74410Y114158D01*
X76772D01*
X76660Y114144D01*
D02*
G37*
G36*
X286086Y114557D02*
X286146Y114524D01*
X286215Y114495D01*
X286292Y114470D01*
X286377Y114448D01*
X286471Y114431D01*
X286685Y114407D01*
X286804Y114401D01*
X286931Y114400D01*
X287081Y113218D01*
X286954Y113216D01*
X286727Y113194D01*
X286627Y113176D01*
X286536Y113152D01*
X286454Y113122D01*
X286380Y113087D01*
X286316Y113047D01*
X286260Y113002D01*
X286213Y112951D01*
X286034Y114594D01*
X286086Y114557D01*
D02*
G37*
G36*
X336801Y115055D02*
X336839Y114955D01*
X336899Y114866D01*
X336984Y114789D01*
X337091Y114724D01*
X337222Y114671D01*
X337377Y114630D01*
X337554Y114600D01*
X337756Y114583D01*
X337980Y114577D01*
Y113396D01*
X337756Y113390D01*
X337554Y113372D01*
X337377Y113342D01*
X337222Y113301D01*
X337091Y113248D01*
X336984Y113183D01*
X336899Y113106D01*
X336839Y113018D01*
X336801Y112917D01*
X336787Y112805D01*
Y115167D01*
X336801Y115055D01*
D02*
G37*
G36*
X331705Y112628D02*
X330524Y113218D01*
Y114400D01*
X331705Y114990D01*
Y112628D01*
D02*
G37*
G36*
X224028Y111569D02*
X223972Y111592D01*
X223912Y111604D01*
X223848Y111603D01*
X223780Y111590D01*
X223708Y111564D01*
X223632Y111525D01*
X223552Y111474D01*
X223467Y111411D01*
X223379Y111335D01*
X223286Y111246D01*
X222554Y112184D01*
X223545Y113117D01*
X224028Y111569D01*
D02*
G37*
G36*
X226659Y112184D02*
X225926Y111246D01*
X225834Y111335D01*
X225745Y111411D01*
X225661Y111474D01*
X225581Y111525D01*
X225504Y111564D01*
X225432Y111590D01*
X225364Y111603D01*
X225300Y111604D01*
X225240Y111592D01*
X225185Y111569D01*
X225667Y113117D01*
X226659Y112184D01*
D02*
G37*
G36*
X207646Y111539D02*
X207612Y111479D01*
X207581Y111410D01*
X207554Y111333D01*
X207532Y111248D01*
X207513Y111154D01*
X207499Y111051D01*
X207482Y110822D01*
X207480Y110694D01*
X206299Y110580D01*
X206297Y110707D01*
X206276Y110934D01*
X206257Y111035D01*
X206234Y111126D01*
X206205Y111209D01*
X206171Y111283D01*
X206132Y111348D01*
X206087Y111405D01*
X206038Y111453D01*
X207685Y111591D01*
X207646Y111539D01*
D02*
G37*
G36*
X299516Y111097D02*
X299575Y111032D01*
X299673Y110974D01*
X299811Y110925D01*
X299988Y110883D01*
X300204Y110848D01*
X300460Y110822D01*
X301090Y110791D01*
X301464Y110787D01*
Y108819D01*
X301090Y108815D01*
X300204Y108758D01*
X299988Y108723D01*
X299811Y108681D01*
X299673Y108632D01*
X299575Y108575D01*
X299516Y108510D01*
X299496Y108437D01*
Y111169D01*
X299516Y111097D01*
D02*
G37*
G36*
X259555Y107508D02*
X259447Y107618D01*
X259328Y107718D01*
X259199Y107805D01*
X259059Y107881D01*
X258908Y107945D01*
X258746Y107997D01*
X258574Y108038D01*
X258391Y108067D01*
X258198Y108085D01*
X257993Y108091D01*
X257693Y109272D01*
X257913Y109277D01*
X258111Y109295D01*
X258287Y109325D01*
X258441Y109366D01*
X258573Y109419D01*
X258683Y109484D01*
X258771Y109561D01*
X258838Y109649D01*
X258882Y109749D01*
X258905Y109861D01*
X259555Y107508D01*
D02*
G37*
G36*
X367323Y113031D02*
X367815D01*
Y104390D01*
X364469Y101043D01*
X350590D01*
Y92913D01*
X339961D01*
Y91929D01*
X333366D01*
Y81693D01*
X339961D01*
Y76378D01*
X350590D01*
Y66004D01*
X328248D01*
X320768Y73484D01*
Y76083D01*
X320404D01*
X320184Y76334D01*
Y81260D01*
X320031Y82418D01*
X319584Y83498D01*
X318873Y84424D01*
X318810Y84473D01*
X318517Y84855D01*
X317694Y85486D01*
X316736Y85883D01*
X315709Y86018D01*
X314681Y85883D01*
X313723Y85486D01*
X312901Y84855D01*
X312608Y84473D01*
X312544Y84424D01*
X311833Y83498D01*
X311386Y82418D01*
X311233Y81260D01*
Y78187D01*
X309129Y76083D01*
X299803D01*
Y95138D01*
X316634Y111969D01*
X328642D01*
Y103150D01*
X343376D01*
Y109744D01*
X346358D01*
Y107303D01*
X350295D01*
Y109744D01*
X360088D01*
X360089Y113031D01*
X364961D01*
Y118366D01*
X367323D01*
Y113031D01*
D02*
G37*
G36*
X229134Y108163D02*
X229169Y108063D01*
X229228Y107974D01*
X229311Y107898D01*
X229417Y107833D01*
X229547Y107780D01*
X229701Y107738D01*
X229878Y107709D01*
X230079Y107691D01*
X230303Y107685D01*
Y106504D01*
X230079Y106498D01*
X229878Y106480D01*
X229701Y106451D01*
X229547Y106409D01*
X229417Y106356D01*
X229311Y106291D01*
X229228Y106215D01*
X229169Y106126D01*
X229134Y106026D01*
X229122Y105913D01*
Y108276D01*
X229134Y108163D01*
D02*
G37*
G36*
X342717Y110174D02*
X342635Y110051D01*
X342574Y109744D01*
Y105118D01*
X331693D01*
Y111024D01*
X342717D01*
Y110174D01*
D02*
G37*
G36*
X393110Y111969D02*
X378150D01*
X376181Y110000D01*
Y104095D01*
X368701D01*
X368701Y112548D01*
X369184Y113031D01*
X372441D01*
Y116732D01*
X383858Y128150D01*
Y131036D01*
X384209Y131182D01*
X384990Y131781D01*
X385590Y132563D01*
X385967Y133473D01*
X386095Y134449D01*
X385967Y135425D01*
X385590Y136335D01*
X384990Y137116D01*
X384209Y137716D01*
X383858Y137861D01*
X383858Y188123D01*
X384209Y188268D01*
X384990Y188868D01*
X385590Y189649D01*
X385967Y190559D01*
X386095Y191535D01*
X385967Y192512D01*
X385590Y193422D01*
X384990Y194203D01*
X384209Y194802D01*
X383858Y194948D01*
Y213976D01*
X380493Y217341D01*
X380591Y217832D01*
X381310Y218129D01*
X382470Y218905D01*
X383457Y219892D01*
X384233Y221053D01*
X384767Y222342D01*
X385039Y223711D01*
Y225107D01*
X384767Y226477D01*
X384233Y227766D01*
X383457Y228927D01*
X382470Y229914D01*
X381310Y230690D01*
X380020Y231224D01*
X378651Y231496D01*
X377255D01*
X375886Y231224D01*
X374596Y230690D01*
X373435Y229914D01*
X372448Y228927D01*
X371673Y227766D01*
X371139Y226477D01*
X370866Y225107D01*
Y223711D01*
X371139Y222342D01*
X371641Y221130D01*
X371442Y220630D01*
X298126Y220630D01*
X297736Y220236D01*
X291339D01*
X291339Y229921D01*
X289434Y231736D01*
X289372Y231968D01*
X288997Y232619D01*
X288465Y233150D01*
X287814Y233526D01*
X287088Y233720D01*
X286337D01*
X285969Y233622D01*
X279582D01*
X279214Y233720D01*
X278463D01*
X278095Y233622D01*
X271708Y233622D01*
X271340Y233720D01*
X270589D01*
X270221Y233622D01*
X263834D01*
X263466Y233720D01*
X262715D01*
X262347Y233622D01*
X255960Y233622D01*
X255592Y233720D01*
X254841D01*
X254473Y233622D01*
X248086D01*
X247718Y233720D01*
X246967D01*
X246599Y233622D01*
X240212Y233622D01*
X239844Y233720D01*
X239093D01*
X238725Y233622D01*
X232337D01*
X231970Y233720D01*
X231219D01*
X230851Y233622D01*
X224463D01*
X224096Y233720D01*
X223344D01*
X222977Y233622D01*
X212402Y233622D01*
X205709Y227126D01*
Y220630D01*
X198228D01*
Y220787D01*
X196566D01*
X196510Y220923D01*
X196407Y221287D01*
X196755Y221890D01*
X196949Y222616D01*
Y223368D01*
X196755Y224094D01*
X196379Y224745D01*
X195848Y225276D01*
X195197Y225652D01*
X194471Y225847D01*
X193719D01*
X192993Y225652D01*
X192342Y225276D01*
X191811Y224745D01*
X191435Y224094D01*
X191241Y223368D01*
Y222616D01*
X191435Y221890D01*
X191783Y221287D01*
X191680Y220923D01*
X191624Y220787D01*
X188692D01*
X188636Y220923D01*
X188533Y221287D01*
X188881Y221890D01*
X189075Y222616D01*
Y223368D01*
X188881Y224094D01*
X188505Y224745D01*
X187973Y225276D01*
X187323Y225652D01*
X186597Y225847D01*
X185845D01*
X185119Y225652D01*
X184468Y225276D01*
X183937Y224745D01*
X183561Y224094D01*
X183404Y223506D01*
X182904Y223572D01*
Y225976D01*
X184302Y227374D01*
X184323Y227369D01*
X184342Y227372D01*
X184361Y227368D01*
X184496Y227395D01*
X184633Y227416D01*
X184649Y227426D01*
X184668Y227429D01*
X184783Y227506D01*
X184901Y227577D01*
X185006Y227673D01*
X185091Y227736D01*
X185183Y227793D01*
X185286Y227843D01*
X185401Y227888D01*
X185530Y227926D01*
X185672Y227957D01*
X185831Y227980D01*
X186004Y227993D01*
X186214Y227997D01*
X186284Y228012D01*
X186597D01*
X187323Y228206D01*
X187973Y228582D01*
X188505Y229114D01*
X188881Y229764D01*
X189075Y230490D01*
Y231242D01*
X188881Y231968D01*
X188505Y232619D01*
X187973Y233150D01*
X187323Y233526D01*
X186597Y233720D01*
X185845D01*
X185119Y233526D01*
X184468Y233150D01*
X183937Y232619D01*
X183561Y231968D01*
X183367Y231242D01*
Y230930D01*
X183351Y230860D01*
X183348Y230649D01*
X183334Y230476D01*
X183312Y230318D01*
X183281Y230175D01*
X183243Y230046D01*
X183198Y229931D01*
X183147Y229828D01*
X183091Y229736D01*
X183028Y229652D01*
X182932Y229546D01*
X182861Y229428D01*
X182784Y229313D01*
X182780Y229294D01*
X182770Y229278D01*
X182750Y229141D01*
X182723Y229006D01*
X182727Y228987D01*
X182724Y228968D01*
X182729Y228947D01*
X181006Y227223D01*
X180764Y226863D01*
X180680Y226437D01*
X180680Y226437D01*
Y225403D01*
X180180Y225196D01*
X180099Y225276D01*
X179449Y225652D01*
X178723Y225847D01*
X177971D01*
X177245Y225652D01*
X176594Y225276D01*
X176063Y224745D01*
X175687Y224094D01*
X175493Y223368D01*
Y222992D01*
X173327D01*
Y223368D01*
X173133Y224094D01*
X172757Y224745D01*
X172225Y225276D01*
X171575Y225652D01*
X170849Y225847D01*
X170097D01*
X169371Y225652D01*
X168720Y225276D01*
X168189Y224745D01*
X167813Y224094D01*
X167619Y223368D01*
Y222992D01*
X165453D01*
Y223368D01*
X165259Y224094D01*
X164883Y224745D01*
X164351Y225276D01*
X163701Y225652D01*
X162975Y225847D01*
X162223D01*
X161497Y225652D01*
X160846Y225276D01*
X160315Y224745D01*
X159939Y224094D01*
X159745Y223368D01*
Y223056D01*
X159731Y222992D01*
X157579D01*
Y223368D01*
X157385Y224094D01*
X157009Y224745D01*
X156477Y225276D01*
X155827Y225652D01*
X155101Y225847D01*
X154349D01*
X153623Y225652D01*
X152972Y225276D01*
X152441Y224745D01*
X152065Y224094D01*
X151871Y223368D01*
Y222992D01*
X149705D01*
Y223368D01*
X149511Y224094D01*
X149135Y224745D01*
X148603Y225276D01*
X147953Y225652D01*
X147227Y225847D01*
X146475D01*
X145749Y225652D01*
X145098Y225276D01*
X144567Y224745D01*
X144191Y224094D01*
X143997Y223368D01*
Y222992D01*
X141831D01*
Y223368D01*
X141637Y224094D01*
X141261Y224745D01*
X140729Y225276D01*
X140078Y225652D01*
X139353Y225847D01*
X138601D01*
X137875Y225652D01*
X137224Y225276D01*
X136848Y224900D01*
X136348Y225107D01*
Y226733D01*
X136264Y227158D01*
X136022Y227519D01*
X136022Y227519D01*
X134595Y228947D01*
X134600Y228968D01*
X134597Y228987D01*
X134601Y229006D01*
X134574Y229141D01*
X134553Y229278D01*
X134543Y229294D01*
X134540Y229313D01*
X134463Y229428D01*
X134392Y229546D01*
X134296Y229652D01*
X134233Y229736D01*
X134176Y229829D01*
X134126Y229931D01*
X134081Y230046D01*
X134043Y230175D01*
X134012Y230318D01*
X133989Y230476D01*
X133976Y230649D01*
X133972Y230860D01*
X133957Y230930D01*
Y231242D01*
X133763Y231968D01*
X133387Y232619D01*
X132855Y233150D01*
X132204Y233526D01*
X131479Y233720D01*
X130727D01*
X130001Y233526D01*
X129350Y233150D01*
X128819Y232619D01*
X128443Y231968D01*
X128249Y231242D01*
Y230490D01*
X128443Y229764D01*
X128819Y229114D01*
X129350Y228582D01*
X130001Y228206D01*
X130727Y228012D01*
X131039D01*
X131109Y227997D01*
X131320Y227993D01*
X131493Y227980D01*
X131651Y227957D01*
X131794Y227926D01*
X131923Y227888D01*
X132037Y227843D01*
X132141Y227793D01*
X132233Y227736D01*
X132317Y227673D01*
X132423Y227577D01*
X132541Y227506D01*
X132656Y227429D01*
X132675Y227426D01*
X132691Y227416D01*
X132827Y227395D01*
X132963Y227368D01*
X132982Y227372D01*
X133001Y227369D01*
X133022Y227374D01*
X134124Y226272D01*
Y224467D01*
X133624Y224333D01*
X133387Y224745D01*
X132855Y225276D01*
X132204Y225652D01*
X131479Y225847D01*
X130727D01*
X130001Y225652D01*
X129350Y225276D01*
X129132Y225058D01*
X129074Y225022D01*
X128679Y224646D01*
X128518Y224513D01*
X128364Y224398D01*
X128225Y224307D01*
X128104Y224239D01*
X128002Y224193D01*
X127921Y224166D01*
X127863Y224154D01*
X127768Y224147D01*
X127645Y224113D01*
X127519Y224088D01*
X127494Y224072D01*
X127466Y224064D01*
X127365Y223985D01*
X127259Y223914D01*
X127242Y223889D01*
X127219Y223871D01*
X127214Y223863D01*
X122795D01*
X122462Y223797D01*
X122179Y223608D01*
X121563Y222992D01*
X104921D01*
Y238740D01*
X393110D01*
Y111969D01*
D02*
G37*
G36*
X177362Y108268D02*
X179647D01*
X179724Y108252D01*
X197441D01*
X197519Y108268D01*
X198228D01*
Y108977D01*
X198244Y109055D01*
Y109843D01*
X199409D01*
Y103937D01*
X172244D01*
Y114173D01*
X177362D01*
Y108268D01*
D02*
G37*
G36*
X213231Y104207D02*
X213223Y104189D01*
X213216Y104160D01*
X213209Y104121D01*
X213204Y104070D01*
X213194Y103856D01*
X213192Y103660D01*
X212205D01*
X212217Y104203D01*
X213241Y104215D01*
X213231Y104207D01*
D02*
G37*
G36*
X211405Y104203D02*
X211417Y103660D01*
X210430D01*
X210430Y103764D01*
X210406Y104160D01*
X210399Y104189D01*
X210391Y104207D01*
X210381Y104215D01*
X211405Y104203D01*
D02*
G37*
G36*
X259212Y98032D02*
X259152Y98143D01*
X259073Y98243D01*
X258977Y98330D01*
X258863Y98407D01*
X258731Y98471D01*
X258581Y98524D01*
X258412Y98565D01*
X258226Y98594D01*
X258022Y98612D01*
X257800Y98618D01*
X257707Y99799D01*
X257929Y99805D01*
X258130Y99822D01*
X258312Y99852D01*
X258473Y99893D01*
X258614Y99946D01*
X258735Y100010D01*
X258836Y100087D01*
X258917Y100175D01*
X258978Y100275D01*
X259019Y100387D01*
X259212Y98032D01*
D02*
G37*
G36*
X216616Y98952D02*
X216783Y98809D01*
X216950Y98684D01*
X217117Y98574D01*
X217284Y98481D01*
X217451Y98405D01*
X217618Y98345D01*
X217785Y98301D01*
X217952Y98274D01*
X218119Y98263D01*
X216461Y96605D01*
X216450Y96772D01*
X216423Y96939D01*
X216380Y97106D01*
X216320Y97273D01*
X216243Y97440D01*
X216150Y97607D01*
X216041Y97774D01*
X215915Y97941D01*
X215773Y98108D01*
X215614Y98275D01*
X216449Y99111D01*
X216616Y98952D01*
D02*
G37*
G36*
X225671Y98755D02*
X225838Y98613D01*
X226005Y98487D01*
X226172Y98377D01*
X226339Y98284D01*
X226506Y98208D01*
X226673Y98148D01*
X226840Y98104D01*
X227007Y98077D01*
X227174Y98067D01*
X225516Y96408D01*
X225505Y96575D01*
X225478Y96742D01*
X225435Y96909D01*
X225375Y97076D01*
X225298Y97243D01*
X225205Y97410D01*
X225096Y97577D01*
X224970Y97745D01*
X224828Y97912D01*
X224669Y98079D01*
X225504Y98914D01*
X225671Y98755D01*
D02*
G37*
G36*
X246557Y102461D02*
X250689Y98329D01*
Y95571D01*
X234132D01*
X233310Y96393D01*
Y98452D01*
X233225Y98877D01*
X233169Y98961D01*
Y102461D01*
X246557Y102461D01*
D02*
G37*
G36*
X221551Y97736D02*
X221576Y97569D01*
X221618Y97402D01*
X221677Y97235D01*
X221752Y97068D01*
X221844Y96901D01*
X221952Y96734D01*
X222078Y96566D01*
X222220Y96399D01*
X222378Y96232D01*
Y94562D01*
X222220Y94714D01*
X221952Y94930D01*
X221844Y94994D01*
X221752Y95028D01*
X221677Y95033D01*
X221618Y95008D01*
X221576Y94954D01*
X221551Y94870D01*
X221543Y94756D01*
Y97903D01*
X221551Y97736D01*
D02*
G37*
G36*
X180512Y93785D02*
X180547Y93685D01*
X180606Y93597D01*
X180689Y93520D01*
X180795Y93455D01*
X180925Y93402D01*
X181079Y93360D01*
X181256Y93331D01*
X181456Y93313D01*
X181681Y93307D01*
Y92126D01*
X181456Y92120D01*
X181256Y92102D01*
X181079Y92073D01*
X180925Y92032D01*
X180795Y91978D01*
X180689Y91913D01*
X180606Y91837D01*
X180547Y91748D01*
X180512Y91648D01*
X180500Y91535D01*
Y93898D01*
X180512Y93785D01*
D02*
G37*
G36*
X175811Y91535D02*
X175797Y91648D01*
X175760Y91748D01*
X175699Y91837D01*
X175615Y91913D01*
X175507Y91978D01*
X175376Y92032D01*
X175222Y92073D01*
X175044Y92102D01*
X174843Y92120D01*
X174618Y92126D01*
Y93307D01*
X174843Y93313D01*
X175044Y93331D01*
X175222Y93360D01*
X175376Y93402D01*
X175507Y93455D01*
X175615Y93520D01*
X175699Y93597D01*
X175760Y93685D01*
X175797Y93785D01*
X175811Y93898D01*
Y91535D01*
D02*
G37*
G36*
X200233Y92901D02*
X200074Y92734D01*
X199932Y92567D01*
X199807Y92400D01*
X199698Y92233D01*
X199606Y92066D01*
X199531Y91899D01*
X199473Y91732D01*
X199431Y91565D01*
X199406Y91398D01*
X199397Y91231D01*
X197530Y92704D01*
X197702Y92717D01*
X197881Y92755D01*
X198069Y92817D01*
X198265Y92905D01*
X198470Y93018D01*
X198683Y93155D01*
X198904Y93318D01*
X199372Y93719D01*
X199618Y93957D01*
X200233Y92901D01*
D02*
G37*
G36*
X235734Y91752D02*
X235752Y91550D01*
X235782Y91373D01*
X235823Y91218D01*
X235876Y91087D01*
X235941Y90980D01*
X236018Y90895D01*
X236106Y90835D01*
X236207Y90797D01*
X236319Y90783D01*
X234559Y90795D01*
X234547Y91976D01*
X235728D01*
X235734Y91752D01*
D02*
G37*
G36*
X163372Y91742D02*
X163272Y91705D01*
X163183Y91644D01*
X163106Y91560D01*
X163041Y91452D01*
X162988Y91321D01*
X162947Y91167D01*
X162928Y91056D01*
X162932Y91038D01*
X162953Y90945D01*
X162979Y90860D01*
X163009Y90784D01*
X163045Y90717D01*
X163085Y90658D01*
X163130Y90607D01*
X162895D01*
X162894Y90563D01*
X161713D01*
X161711Y90607D01*
X161476D01*
X161521Y90658D01*
X161561Y90717D01*
X161597Y90784D01*
X161628Y90860D01*
X161653Y90945D01*
X161675Y91038D01*
X161678Y91056D01*
X161659Y91167D01*
X161618Y91321D01*
X161565Y91452D01*
X161500Y91560D01*
X161423Y91644D01*
X161335Y91705D01*
X161234Y91742D01*
X161122Y91756D01*
X163484D01*
X163372Y91742D01*
D02*
G37*
G36*
X259085Y92349D02*
X259233Y92226D01*
X259375Y92126D01*
X259512Y92046D01*
X259645Y91989D01*
X259772Y91953D01*
X259894Y91939D01*
X260012Y91946D01*
X260124Y91975D01*
X260231Y92026D01*
X258926Y90003D01*
X258947Y90139D01*
X258948Y90278D01*
X258931Y90420D01*
X258894Y90564D01*
X258838Y90711D01*
X258763Y90860D01*
X258669Y91012D01*
X258556Y91166D01*
X258424Y91323D01*
X258273Y91482D01*
X258933Y92493D01*
X259085Y92349D01*
D02*
G37*
G36*
X134169Y91956D02*
X134032Y91802D01*
X133910Y91629D01*
X133803Y91437D01*
X133710Y91225D01*
X133632Y90995D01*
X133569Y90745D01*
X133521Y90476D01*
X133487Y90187D01*
X133468Y89880D01*
X133464Y89553D01*
X130931Y92086D01*
X131258Y92090D01*
X131853Y92143D01*
X132123Y92191D01*
X132373Y92254D01*
X132603Y92332D01*
X132815Y92425D01*
X133007Y92532D01*
X133180Y92655D01*
X133334Y92791D01*
X134169Y91956D01*
D02*
G37*
G36*
X114484D02*
X114348Y91802D01*
X114225Y91629D01*
X114118Y91437D01*
X114025Y91225D01*
X113947Y90995D01*
X113884Y90745D01*
X113836Y90476D01*
X113802Y90187D01*
X113783Y89880D01*
X113779Y89553D01*
X111246Y92086D01*
X111573Y92090D01*
X112169Y92143D01*
X112438Y92191D01*
X112688Y92254D01*
X112918Y92332D01*
X113130Y92425D01*
X113322Y92532D01*
X113495Y92655D01*
X113649Y92791D01*
X114484Y91956D01*
D02*
G37*
G36*
X94799D02*
X94662Y91802D01*
X94540Y91629D01*
X94433Y91437D01*
X94340Y91225D01*
X94262Y90995D01*
X94199Y90745D01*
X94151Y90476D01*
X94117Y90187D01*
X94098Y89880D01*
X94094Y89553D01*
X91561Y92086D01*
X91888Y92090D01*
X92484Y92143D01*
X92753Y92191D01*
X93002Y92254D01*
X93233Y92332D01*
X93445Y92425D01*
X93637Y92532D01*
X93810Y92655D01*
X93964Y92791D01*
X94799Y91956D01*
D02*
G37*
G36*
X75114D02*
X74977Y91802D01*
X74855Y91629D01*
X74748Y91437D01*
X74655Y91225D01*
X74577Y90995D01*
X74514Y90745D01*
X74466Y90476D01*
X74432Y90187D01*
X74413Y89880D01*
X74409Y89553D01*
X71876Y92086D01*
X72203Y92090D01*
X72798Y92143D01*
X73068Y92191D01*
X73317Y92254D01*
X73548Y92332D01*
X73760Y92425D01*
X73952Y92532D01*
X74125Y92655D01*
X74279Y92791D01*
X75114Y91956D01*
D02*
G37*
G36*
X200221Y87915D02*
X199386Y87080D01*
X198878Y87622D01*
X199385Y88714D01*
X200221Y87915D01*
D02*
G37*
G36*
X245273Y88075D02*
X247342D01*
X247230Y88061D01*
X247130Y88024D01*
X247041Y87963D01*
X246965Y87879D01*
X246900Y87771D01*
X246847Y87640D01*
X246805Y87485D01*
X246776Y87308D01*
X246758Y87107D01*
X246752Y86882D01*
X245571D01*
X245565Y87107D01*
X245547Y87308D01*
X245518Y87485D01*
X245476Y87640D01*
X245423Y87771D01*
X245358Y87879D01*
X245282Y87963D01*
X245193Y88024D01*
X245112Y88054D01*
X244951Y88030D01*
X244784Y87988D01*
X244617Y87929D01*
X244449Y87854D01*
X244283Y87762D01*
X244115Y87654D01*
X243949Y87529D01*
X243781Y87387D01*
X243614Y87228D01*
X242779Y88063D01*
X242938Y88230D01*
X243080Y88397D01*
X243205Y88564D01*
X243314Y88731D01*
X243406Y88898D01*
X243481Y89065D01*
X243539Y89232D01*
X243581Y89399D01*
X243606Y89566D01*
X243614Y89733D01*
X245273Y88075D01*
D02*
G37*
G36*
X205990Y87608D02*
X205890Y87571D01*
X205801Y87510D01*
X205724Y87426D01*
X205660Y87318D01*
X205606Y87187D01*
X205565Y87033D01*
X205571Y87008D01*
X205597Y86923D01*
X205628Y86847D01*
X205663Y86780D01*
X205703Y86721D01*
X205748Y86670D01*
X205519D01*
X205518Y86654D01*
X205512Y86429D01*
X204331D01*
X204325Y86654D01*
X204323Y86670D01*
X204095D01*
X204139Y86721D01*
X204180Y86780D01*
X204215Y86847D01*
X204246Y86923D01*
X204272Y87008D01*
X204277Y87033D01*
X204236Y87187D01*
X204183Y87318D01*
X204118Y87426D01*
X204041Y87510D01*
X203953Y87571D01*
X203852Y87608D01*
X203740Y87622D01*
X206102D01*
X205990Y87608D01*
D02*
G37*
G36*
X165784Y87783D02*
X165625Y87616D01*
X165483Y87449D01*
X165357Y87282D01*
X165247Y87115D01*
X165154Y86948D01*
X165078Y86781D01*
X165018Y86614D01*
X164974Y86447D01*
X164947Y86280D01*
X164937Y86113D01*
X163278Y87771D01*
X163445Y87782D01*
X163612Y87809D01*
X163779Y87853D01*
X163946Y87913D01*
X164113Y87989D01*
X164280Y88082D01*
X164447Y88191D01*
X164615Y88317D01*
X164782Y88460D01*
X164949Y88618D01*
X165784Y87783D01*
D02*
G37*
G36*
X246758Y83779D02*
X246776Y83578D01*
X246805Y83401D01*
X246847Y83248D01*
X246900Y83118D01*
X246965Y83012D01*
X247041Y82929D01*
X247130Y82870D01*
X247230Y82835D01*
X247342Y82823D01*
X244980D01*
X245093Y82835D01*
X245193Y82870D01*
X245282Y82929D01*
X245358Y83012D01*
X245423Y83118D01*
X245476Y83248D01*
X245518Y83401D01*
X245547Y83578D01*
X245565Y83779D01*
X245571Y84004D01*
X246752D01*
X246758Y83779D01*
D02*
G37*
G36*
X205078Y83667D02*
X205110Y83595D01*
X205165Y83532D01*
X205241Y83477D01*
X205340Y83430D01*
X205460Y83392D01*
X205602Y83362D01*
X205766Y83341D01*
X205951Y83328D01*
X206158Y83324D01*
Y82143D01*
X205951Y82138D01*
X205765Y82123D01*
X205601Y82098D01*
X205458Y82063D01*
X205337Y82017D01*
X205237Y81962D01*
X205159Y81897D01*
X205103Y81822D01*
X205068Y81737D01*
X205055Y81642D01*
X205067Y83748D01*
X205078Y83667D01*
D02*
G37*
G36*
X377545Y79498D02*
X377445Y79461D01*
X377356Y79400D01*
X377279Y79316D01*
X377215Y79208D01*
X377161Y79077D01*
X377120Y78923D01*
X377091Y78745D01*
X377073Y78544D01*
X377067Y78319D01*
X375886D01*
X375880Y78544D01*
X375862Y78745D01*
X375833Y78923D01*
X375791Y79077D01*
X375738Y79208D01*
X375673Y79316D01*
X375596Y79400D01*
X375508Y79461D01*
X375408Y79498D01*
X375295Y79512D01*
X377658D01*
X377545Y79498D01*
D02*
G37*
G36*
X230512Y87795D02*
X233268Y85039D01*
X237598D01*
Y77559D01*
X228543D01*
X221457Y84646D01*
Y85039D01*
X216339D01*
Y90551D01*
X230512D01*
Y87795D01*
D02*
G37*
G36*
X196724Y77652D02*
X196747Y77592D01*
X196777Y77533D01*
X196810Y77482D01*
X196651Y77506D01*
X196634Y77473D01*
X195453D01*
X195336Y77705D01*
X195175Y77730D01*
X195228Y77774D01*
X195275Y77828D01*
X194862Y78654D01*
X197224D01*
X196724Y77652D01*
D02*
G37*
G36*
X377073Y76693D02*
X377091Y76492D01*
X377120Y76315D01*
X377161Y76161D01*
X377215Y76031D01*
X377279Y75925D01*
X377356Y75842D01*
X377445Y75783D01*
X377545Y75748D01*
X377658Y75736D01*
X375295D01*
X375408Y75748D01*
X375508Y75783D01*
X375596Y75842D01*
X375673Y75925D01*
X375738Y76031D01*
X375791Y76161D01*
X375833Y76315D01*
X375862Y76492D01*
X375880Y76693D01*
X375886Y76917D01*
X377067D01*
X377073Y76693D01*
D02*
G37*
G36*
X164957Y77500D02*
X164982Y77333D01*
X165024Y77166D01*
X165082Y76999D01*
X165157Y76831D01*
X165249Y76664D01*
X165358Y76497D01*
X165483Y76330D01*
X165625Y76163D01*
X165784Y75996D01*
X164949Y75161D01*
X164782Y75320D01*
X164615Y75462D01*
X164447Y75587D01*
X164280Y75696D01*
X164113Y75788D01*
X163946Y75863D01*
X163779Y75921D01*
X163612Y75963D01*
X163445Y75988D01*
X163278Y75996D01*
X164949Y77667D01*
X164957Y77500D01*
D02*
G37*
G36*
X246264Y73936D02*
X246277Y73866D01*
X246300Y73794D01*
X246332Y73718D01*
X246373Y73640D01*
X246424Y73559D01*
X246484Y73475D01*
X246554Y73389D01*
X246721Y73209D01*
X245885Y72374D01*
X245794Y72462D01*
X245619Y72610D01*
X245535Y72670D01*
X245455Y72721D01*
X245376Y72763D01*
X245301Y72795D01*
X245228Y72817D01*
X245158Y72831D01*
X245091Y72835D01*
X246260Y74004D01*
X246264Y73936D01*
D02*
G37*
G36*
X241638Y73838D02*
X241651Y73768D01*
X241674Y73695D01*
X241706Y73620D01*
X241747Y73541D01*
X241798Y73461D01*
X241858Y73377D01*
X241928Y73291D01*
X242095Y73111D01*
X241260Y72275D01*
X241168Y72364D01*
X240993Y72512D01*
X240910Y72572D01*
X240829Y72623D01*
X240751Y72664D01*
X240675Y72696D01*
X240602Y72719D01*
X240532Y72732D01*
X240465Y72736D01*
X241634Y73905D01*
X241638Y73838D01*
D02*
G37*
G36*
X180512Y72132D02*
X180547Y72031D01*
X180606Y71943D01*
X180689Y71866D01*
X180795Y71801D01*
X180925Y71748D01*
X181079Y71707D01*
X181256Y71677D01*
X181456Y71659D01*
X181681Y71653D01*
Y70473D01*
X181456Y70467D01*
X181256Y70449D01*
X181079Y70419D01*
X180925Y70378D01*
X180795Y70325D01*
X180689Y70260D01*
X180606Y70183D01*
X180547Y70095D01*
X180512Y69994D01*
X180500Y69882D01*
Y72244D01*
X180512Y72132D01*
D02*
G37*
G36*
X175811Y69882D02*
X175797Y69994D01*
X175760Y70095D01*
X175699Y70183D01*
X175615Y70260D01*
X175507Y70325D01*
X175376Y70378D01*
X175222Y70419D01*
X175044Y70449D01*
X174843Y70467D01*
X174618Y70473D01*
Y71653D01*
X174843Y71659D01*
X175044Y71677D01*
X175222Y71707D01*
X175376Y71748D01*
X175507Y71801D01*
X175615Y71866D01*
X175699Y71943D01*
X175760Y72031D01*
X175797Y72132D01*
X175811Y72244D01*
Y69882D01*
D02*
G37*
G36*
X200400Y70787D02*
X200417Y70586D01*
X200447Y70408D01*
X200488Y70254D01*
X200541Y70123D01*
X200606Y70015D01*
X200683Y69931D01*
X200772Y69870D01*
X200872Y69833D01*
X200984Y69819D01*
X198622D01*
X198734Y69833D01*
X198835Y69870D01*
X198923Y69931D01*
X199000Y70015D01*
X199065Y70123D01*
X199118Y70254D01*
X199159Y70408D01*
X199189Y70586D01*
X199207Y70787D01*
X199213Y71012D01*
X200394D01*
X200400Y70787D01*
D02*
G37*
G36*
X378051Y69258D02*
X378086Y69157D01*
X378146Y69069D01*
X378228Y68992D01*
X378334Y68927D01*
X378464Y68874D01*
X378607Y68836D01*
X378681Y68856D01*
X378758Y68883D01*
X378826Y68915D01*
X378886Y68951D01*
X378938Y68991D01*
X378925Y68792D01*
X378996Y68785D01*
X379220Y68779D01*
Y67598D01*
X378996Y67593D01*
X378844Y67579D01*
X378828Y67342D01*
X378779Y67390D01*
X378722Y67434D01*
X378656Y67473D01*
X378582Y67506D01*
X378533Y67523D01*
X378464Y67504D01*
X378334Y67451D01*
X378228Y67386D01*
X378146Y67309D01*
X378086Y67220D01*
X378051Y67120D01*
X378039Y67008D01*
Y67595D01*
X377951Y67598D01*
X378039Y68735D01*
Y69370D01*
X378051Y69258D01*
D02*
G37*
G36*
X163470Y68514D02*
X163370Y68476D01*
X163282Y68415D01*
X163205Y68331D01*
X163140Y68224D01*
X163087Y68093D01*
X163045Y67938D01*
X163016Y67760D01*
X163007Y67664D01*
X163019Y67580D01*
X163040Y67485D01*
X163068Y67402D01*
X163101Y67331D01*
X163140Y67270D01*
X163185Y67220D01*
X163236Y67182D01*
X163294Y67155D01*
X161795Y66477D01*
X161798Y66497D01*
X161801Y66544D01*
X161808Y67450D01*
X161805Y67559D01*
X161787Y67760D01*
X161758Y67938D01*
X161716Y68093D01*
X161663Y68224D01*
X161598Y68331D01*
X161522Y68415D01*
X161433Y68476D01*
X161333Y68514D01*
X161221Y68528D01*
X163583D01*
X163470Y68514D01*
D02*
G37*
G36*
X200935Y67097D02*
X200849Y67063D01*
X200774Y67006D01*
X200709Y66928D01*
X200654Y66829D01*
X200609Y66707D01*
X200574Y66565D01*
X200549Y66400D01*
X200534Y66214D01*
X200529Y66007D01*
X199347D01*
X199343Y66214D01*
X199327Y66400D01*
X199302Y66565D01*
X199267Y66707D01*
X199222Y66829D01*
X199167Y66928D01*
X199102Y67006D01*
X199027Y67063D01*
X198942Y67097D01*
X198846Y67111D01*
X201030D01*
X200935Y67097D01*
D02*
G37*
G36*
X206874Y61575D02*
X206860Y61687D01*
X206823Y61787D01*
X206762Y61876D01*
X206678Y61953D01*
X206570Y62018D01*
X206439Y62071D01*
X206285Y62112D01*
X206107Y62142D01*
X205906Y62159D01*
X205681Y62165D01*
Y63346D01*
X205906Y63352D01*
X206107Y63370D01*
X206285Y63400D01*
X206439Y63441D01*
X206570Y63494D01*
X206678Y63559D01*
X206762Y63636D01*
X206823Y63724D01*
X206860Y63825D01*
X206874Y63937D01*
Y61575D01*
D02*
G37*
G36*
X380807Y84311D02*
X380726Y84114D01*
X374114D01*
X372244Y82244D01*
Y61024D01*
X361221D01*
Y67283D01*
X361221D01*
Y85098D01*
X367618Y91496D01*
X380807D01*
Y84311D01*
D02*
G37*
G36*
X364370Y89383D02*
X360653Y85666D01*
X360626Y85626D01*
X360433Y85433D01*
Y85176D01*
X360418Y85098D01*
Y67283D01*
X360418Y67283D01*
Y61024D01*
X356450D01*
X351946Y65528D01*
X351685Y65702D01*
X351393Y66004D01*
Y76378D01*
X351378Y76455D01*
Y77559D01*
X341535D01*
Y82284D01*
X341142Y82677D01*
X334169D01*
Y90945D01*
X351378D01*
Y92836D01*
X351393Y92913D01*
Y100000D01*
X364370D01*
Y89383D01*
D02*
G37*
G36*
X393110Y32645D02*
X392756Y32293D01*
X353058Y32543D01*
X353044Y32612D01*
X352450Y34045D01*
X351589Y35334D01*
X350492Y36431D01*
X349202Y37293D01*
X347769Y37886D01*
X346248Y38189D01*
X344697D01*
X343176Y37886D01*
X341743Y37293D01*
X340453Y36431D01*
X339356Y35334D01*
X338495Y34045D01*
X337912Y32638D01*
X323681Y32728D01*
X323423Y32835D01*
X322640D01*
X322401Y32736D01*
X315686Y32778D01*
X315549Y32835D01*
X314766D01*
X314645Y32785D01*
X306693Y32835D01*
X306693Y35633D01*
X315551Y43307D01*
Y64961D01*
X351378D01*
X356496Y59842D01*
X373425Y60236D01*
X377362D01*
X383661Y65748D01*
Y91102D01*
X378150Y96614D01*
Y110236D01*
X393110D01*
Y32645D01*
D02*
G37*
G36*
X227953Y65748D02*
Y50606D01*
X220291D01*
Y55807D01*
X220276Y55885D01*
Y57284D01*
X213583D01*
X213189Y56890D01*
Y39862D01*
X213666Y39386D01*
Y35630D01*
X213727Y35323D01*
X213901Y35062D01*
X214161Y34888D01*
X214469Y34827D01*
X218224D01*
X218504Y34547D01*
X232579D01*
Y31299D01*
X237598D01*
X238986Y29911D01*
X239264Y16696D01*
X238914Y16339D01*
X229429D01*
X229331Y16437D01*
X202165D01*
Y40474D01*
X202181Y40551D01*
Y58819D01*
X202362D01*
Y59350D01*
X206063D01*
Y59311D01*
X216299D01*
Y59350D01*
X216634D01*
Y66339D01*
X227362D01*
X227953Y65748D01*
D02*
G37*
G36*
X276911Y46673D02*
X276929Y46472D01*
X276959Y46294D01*
X277000Y46140D01*
X277053Y46009D01*
X277118Y45901D01*
X277195Y45817D01*
X277284Y45756D01*
X277384Y45718D01*
X277496Y45704D01*
X275134D01*
X275246Y45718D01*
X275346Y45756D01*
X275435Y45817D01*
X275512Y45901D01*
X275577Y46009D01*
X275630Y46140D01*
X275671Y46294D01*
X275701Y46472D01*
X275718Y46673D01*
X275724Y46897D01*
X276905D01*
X276911Y46673D01*
D02*
G37*
G36*
X254010D02*
X254028Y46472D01*
X254057Y46294D01*
X254098Y46140D01*
X254152Y46009D01*
X254217Y45901D01*
X254293Y45817D01*
X254382Y45756D01*
X254482Y45718D01*
X254594Y45704D01*
X252232D01*
X252344Y45718D01*
X252445Y45756D01*
X252534Y45817D01*
X252610Y45901D01*
X252675Y46009D01*
X252728Y46140D01*
X252770Y46294D01*
X252799Y46472D01*
X252817Y46673D01*
X252823Y46897D01*
X254004D01*
X254010Y46673D01*
D02*
G37*
G36*
X271457Y47244D02*
Y44882D01*
X258071D01*
Y52362D01*
X266339D01*
X271457Y47244D01*
D02*
G37*
G36*
X150000Y112598D02*
X165650D01*
Y98032D01*
X156496Y98032D01*
Y60630D01*
X201378D01*
Y40551D01*
X189469Y40551D01*
Y44882D01*
X141831D01*
Y126279D01*
X150000D01*
Y112598D01*
D02*
G37*
G36*
X274764Y37215D02*
X274750Y37327D01*
X274713Y37427D01*
X274652Y37516D01*
X274568Y37593D01*
X274460Y37657D01*
X274329Y37711D01*
X274174Y37752D01*
X273997Y37782D01*
X273796Y37799D01*
X273571Y37805D01*
Y38986D01*
X273796Y38992D01*
X273997Y39010D01*
X274174Y39039D01*
X274329Y39081D01*
X274460Y39134D01*
X274568Y39199D01*
X274652Y39276D01*
X274713Y39364D01*
X274750Y39465D01*
X274764Y39577D01*
Y37215D01*
D02*
G37*
G36*
X271393Y39465D02*
X271429Y39364D01*
X271488Y39276D01*
X271571Y39199D01*
X271677Y39134D01*
X271807Y39081D01*
X271960Y39039D01*
X272138Y39010D01*
X272338Y38992D01*
X272563Y38986D01*
Y37805D01*
X272338Y37799D01*
X272138Y37782D01*
X271960Y37752D01*
X271807Y37711D01*
X271677Y37657D01*
X271571Y37593D01*
X271488Y37516D01*
X271429Y37427D01*
X271393Y37327D01*
X271382Y37215D01*
Y39577D01*
X271393Y39465D01*
D02*
G37*
G36*
X258426Y37215D02*
X258412Y37327D01*
X258374Y37427D01*
X258313Y37516D01*
X258229Y37593D01*
X258121Y37657D01*
X257990Y37711D01*
X257836Y37752D01*
X257658Y37782D01*
X257457Y37799D01*
X257232Y37805D01*
Y38986D01*
X257457Y38992D01*
X257658Y39010D01*
X257836Y39039D01*
X257990Y39081D01*
X258121Y39134D01*
X258229Y39199D01*
X258313Y39276D01*
X258374Y39364D01*
X258412Y39465D01*
X258426Y39577D01*
Y37215D01*
D02*
G37*
G36*
X255045Y39465D02*
X255083Y39364D01*
X255143Y39276D01*
X255228Y39199D01*
X255335Y39134D01*
X255466Y39081D01*
X255621Y39039D01*
X255799Y39010D01*
X256000Y38992D01*
X256224Y38986D01*
Y37805D01*
X256000Y37799D01*
X255799Y37782D01*
X255621Y37752D01*
X255466Y37711D01*
X255335Y37657D01*
X255228Y37593D01*
X255143Y37516D01*
X255083Y37427D01*
X255045Y37327D01*
X255031Y37215D01*
Y39577D01*
X255045Y39465D01*
D02*
G37*
G36*
X219488Y49803D02*
X238583D01*
Y45768D01*
X230020D01*
Y35630D01*
X214469D01*
Y55807D01*
X219488D01*
Y49803D01*
D02*
G37*
G36*
X312008Y41517D02*
X305906Y36378D01*
Y36279D01*
X305906D01*
Y35739D01*
X305892Y35690D01*
X305896Y35661D01*
X305890Y35633D01*
X305890Y32835D01*
X304724D01*
Y36279D01*
X302559Y38445D01*
Y65512D01*
X312008D01*
X312008Y41517D01*
D02*
G37*
G36*
X307861Y28440D02*
X307888Y28273D01*
X307931Y28106D01*
X307991Y27939D01*
X308068Y27772D01*
X308161Y27605D01*
X308270Y27438D01*
X308396Y27271D01*
X308538Y27104D01*
X308697Y26937D01*
X307759Y26204D01*
X306705Y27040D01*
X307850Y28607D01*
X307861Y28440D01*
D02*
G37*
G36*
X278037Y26742D02*
X277937Y26705D01*
X277848Y26644D01*
X277772Y26560D01*
X277707Y26452D01*
X277654Y26321D01*
X277612Y26167D01*
X277583Y25989D01*
X277565Y25788D01*
X277559Y25563D01*
X276378D01*
X276372Y25788D01*
X276354Y25989D01*
X276325Y26167D01*
X276284Y26321D01*
X276230Y26452D01*
X276165Y26560D01*
X276089Y26644D01*
X276000Y26705D01*
X275900Y26742D01*
X275787Y26756D01*
X278150D01*
X278037Y26742D01*
D02*
G37*
G36*
X287092Y25955D02*
X286992Y25917D01*
X286904Y25857D01*
X286827Y25772D01*
X286762Y25665D01*
X286709Y25534D01*
X286667Y25379D01*
X286638Y25201D01*
X286620Y25000D01*
X286614Y24776D01*
X285433D01*
X285427Y25000D01*
X285410Y25201D01*
X285381Y25378D01*
X285340Y25532D01*
X285288Y25662D01*
X285225Y25768D01*
X285150Y25851D01*
X285063Y25910D01*
X284964Y25945D01*
X284855Y25957D01*
X287205Y25969D01*
X287092Y25955D01*
D02*
G37*
G36*
X254989Y25712D02*
X254954Y25652D01*
X254923Y25583D01*
X254897Y25506D01*
X254874Y25421D01*
X254856Y25327D01*
X254841Y25225D01*
X254825Y24995D01*
X254823Y24867D01*
X253642Y24753D01*
X253639Y24880D01*
X253618Y25107D01*
X253600Y25208D01*
X253576Y25299D01*
X253548Y25382D01*
X253514Y25456D01*
X253474Y25522D01*
X253430Y25578D01*
X253380Y25626D01*
X255028Y25764D01*
X254989Y25712D01*
D02*
G37*
G36*
X301756Y38445D02*
X301756Y38445D01*
X301817Y38138D01*
X301991Y37877D01*
X301991Y37877D01*
X303922Y35947D01*
Y32835D01*
X303937Y32757D01*
Y32067D01*
X304548D01*
X304724Y32032D01*
X305890D01*
X306066Y32067D01*
X306516D01*
X306537Y32063D01*
X306688Y32032D01*
X314640Y31982D01*
X314642Y31982D01*
X314645Y31982D01*
X314797Y32012D01*
X314900Y32032D01*
X315401D01*
X315530Y32006D01*
X315681Y31975D01*
X322396Y31933D01*
X322398Y31933D01*
X322401Y31933D01*
X322553Y31963D01*
X322704Y31992D01*
X322706Y31993D01*
X322708Y31994D01*
X322800Y32032D01*
X323263D01*
X323374Y31986D01*
X323525Y31956D01*
X323676Y31925D01*
X325590Y31913D01*
Y25354D01*
X317707D01*
X317913Y24185D01*
X316732D01*
X316726Y24410D01*
X316709Y24611D01*
X316679Y24789D01*
X316638Y24943D01*
X316585Y25074D01*
X316520Y25182D01*
X316443Y25266D01*
X316354Y25327D01*
X316281Y25354D01*
X310791D01*
X310364Y25547D01*
X310279Y25973D01*
X310038Y26333D01*
X309491Y26880D01*
X309500Y26917D01*
X309480Y27033D01*
X309471Y27152D01*
X309453Y27187D01*
X309446Y27226D01*
X309383Y27326D01*
X309330Y27431D01*
X309300Y27457D01*
X309279Y27490D01*
X309135Y27641D01*
X309023Y27773D01*
X308927Y27900D01*
X308848Y28021D01*
X308785Y28135D01*
X308735Y28243D01*
X308699Y28344D01*
X308674Y28439D01*
X308661Y28518D01*
Y30453D01*
X301969D01*
Y26240D01*
X302235D01*
Y25354D01*
X297902D01*
X297572Y25685D01*
X296848Y25984D01*
X296065D01*
X295342Y25685D01*
X295011Y25354D01*
X289469D01*
Y38937D01*
X301756D01*
Y38445D01*
D02*
G37*
G36*
X277565Y24527D02*
X277583Y24327D01*
X277612Y24149D01*
X277654Y23996D01*
X277707Y23866D01*
X277772Y23760D01*
X277848Y23677D01*
X277937Y23618D01*
X278037Y23583D01*
X278150Y23571D01*
X275787D01*
X275900Y23583D01*
X276000Y23618D01*
X276089Y23677D01*
X276165Y23760D01*
X276230Y23866D01*
X276284Y23996D01*
X276325Y24149D01*
X276354Y24327D01*
X276372Y24527D01*
X276378Y24752D01*
X277559D01*
X277565Y24527D01*
D02*
G37*
G36*
X270497Y24839D02*
X270533Y24279D01*
X270568Y24063D01*
X270610Y23886D01*
X270659Y23748D01*
X270717Y23649D01*
X270782Y23590D01*
X270854Y23571D01*
X268122D01*
X268195Y23590D01*
X268260Y23649D01*
X268317Y23748D01*
X268367Y23886D01*
X268408Y24063D01*
X268443Y24279D01*
X268470Y24535D01*
X268484Y24827D01*
X267728Y26744D01*
X271248D01*
X270497Y24839D01*
D02*
G37*
G36*
X254826Y23386D02*
X254868Y22854D01*
X254894Y22724D01*
X254925Y22618D01*
X254962Y22535D01*
X255004Y22476D01*
X255052Y22441D01*
X255106Y22429D01*
X253555D01*
X253572Y22441D01*
X253586Y22476D01*
X253599Y22535D01*
X253611Y22618D01*
X253628Y22854D01*
X253642Y23610D01*
X254823D01*
X254826Y23386D01*
D02*
G37*
G36*
X317919Y22953D02*
X317937Y22752D01*
X317967Y22575D01*
X318008Y22421D01*
X318061Y22291D01*
X318126Y22185D01*
X318203Y22102D01*
X318291Y22043D01*
X318392Y22008D01*
X318504Y21996D01*
X316142D01*
X316254Y22008D01*
X316354Y22043D01*
X316443Y22102D01*
X316520Y22185D01*
X316585Y22291D01*
X316638Y22421D01*
X316679Y22575D01*
X316709Y22752D01*
X316726Y22953D01*
X316732Y23177D01*
X317913D01*
X317919Y22953D01*
D02*
G37*
G36*
X309848D02*
X309866Y22752D01*
X309896Y22575D01*
X309937Y22421D01*
X309990Y22291D01*
X310055Y22185D01*
X310132Y22102D01*
X310221Y22043D01*
X310321Y22008D01*
X310433Y21996D01*
X308477D01*
X308512Y22008D01*
X308543Y22043D01*
X308571Y22102D01*
X308595Y22185D01*
X308615Y22291D01*
X308632Y22421D01*
X308654Y22752D01*
X308661Y23177D01*
X309842D01*
X309848Y22953D01*
D02*
G37*
G36*
X303943D02*
X303960Y22752D01*
X303989Y22575D01*
X304030Y22421D01*
X304082Y22291D01*
X304145Y22185D01*
X304221Y22102D01*
X304307Y22043D01*
X304406Y22008D01*
X304516Y21996D01*
X302165Y21984D01*
X302278Y21998D01*
X302378Y22035D01*
X302467Y22096D01*
X302543Y22181D01*
X302608Y22288D01*
X302661Y22419D01*
X302703Y22573D01*
X302732Y22751D01*
X302750Y22952D01*
X302756Y23177D01*
X303937D01*
X303943Y22953D01*
D02*
G37*
G36*
X297047Y23172D02*
X297284D01*
X297239Y23122D01*
X297198Y23063D01*
X297163Y22995D01*
X297132Y22919D01*
X297106Y22835D01*
X297085Y22741D01*
X297069Y22640D01*
X297057Y22530D01*
X297047Y22284D01*
X297038D01*
X297035Y21996D01*
X295276Y21984D01*
X295388Y21998D01*
X295488Y22035D01*
X295577Y22096D01*
X295654Y22181D01*
X295719Y22288D01*
X295772Y22419D01*
X295813Y22573D01*
X295834Y22703D01*
X295828Y22741D01*
X295807Y22835D01*
X295781Y22919D01*
X295750Y22995D01*
X295715Y23063D01*
X295675Y23122D01*
X295630Y23172D01*
X295866D01*
X295866Y23177D01*
X297047D01*
X297047Y23172D01*
D02*
G37*
G36*
X280456Y20197D02*
X280405Y20242D01*
X280346Y20282D01*
X280279Y20317D01*
X280203Y20348D01*
X280118Y20374D01*
X280025Y20395D01*
X279923Y20412D01*
X279813Y20424D01*
X279568Y20433D01*
Y21614D01*
X279695Y21617D01*
X279923Y21635D01*
X280025Y21652D01*
X280118Y21673D01*
X280203Y21699D01*
X280279Y21730D01*
X280346Y21765D01*
X280405Y21805D01*
X280456Y21850D01*
Y20197D01*
D02*
G37*
G36*
X278337Y22093D02*
X278374Y21992D01*
X278435Y21903D01*
X278519Y21827D01*
X278627Y21762D01*
X278758Y21709D01*
X278912Y21667D01*
X279090Y21638D01*
X279291Y21620D01*
X279516Y21614D01*
Y20433D01*
X279291Y20427D01*
X279090Y20410D01*
X278912Y20380D01*
X278758Y20339D01*
X278627Y20285D01*
X278519Y20221D01*
X278435Y20144D01*
X278374Y20055D01*
X278337Y19955D01*
X278322Y19842D01*
Y22205D01*
X278337Y22093D01*
D02*
G37*
G36*
X244882Y17028D02*
X240748D01*
Y32480D01*
X233465D01*
Y42717D01*
X244882D01*
Y17028D01*
D02*
G37*
G36*
X270472Y16508D02*
X268504D01*
X268122Y18477D01*
X270854D01*
X270472Y16508D01*
D02*
G37*
G36*
X311010Y16900D02*
X310909Y16862D01*
X310821Y16801D01*
X310744Y16717D01*
X310679Y16610D01*
X310626Y16478D01*
X310585Y16324D01*
X310555Y16146D01*
X310537Y15945D01*
X310531Y15721D01*
X309350D01*
X309345Y15945D01*
X309327Y16146D01*
X309297Y16324D01*
X309256Y16478D01*
X309203Y16610D01*
X309138Y16717D01*
X309061Y16801D01*
X308972Y16862D01*
X308872Y16900D01*
X308760Y16914D01*
X311122D01*
X311010Y16900D01*
D02*
G37*
G36*
X310537Y14685D02*
X310555Y14484D01*
X310585Y14307D01*
X310626Y14153D01*
X310679Y14023D01*
X310744Y13917D01*
X310821Y13835D01*
X310909Y13775D01*
X311010Y13740D01*
X311122Y13728D01*
X308760D01*
X308872Y13740D01*
X308972Y13775D01*
X309061Y13835D01*
X309138Y13917D01*
X309203Y14023D01*
X309256Y14153D01*
X309297Y14307D01*
X309327Y14484D01*
X309345Y14685D01*
X309350Y14909D01*
X310531D01*
X310537Y14685D01*
D02*
G37*
G36*
X269884Y12193D02*
X269619Y11922D01*
X268991Y11206D01*
X268837Y10999D01*
X268710Y10807D01*
X268611Y10632D01*
X268540Y10472D01*
X268496Y10328D01*
X268480Y10200D01*
X266499Y12181D01*
X266628Y12197D01*
X266771Y12241D01*
X266931Y12312D01*
X267107Y12411D01*
X267298Y12538D01*
X267505Y12692D01*
X267967Y13083D01*
X268492Y13585D01*
X269884Y12193D01*
D02*
G37*
G36*
X301205Y10000D02*
X301191Y10112D01*
X301153Y10213D01*
X301093Y10301D01*
X301008Y10378D01*
X300901Y10443D01*
X300770Y10496D01*
X300616Y10537D01*
X300438Y10567D01*
X300237Y10585D01*
X300012Y10591D01*
Y11772D01*
X300237Y11778D01*
X300438Y11795D01*
X300616Y11825D01*
X300770Y11866D01*
X300901Y11919D01*
X301008Y11984D01*
X301093Y12061D01*
X301153Y12150D01*
X301191Y12250D01*
X301205Y12362D01*
Y10000D01*
D02*
G37*
G36*
X250221Y6850D02*
X250199Y7037D01*
X250138Y7205D01*
X250038Y7352D01*
X249898Y7480D01*
X249720Y7589D01*
X249502Y7677D01*
X249245Y7746D01*
X249213Y7751D01*
X249181Y7746D01*
X248925Y7677D01*
X248709Y7589D01*
X248531Y7480D01*
X248394Y7352D01*
X248295Y7205D01*
X248236Y7037D01*
X248216Y6850D01*
Y10787D01*
X248236Y10600D01*
X248295Y10433D01*
X248394Y10285D01*
X248531Y10158D01*
X248709Y10049D01*
X248925Y9961D01*
X249181Y9892D01*
X249213Y9886D01*
X249245Y9892D01*
X249502Y9961D01*
X249720Y10049D01*
X249898Y10158D01*
X250038Y10285D01*
X250138Y10433D01*
X250199Y10600D01*
X250221Y10787D01*
Y6850D01*
D02*
G37*
G36*
X259473D02*
X259451Y7037D01*
X259390Y7205D01*
X259290Y7352D01*
X259150Y7480D01*
X258972Y7589D01*
X258754Y7677D01*
X258497Y7746D01*
X258367Y7768D01*
X258236Y7746D01*
X257980Y7677D01*
X257764Y7589D01*
X257586Y7480D01*
X257449Y7352D01*
X257350Y7205D01*
X257291Y7037D01*
X257272Y6850D01*
Y10787D01*
X257291Y10600D01*
X257350Y10433D01*
X257449Y10285D01*
X257586Y10158D01*
X257764Y10049D01*
X257980Y9961D01*
X258236Y9892D01*
X258367Y9870D01*
X258497Y9892D01*
X258754Y9961D01*
X258972Y10049D01*
X259150Y10158D01*
X259290Y10285D01*
X259390Y10433D01*
X259451Y10600D01*
X259473Y10787D01*
Y6850D01*
D02*
G37*
G36*
X241166D02*
X241144Y7037D01*
X241083Y7205D01*
X240983Y7352D01*
X240843Y7480D01*
X240665Y7589D01*
X240447Y7677D01*
X240190Y7746D01*
X240059Y7768D01*
X239928Y7746D01*
X239671Y7677D01*
X239454Y7589D01*
X239275Y7480D01*
X239136Y7352D01*
X239035Y7205D01*
X238974Y7037D01*
X238952Y6850D01*
Y10787D01*
X238974Y10600D01*
X239035Y10433D01*
X239136Y10285D01*
X239275Y10158D01*
X239454Y10049D01*
X239671Y9961D01*
X239928Y9892D01*
X240059Y9870D01*
X240190Y9892D01*
X240447Y9961D01*
X240665Y10049D01*
X240843Y10158D01*
X240983Y10285D01*
X241083Y10433D01*
X241144Y10600D01*
X241166Y10787D01*
Y6850D01*
D02*
G37*
%LPC*%
G36*
X308071Y140555D02*
X304528D01*
X304373Y140540D01*
X304281Y140512D01*
X303740D01*
Y139803D01*
X303736Y139764D01*
Y134186D01*
X302098Y132548D01*
X302000Y132428D01*
X301926Y132291D01*
X301882Y132142D01*
X301866Y131988D01*
Y125591D01*
X301882Y125436D01*
X301926Y125288D01*
X301969Y125209D01*
Y124862D01*
X302350D01*
X302355Y124860D01*
X302503Y124814D01*
X302658Y124799D01*
X306102D01*
X306257Y124814D01*
X306405Y124860D01*
X306410Y124862D01*
X306890D01*
Y125552D01*
X306894Y125591D01*
Y131168D01*
X308630Y132905D01*
X308729Y133025D01*
X308802Y133162D01*
X308847Y133310D01*
X308862Y133465D01*
Y139764D01*
X308858Y139803D01*
Y140512D01*
X308317D01*
X308225Y140540D01*
X308071Y140555D01*
D02*
G37*
%LPD*%
G36*
Y133465D02*
X306102Y131496D01*
Y125591D01*
X302658D01*
Y131988D01*
X304528Y133858D01*
Y139764D01*
X308071D01*
Y133465D01*
D02*
G37*
%LPC*%
G36*
X194471Y233720D02*
X193719D01*
X192993Y233526D01*
X192342Y233150D01*
X191811Y232619D01*
X191435Y231968D01*
X191241Y231242D01*
Y230490D01*
X191435Y229764D01*
X191811Y229114D01*
X192342Y228582D01*
X192993Y228206D01*
X193719Y228012D01*
X194471D01*
X195197Y228206D01*
X195848Y228582D01*
X196379Y229114D01*
X196755Y229764D01*
X196949Y230490D01*
Y231242D01*
X196755Y231968D01*
X196379Y232619D01*
X195848Y233150D01*
X195197Y233526D01*
X194471Y233720D01*
D02*
G37*
G36*
X178723D02*
X177971D01*
X177245Y233526D01*
X176594Y233150D01*
X176063Y232619D01*
X175687Y231968D01*
X175493Y231242D01*
Y230490D01*
X175687Y229764D01*
X176063Y229114D01*
X176594Y228582D01*
X177245Y228206D01*
X177971Y228012D01*
X178723D01*
X179449Y228206D01*
X180099Y228582D01*
X180631Y229114D01*
X181007Y229764D01*
X181201Y230490D01*
Y231242D01*
X181007Y231968D01*
X180631Y232619D01*
X180099Y233150D01*
X179449Y233526D01*
X178723Y233720D01*
D02*
G37*
G36*
X170849D02*
X170097D01*
X169371Y233526D01*
X168720Y233150D01*
X168189Y232619D01*
X167813Y231968D01*
X167619Y231242D01*
Y230490D01*
X167813Y229764D01*
X168189Y229114D01*
X168720Y228582D01*
X169371Y228206D01*
X170097Y228012D01*
X170849D01*
X171575Y228206D01*
X172225Y228582D01*
X172757Y229114D01*
X173133Y229764D01*
X173327Y230490D01*
Y231242D01*
X173133Y231968D01*
X172757Y232619D01*
X172225Y233150D01*
X171575Y233526D01*
X170849Y233720D01*
D02*
G37*
G36*
X162975D02*
X162223D01*
X161497Y233526D01*
X160846Y233150D01*
X160315Y232619D01*
X159939Y231968D01*
X159745Y231242D01*
Y230490D01*
X159939Y229764D01*
X160315Y229114D01*
X160846Y228582D01*
X161497Y228206D01*
X162223Y228012D01*
X162975D01*
X163701Y228206D01*
X164351Y228582D01*
X164883Y229114D01*
X165259Y229764D01*
X165453Y230490D01*
Y231242D01*
X165259Y231968D01*
X164883Y232619D01*
X164351Y233150D01*
X163701Y233526D01*
X162975Y233720D01*
D02*
G37*
G36*
X155101D02*
X154349D01*
X153623Y233526D01*
X152972Y233150D01*
X152441Y232619D01*
X152065Y231968D01*
X151871Y231242D01*
Y230490D01*
X152065Y229764D01*
X152441Y229114D01*
X152972Y228582D01*
X153623Y228206D01*
X154349Y228012D01*
X155101D01*
X155827Y228206D01*
X156477Y228582D01*
X157009Y229114D01*
X157385Y229764D01*
X157579Y230490D01*
Y231242D01*
X157385Y231968D01*
X157009Y232619D01*
X156477Y233150D01*
X155827Y233526D01*
X155101Y233720D01*
D02*
G37*
G36*
X147227D02*
X146475D01*
X145749Y233526D01*
X145098Y233150D01*
X144567Y232619D01*
X144191Y231968D01*
X143997Y231242D01*
Y230490D01*
X144191Y229764D01*
X144567Y229114D01*
X145098Y228582D01*
X145749Y228206D01*
X146475Y228012D01*
X147227D01*
X147953Y228206D01*
X148603Y228582D01*
X149135Y229114D01*
X149511Y229764D01*
X149705Y230490D01*
Y231242D01*
X149511Y231968D01*
X149135Y232619D01*
X148603Y233150D01*
X147953Y233526D01*
X147227Y233720D01*
D02*
G37*
G36*
X139353D02*
X138601D01*
X137875Y233526D01*
X137224Y233150D01*
X136693Y232619D01*
X136317Y231968D01*
X136123Y231242D01*
Y230490D01*
X136317Y229764D01*
X136693Y229114D01*
X137224Y228582D01*
X137875Y228206D01*
X138601Y228012D01*
X139353D01*
X140078Y228206D01*
X140729Y228582D01*
X141261Y229114D01*
X141637Y229764D01*
X141831Y230490D01*
Y231242D01*
X141637Y231968D01*
X141261Y232619D01*
X140729Y233150D01*
X140078Y233526D01*
X139353Y233720D01*
D02*
G37*
G36*
X346191Y62024D02*
X345972D01*
Y55224D01*
X352772D01*
Y55443D01*
X352491Y56853D01*
X351941Y58182D01*
X351142Y59377D01*
X350125Y60394D01*
X348930Y61193D01*
X347602Y61743D01*
X346191Y62024D01*
D02*
G37*
G36*
X344972D02*
X344754D01*
X343343Y61743D01*
X342015Y61193D01*
X340820Y60394D01*
X339803Y59377D01*
X339004Y58182D01*
X338454Y56853D01*
X338173Y55443D01*
Y55224D01*
X344972D01*
Y62024D01*
D02*
G37*
G36*
X352772Y54224D02*
X345972D01*
Y47425D01*
X346191D01*
X347602Y47706D01*
X348930Y48256D01*
X350125Y49055D01*
X351142Y50071D01*
X351941Y51267D01*
X352491Y52595D01*
X352772Y54005D01*
Y54224D01*
D02*
G37*
G36*
X344972D02*
X338173D01*
Y54005D01*
X338454Y52595D01*
X339004Y51267D01*
X339803Y50071D01*
X340820Y49055D01*
X342015Y48256D01*
X343343Y47706D01*
X344754Y47425D01*
X344972D01*
Y54224D01*
D02*
G37*
G36*
X323029Y55512D02*
X322246D01*
X321523Y55212D01*
X320969Y54658D01*
X320669Y53935D01*
Y53152D01*
X320759Y52935D01*
X320481Y52520D01*
X319291D01*
Y47402D01*
X325984D01*
Y52520D01*
X324795D01*
X324517Y52935D01*
X324606Y53152D01*
Y53935D01*
X324307Y54658D01*
X323753Y55212D01*
X323029Y55512D01*
D02*
G37*
G36*
X364655Y49016D02*
X363298D01*
X361967Y48751D01*
X360713Y48232D01*
X359584Y47478D01*
X358625Y46518D01*
X357871Y45390D01*
X357351Y44136D01*
X357087Y42805D01*
Y41447D01*
X357351Y40116D01*
X357871Y38862D01*
X358625Y37734D01*
X359584Y36774D01*
X360713Y36020D01*
X361967Y35501D01*
X363298Y35236D01*
X364655D01*
X365986Y35501D01*
X367240Y36020D01*
X368368Y36774D01*
X369328Y37734D01*
X370082Y38862D01*
X370601Y40116D01*
X370866Y41447D01*
Y42805D01*
X370601Y44136D01*
X370082Y45390D01*
X369328Y46518D01*
X368368Y47478D01*
X367240Y48232D01*
X365986Y48751D01*
X364655Y49016D01*
D02*
G37*
%LPD*%
G36*
X323234Y52700D02*
X323465D01*
X323420Y52649D01*
X323379Y52590D01*
X323344Y52523D01*
X323313Y52447D01*
X323287Y52362D01*
X323278Y52320D01*
X323282Y52298D01*
X323323Y52144D01*
X323376Y52012D01*
X323441Y51905D01*
X323518Y51821D01*
X323606Y51760D01*
X323707Y51722D01*
X323819Y51708D01*
X321457D01*
X321569Y51722D01*
X321669Y51760D01*
X321758Y51821D01*
X321835Y51905D01*
X321900Y52012D01*
X321953Y52144D01*
X321994Y52298D01*
X321998Y52320D01*
X321988Y52362D01*
X321962Y52447D01*
X321932Y52523D01*
X321896Y52590D01*
X321856Y52649D01*
X321811Y52700D01*
X322042D01*
X322047Y52901D01*
X323228D01*
X323234Y52700D01*
D02*
G37*
D12*
X160630Y137008D02*
X160630Y137008D01*
Y132835D02*
Y137008D01*
Y132835D02*
X160630Y132835D01*
X181040Y123251D02*
X181201Y123091D01*
X175469Y123251D02*
X181040D01*
X175394Y123327D02*
X175469Y123251D01*
X152779Y131867D02*
X152854Y131791D01*
X148606Y131867D02*
X152779D01*
X148524Y131949D02*
X148606Y131867D01*
X217323Y203150D02*
Y206693D01*
X234252Y215748D02*
X234252Y215748D01*
X234252Y212205D02*
Y215748D01*
X233465Y203150D02*
X233525Y203210D01*
Y207026D01*
X233586Y207087D01*
X250394Y212205D02*
Y212795D01*
X252681Y215082D02*
Y215279D01*
X250394Y212795D02*
X252681Y215082D01*
Y215279D02*
X252756Y215354D01*
X252953Y205996D02*
X253937Y206980D01*
X252756Y203150D02*
X252953Y203346D01*
Y205996D01*
X253937Y206980D02*
Y207087D01*
X268898Y203150D02*
Y207087D01*
X270079Y215748D02*
X270079Y215748D01*
X270079Y211614D02*
Y215748D01*
X287008Y212205D02*
X289370D01*
X164764Y122402D02*
X167641Y119524D01*
X169846D01*
X169921Y119449D01*
X164370Y123386D02*
X164764Y122992D01*
Y122402D02*
Y122992D01*
X287008Y212205D02*
X287087Y212126D01*
X201083Y163248D02*
X201870Y162461D01*
X199659Y163885D02*
X200295Y163248D01*
X198477Y163885D02*
X199659D01*
X201870Y161673D02*
Y162461D01*
X200295Y163248D02*
X201083D01*
X198327Y164035D02*
X198477Y163885D01*
X198228Y44153D02*
X198228Y44154D01*
X269488Y13189D02*
Y29291D01*
X264764Y8465D02*
X269488Y13189D01*
X263976Y8465D02*
X264764D01*
X244685D02*
X245039Y8819D01*
X253386D01*
X253740Y8465D01*
X254095Y8819D01*
X263622D01*
X263976Y8465D01*
X234449D02*
X234803Y8819D01*
X244331D01*
X244685Y8465D01*
X153839Y109409D02*
X163386D01*
X152264D02*
X153445D01*
X304897Y109803D02*
X305201Y110106D01*
X305307D01*
X296949Y109803D02*
X304897D01*
X192792Y54567D02*
X194052Y53307D01*
X192792Y54567D02*
Y55200D01*
X192717Y55276D02*
X192792Y55200D01*
X194052Y53307D02*
X198228D01*
Y60590D01*
X198622Y60984D01*
X199016D01*
X198228Y44154D02*
Y53307D01*
D16*
X217323Y203150D02*
D03*
X223228D02*
D03*
X233465D02*
D03*
X227559D02*
D03*
X234252Y212205D02*
D03*
X240158D02*
D03*
X250394D02*
D03*
X244488D02*
D03*
X252756Y203150D02*
D03*
X258661D02*
D03*
X268898D02*
D03*
X262992D02*
D03*
X270079Y212205D02*
D03*
X275984D02*
D03*
X286221D02*
D03*
X280315D02*
D03*
D17*
X148524Y131949D02*
D03*
Y124469D02*
D03*
X315158Y34606D02*
D03*
Y27126D02*
D03*
X323031Y34606D02*
D03*
Y27126D02*
D03*
X236024Y34213D02*
D03*
Y26732D02*
D03*
X246161Y122500D02*
D03*
Y129980D02*
D03*
Y144153D02*
D03*
Y136673D02*
D03*
X181201Y130571D02*
D03*
Y123091D02*
D03*
X228051Y96319D02*
D03*
Y88839D02*
D03*
X322638Y42480D02*
D03*
Y49961D02*
D03*
X334449Y138150D02*
D03*
Y130669D02*
D03*
X162402Y77756D02*
D03*
Y70276D02*
D03*
Y86024D02*
D03*
Y93504D02*
D03*
X218996Y96516D02*
D03*
Y89035D02*
D03*
D18*
X307283Y53701D02*
D03*
X287598D02*
D03*
D19*
X178150Y71063D02*
D03*
Y92716D02*
D03*
D20*
X348721Y72500D02*
D03*
X357776D02*
D03*
X366831D02*
D03*
X216339Y44153D02*
D03*
X207283D02*
D03*
X198228D02*
D03*
D21*
X357776Y96516D02*
D03*
X207283Y20138D02*
D03*
D22*
X303346Y28346D02*
D03*
X305315D02*
D03*
X307283D02*
D03*
X303346Y34173D02*
D03*
X305315D02*
D03*
X307283D02*
D03*
D23*
X340846Y114035D02*
D03*
Y108917D02*
D03*
X348327Y114035D02*
D03*
Y111476D02*
D03*
Y108917D02*
D03*
X96063Y203504D02*
D03*
Y200945D02*
D03*
Y198386D02*
D03*
X103543Y203504D02*
D03*
Y200945D02*
D03*
Y198386D02*
D03*
D24*
X156890Y123386D02*
D03*
X160630D02*
D03*
X164370D02*
D03*
X156890Y132835D02*
D03*
X160630D02*
D03*
X164370D02*
D03*
D25*
X191189Y114921D02*
D03*
Y116890D02*
D03*
Y118858D02*
D03*
Y120827D02*
D03*
Y122795D02*
D03*
Y124764D02*
D03*
Y126732D02*
D03*
Y128701D02*
D03*
Y130669D02*
D03*
Y132638D02*
D03*
Y134606D02*
D03*
Y136575D02*
D03*
Y138543D02*
D03*
Y140512D02*
D03*
Y142480D02*
D03*
Y144449D02*
D03*
X236370D02*
D03*
Y142480D02*
D03*
Y140512D02*
D03*
Y138543D02*
D03*
Y136575D02*
D03*
Y134606D02*
D03*
Y132638D02*
D03*
Y130669D02*
D03*
Y128701D02*
D03*
Y126732D02*
D03*
Y124764D02*
D03*
Y122795D02*
D03*
Y120827D02*
D03*
Y118858D02*
D03*
Y116890D02*
D03*
Y114921D02*
D03*
D26*
X199016Y152276D02*
D03*
X200984D02*
D03*
X202953D02*
D03*
X204921D02*
D03*
X206890D02*
D03*
X208858D02*
D03*
X210827D02*
D03*
X212795D02*
D03*
X214764D02*
D03*
X216732D02*
D03*
X218701D02*
D03*
X220669D02*
D03*
X222638D02*
D03*
X224606D02*
D03*
X226575D02*
D03*
X228543D02*
D03*
Y107095D02*
D03*
X226575D02*
D03*
X224606D02*
D03*
X222638D02*
D03*
X220669D02*
D03*
X218701D02*
D03*
X216732D02*
D03*
X214764D02*
D03*
X212795D02*
D03*
X210827D02*
D03*
X208858D02*
D03*
X206890D02*
D03*
X204921D02*
D03*
X202953D02*
D03*
X200984D02*
D03*
X199016D02*
D03*
D27*
X355020Y107874D02*
D03*
Y113386D02*
D03*
D28*
X364961Y107244D02*
D03*
X372441D02*
D03*
X372441D02*
D03*
X379921D02*
D03*
X309842Y19449D02*
D03*
X317323D02*
D03*
X302559Y11181D02*
D03*
X310039D02*
D03*
X118898Y200945D02*
D03*
X111417D02*
D03*
X81102D02*
D03*
X88583D02*
D03*
X369094Y124961D02*
D03*
X361614D02*
D03*
X348425Y121653D02*
D03*
X340945D02*
D03*
X327559Y137165D02*
D03*
X320079D02*
D03*
X68110Y116693D02*
D03*
X75590D02*
D03*
X87795D02*
D03*
X95276D02*
D03*
X107480D02*
D03*
X114961D02*
D03*
X127165D02*
D03*
X134646D02*
D03*
X156890Y140551D02*
D03*
X164370D02*
D03*
X164370Y148819D02*
D03*
X156890D02*
D03*
X269488Y21024D02*
D03*
X276969D02*
D03*
X203701Y81201D02*
D03*
X196221D02*
D03*
D29*
X376476Y88346D02*
D03*
Y80866D02*
D03*
X334252Y106457D02*
D03*
Y113937D02*
D03*
X131693Y173189D02*
D03*
Y180669D02*
D03*
X123031Y173189D02*
D03*
Y180669D02*
D03*
X79724Y173189D02*
D03*
Y180669D02*
D03*
X71063Y173189D02*
D03*
Y180669D02*
D03*
X88386Y173189D02*
D03*
Y180669D02*
D03*
X105709Y173189D02*
D03*
Y180669D02*
D03*
X297047Y135787D02*
D03*
Y143268D02*
D03*
X97047Y173189D02*
D03*
Y180669D02*
D03*
X326083Y109803D02*
D03*
Y117283D02*
D03*
Y130276D02*
D03*
Y122795D02*
D03*
X296949Y109803D02*
D03*
Y117283D02*
D03*
Y130276D02*
D03*
Y122795D02*
D03*
X114370Y173189D02*
D03*
Y180669D02*
D03*
X260961Y46024D02*
D03*
Y38543D02*
D03*
X268835Y46024D02*
D03*
Y38543D02*
D03*
X237106Y96909D02*
D03*
Y89429D02*
D03*
X153445Y109409D02*
D03*
Y116890D02*
D03*
X162205Y109409D02*
D03*
Y116890D02*
D03*
X236024Y48779D02*
D03*
Y41299D02*
D03*
X199016Y68465D02*
D03*
Y60984D02*
D03*
X246161Y89429D02*
D03*
Y96909D02*
D03*
D30*
X376476Y74173D02*
D03*
X253480Y38248D02*
D03*
X276315D02*
D03*
D31*
X376476Y68268D02*
D03*
X253480Y44154D02*
D03*
X276315D02*
D03*
D32*
X354291Y180709D02*
D03*
Y178740D02*
D03*
Y176772D02*
D03*
Y174803D02*
D03*
Y172835D02*
D03*
Y170866D02*
D03*
Y168898D02*
D03*
Y166929D02*
D03*
Y164961D02*
D03*
Y162992D02*
D03*
Y161024D02*
D03*
Y159055D02*
D03*
Y157087D02*
D03*
Y155118D02*
D03*
Y153150D02*
D03*
Y151181D02*
D03*
Y149213D02*
D03*
Y147244D02*
D03*
Y145276D02*
D03*
D33*
X244094Y19685D02*
D03*
X246654D02*
D03*
X249213D02*
D03*
X251772D02*
D03*
X254331D02*
D03*
D34*
X234449Y8465D02*
D03*
X263976D02*
D03*
D35*
X244685D02*
D03*
X253740D02*
D03*
D36*
X288976Y143307D02*
D03*
Y130433D02*
D03*
D37*
X336811Y75709D02*
D03*
Y86811D02*
D03*
X226575Y39961D02*
D03*
Y28858D02*
D03*
D38*
X286614Y28504D02*
D03*
X294094D02*
D03*
X286614Y36378D02*
D03*
X294094D02*
D03*
X181791Y147795D02*
D03*
X174311D02*
D03*
X216929Y53307D02*
D03*
X224410D02*
D03*
X181791Y138740D02*
D03*
X174311D02*
D03*
X201870Y161673D02*
D03*
X194390D02*
D03*
X222736Y161279D02*
D03*
X230217D02*
D03*
X181398Y111673D02*
D03*
X173917D02*
D03*
X302756Y19449D02*
D03*
X295276D02*
D03*
X198228Y53307D02*
D03*
X205709D02*
D03*
X366142Y63937D02*
D03*
X358661D02*
D03*
X369882Y116378D02*
D03*
X362402D02*
D03*
X313779Y137165D02*
D03*
X306299D02*
D03*
X269488Y29291D02*
D03*
X276969D02*
D03*
X197638Y90158D02*
D03*
X205118D02*
D03*
D39*
X179665Y157343D02*
D03*
X168563D02*
D03*
X244193Y80177D02*
D03*
X233091D02*
D03*
X211181Y62756D02*
D03*
X222284D02*
D03*
D40*
X304429Y126634D02*
D03*
Y118563D02*
D03*
X318602Y126634D02*
D03*
Y118563D02*
D03*
D41*
X304429Y123878D02*
D03*
Y121319D02*
D03*
X318602Y123878D02*
D03*
Y121319D02*
D03*
D82*
X71850Y89527D02*
D03*
Y81653D02*
D03*
Y97401D02*
D03*
X130905Y89527D02*
D03*
Y81653D02*
D03*
Y97401D02*
D03*
X111221D02*
D03*
Y81653D02*
D03*
Y89527D02*
D03*
X91535Y97401D02*
D03*
Y81653D02*
D03*
Y89527D02*
D03*
D84*
X164370Y132835D02*
X164370Y132835D01*
X164370Y132835D02*
Y140551D01*
X164370Y140551D02*
X164370Y140551D01*
X156890Y140551D02*
Y148819D01*
X156890Y140551D02*
X156890Y140551D01*
X156890Y140551D02*
X156890Y140551D01*
Y132835D02*
Y140551D01*
Y132835D02*
X156890Y132835D01*
X158730Y129439D02*
X171742D01*
X157677Y130492D02*
X158730Y129439D01*
X157677Y130492D02*
Y132047D01*
X156890Y132835D02*
X157677Y132047D01*
X171742Y129439D02*
X173760Y127421D01*
X206158Y82733D02*
X208858Y85433D01*
Y107095D01*
X214764Y99961D02*
Y107095D01*
Y99961D02*
X218209Y96516D01*
X376555Y68189D02*
X379646D01*
X376476Y68268D02*
X376555Y68189D01*
X379646D02*
X379724Y68110D01*
X322638Y49961D02*
Y53543D01*
X81890Y227126D02*
X85630Y230866D01*
X81890Y201732D02*
Y227126D01*
X81102Y200945D02*
X81890Y201732D01*
X181792Y221359D02*
Y226437D01*
X186221Y230866D01*
X139961Y202126D02*
X162559D01*
X181792Y221359D01*
X58563Y221565D02*
Y227421D01*
X62008Y230866D01*
X59055Y191496D02*
X69882Y180669D01*
X59055Y191496D02*
Y221073D01*
X58563Y221565D02*
X59055Y221073D01*
X199016Y68465D02*
X199151D01*
X199938Y66007D02*
Y67677D01*
X199151Y68465D02*
X199938Y67677D01*
Y66007D02*
X203189Y62756D01*
X211181D01*
X286024Y19842D02*
X294685Y11181D01*
X286024Y27913D02*
X286614Y28504D01*
X286024Y19842D02*
Y27913D01*
X91378Y131575D02*
X95571Y135768D01*
X90354Y167888D02*
X95571Y162671D01*
Y135768D02*
Y162671D01*
X285285Y113681D02*
X285413Y113809D01*
X334124D01*
X334252Y113937D01*
X296457Y20630D02*
Y24016D01*
X295276Y19449D02*
X296457Y20630D01*
X75590Y109446D02*
Y116693D01*
Y109446D02*
X77165Y107871D01*
Y94842D02*
Y107871D01*
X71850Y89527D02*
X77165Y94842D01*
X357776Y125197D02*
X361378D01*
X361614Y124961D01*
X354626Y113386D02*
X355020D01*
X354035Y113976D02*
Y114275D01*
X353642Y114668D02*
Y124590D01*
X349410Y128822D02*
X353642Y124590D01*
X354035Y113976D02*
X354626Y113386D01*
X353642Y114668D02*
X354035Y114275D01*
X300138Y121319D02*
X304429D01*
X299449Y122008D02*
X300138Y121319D01*
X297736Y122008D02*
X299449D01*
X325295D02*
X326083Y122795D01*
X322539Y122008D02*
X325295D01*
X322047Y121516D02*
X322539Y122008D01*
X318799Y121516D02*
X322047D01*
X318602Y121319D02*
X318799Y121516D01*
X296949Y122795D02*
X297736Y122008D01*
X299409Y118563D02*
X304429D01*
X319291Y134976D02*
Y136378D01*
X318602Y134288D02*
X319291Y134976D01*
X318602Y126634D02*
Y134288D01*
X320571Y117283D02*
X326083D01*
X319291Y118563D02*
X320571Y117283D01*
X318602Y118563D02*
X319291D01*
X318602Y123878D02*
Y126634D01*
X319291Y136378D02*
X320079Y137165D01*
X298130Y117283D02*
X299409Y118563D01*
X334449Y126796D02*
Y130669D01*
X333858Y126205D02*
X334449Y126796D01*
X333858Y125886D02*
Y126205D01*
X217717Y112402D02*
Y112500D01*
X216732Y111516D02*
X217717Y112500D01*
Y112402D02*
X218701Y111417D01*
X216732Y107095D02*
Y111516D01*
X218701Y107095D02*
Y111417D01*
X54134Y222353D02*
X54921Y221566D01*
Y188583D02*
Y221566D01*
Y188583D02*
X66732Y176772D01*
X54134Y222353D02*
Y222992D01*
X66142Y118661D02*
X67323D01*
X35236Y149567D02*
X66142Y118661D01*
X67323D02*
X68110Y117874D01*
X35236Y149567D02*
Y219843D01*
X68110Y116693D02*
Y117874D01*
X35236Y219843D02*
X38386Y222992D01*
X354291Y149213D02*
X354291Y149213D01*
X365945D01*
X354291Y161024D02*
X354291Y161024D01*
X365551D02*
X365551Y161024D01*
X354291Y161024D02*
X365551D01*
X354291Y166929D02*
X354291Y166929D01*
X365551D02*
X365551Y166929D01*
X354291Y166929D02*
X365551D01*
X354291Y172835D02*
X365551D01*
X354291Y172835D02*
X354291Y172835D01*
Y178740D02*
X365551D01*
X354291Y178740D02*
X354291Y178740D01*
X326119Y117320D02*
X329721D01*
X342717Y130315D01*
Y145256D01*
X326083Y117283D02*
X326119Y117320D01*
X339173Y136595D02*
Y146063D01*
X346260Y153150D02*
X354291D01*
X339173Y146063D02*
X346260Y153150D01*
X342717Y145256D02*
X348603Y151142D01*
X336870Y134291D02*
X339173Y136595D01*
X335236Y147244D02*
X345039Y157047D01*
X289587Y143307D02*
X293524Y147244D01*
X335236D01*
X345039Y157047D02*
X354252D01*
X354291Y157087D01*
X93405Y184311D02*
X103347Y194252D01*
X93209Y184311D02*
X93405D01*
X97047Y180669D02*
X98228D01*
X99016Y181457D02*
Y182047D01*
X98228Y180669D02*
X99016Y181457D01*
Y182047D02*
X108071Y191102D01*
X105709Y180669D02*
X106890D01*
X107677Y182441D02*
X113189Y187953D01*
X106890Y180669D02*
X107677Y181457D01*
Y182441D01*
X132874Y180669D02*
X133661Y181457D01*
Y181653D02*
X139616Y187608D01*
X131693Y180669D02*
X132874D01*
X139616Y187608D02*
Y187608D01*
X133661Y181457D02*
Y181653D01*
X359686Y140198D02*
X361221Y141732D01*
X353387Y140198D02*
X359686D01*
X361221Y141732D02*
Y145965D01*
X359980Y147205D02*
X361221Y145965D01*
X349410Y128822D02*
Y136221D01*
X353387Y140198D01*
X282874Y145236D02*
X284803Y143307D01*
X289587D01*
X282874Y145236D02*
Y145276D01*
X50197Y156083D02*
Y226929D01*
X46260Y230866D02*
X50197Y226929D01*
Y156083D02*
X85650Y120630D01*
X42717Y155905D02*
X82717Y115905D01*
X42717Y155905D02*
Y226535D01*
X38386Y230866D02*
X42717Y226535D01*
X204921Y89961D02*
X205118Y90158D01*
X204921Y85827D02*
Y89961D01*
X230856Y92963D02*
X232579Y91240D01*
X224813Y92963D02*
X230856D01*
X232579Y88071D02*
Y91240D01*
X230217Y160824D02*
Y161279D01*
X224606Y156870D02*
X227379Y159643D01*
X229035D01*
X230217Y160824D01*
X224606Y152276D02*
Y156870D01*
X205413Y180217D02*
X218701Y166929D01*
Y152276D02*
Y166929D01*
X194035Y179193D02*
Y180217D01*
X199508Y173721D02*
X207874D01*
X194035Y179193D02*
X199508Y173721D01*
X186437Y167815D02*
X204134D01*
X174035Y180217D02*
X186437Y167815D01*
X184035Y178980D02*
X192149Y170866D01*
X206398D01*
X204134Y167815D02*
X212795Y159153D01*
Y152276D02*
Y159153D01*
X206398Y170866D02*
X214764Y162500D01*
Y152276D02*
Y162500D01*
X216732Y152276D02*
Y164862D01*
X207874Y173721D02*
X216732Y164862D01*
X184035Y178980D02*
Y180217D01*
X162303Y93405D02*
X162402Y93504D01*
X162303Y89764D02*
Y93405D01*
X253413Y44221D02*
Y60957D01*
X240453Y73917D02*
X253413Y60957D01*
X245079Y74016D02*
X261516Y57579D01*
X268012D02*
X276315Y49276D01*
X261516Y57579D02*
X268012D01*
X276315Y44154D02*
Y49276D01*
X228543Y107095D02*
X243496D01*
X261910Y88681D01*
X257091Y99208D02*
X262170D01*
X241378Y114921D02*
X257091Y99208D01*
X236370Y114921D02*
X241378D01*
X261910Y88681D02*
X262697D01*
X236370Y116890D02*
X247087D01*
X255295Y108681D02*
X262697D01*
X247087Y116890D02*
X255295Y108681D01*
X256594Y133130D02*
Y141004D01*
X249705Y147894D02*
X256594Y141004D01*
Y133130D02*
X261043Y128681D01*
X166319Y126732D02*
X174193Y118858D01*
X191189D01*
X173760Y127421D02*
X183150D01*
X158681Y126732D02*
X166319D01*
X173257Y139795D02*
X174311Y138740D01*
X162894Y66043D02*
Y66363D01*
X162402Y66855D02*
Y70276D01*
Y66855D02*
X162894Y66363D01*
X111378Y161575D02*
X114370Y164567D01*
Y173189D01*
X105709Y154928D02*
Y173189D01*
X101378Y150598D02*
X105709Y154928D01*
X101378Y131575D02*
Y150598D01*
X92716Y176378D02*
X117067D01*
X118701Y174744D01*
Y169810D02*
Y174744D01*
Y169810D02*
X121378Y167133D01*
Y161575D02*
Y167133D01*
X97047Y170039D02*
X101378Y165709D01*
Y161575D02*
Y165709D01*
X86417Y131246D02*
X93044Y124619D01*
X86417Y131246D02*
Y151246D01*
X75787Y161876D02*
X86417Y151246D01*
X82717Y115905D02*
X87008D01*
X66732Y176772D02*
X73366D01*
X75787Y174350D01*
X111221Y89527D02*
X116535Y94842D01*
Y107871D01*
X114961Y109446D02*
X116535Y107871D01*
X114961Y109446D02*
Y116693D01*
X130905Y89527D02*
X136221Y94842D01*
Y107871D01*
X134646Y109446D02*
X136221Y107871D01*
X134646Y109446D02*
Y116693D01*
X97047Y170039D02*
Y173189D01*
X126693Y146102D02*
Y170709D01*
X124213Y173189D02*
X126693Y170709D01*
X123031Y173189D02*
X124213D01*
X112165Y131575D02*
X126693Y146102D01*
X111378Y131575D02*
X112165D01*
X91535Y89527D02*
X96850Y94842D01*
Y107871D01*
X95276Y109446D02*
X96850Y107871D01*
X95276Y109446D02*
Y116693D01*
X71063Y158031D02*
Y173189D01*
Y158031D02*
X81378Y147716D01*
Y131575D02*
Y147716D01*
X75787Y161876D02*
Y174350D01*
X121378Y131575D02*
X131693Y141890D01*
Y173189D01*
X79724Y167507D02*
Y173189D01*
Y167507D02*
X81378Y165853D01*
Y161575D02*
Y165853D01*
X88386Y173189D02*
X89567D01*
X90354Y172401D01*
Y167888D02*
Y172401D01*
X84449Y167717D02*
X90591Y161575D01*
X91378D01*
X103307Y203740D02*
X103543Y203504D01*
X102953Y203740D02*
X103307D01*
X100984Y205709D02*
X102953Y203740D01*
X87461Y205709D02*
X100984D01*
X84449Y202697D02*
X87461Y205709D01*
X84449Y167717D02*
Y202697D01*
X121457Y183622D02*
X139961Y202126D01*
X117126Y183622D02*
X121457D01*
X114370Y180866D02*
X117126Y183622D01*
X114370Y180669D02*
Y180866D01*
X141324Y197781D02*
X182859D01*
X124213Y180669D02*
X141324Y197781D01*
X123031Y180669D02*
X124213D01*
X182859Y197781D02*
X200197Y215118D01*
X146851Y222374D02*
Y222992D01*
X115579Y191102D02*
X146851Y222374D01*
X108071Y191102D02*
X115579D01*
X78543Y180669D02*
X79724D01*
X77961Y180087D02*
X78543Y180669D01*
X66339Y191710D02*
X77961Y180087D01*
X66339Y191710D02*
Y218661D01*
X62008Y222992D02*
X66339Y218661D01*
X69882Y180669D02*
X71063D01*
X93044Y124619D02*
X112920D01*
X120846Y116693D01*
X127165D01*
X89567Y180669D02*
X93209Y184311D01*
X88386Y180669D02*
X89567D01*
X131103Y230866D02*
X135236Y226733D01*
Y221322D02*
Y226733D01*
X131788Y217874D02*
X135236Y221322D01*
X129724Y217874D02*
X131788D01*
X115551Y203701D02*
X129724Y217874D01*
X115551Y197306D02*
Y203701D01*
X112497Y194252D02*
X115551Y197306D01*
X103347Y194252D02*
X112497D01*
X148426Y208819D02*
X162599Y222992D01*
X141535Y208819D02*
X148426D01*
X120669Y187953D02*
X141535Y208819D01*
X113189Y187953D02*
X120669D01*
X199877Y210000D02*
X200197D01*
X199287Y209409D02*
X199877Y210000D01*
X199154Y209409D02*
X199287D01*
X183308Y193563D02*
X199154Y209409D01*
X145571Y193563D02*
X183308D01*
X139616Y187608D02*
X145571Y193563D01*
X87008Y115905D02*
X87795Y116693D01*
X101161D02*
X107480D01*
X97224Y120630D02*
X101161Y116693D01*
X85650Y120630D02*
X97224D01*
X92943Y195108D02*
Y195620D01*
X95709Y198386D01*
X96063D01*
X92716Y194882D02*
X92943Y195108D01*
X191142Y79921D02*
Y92894D01*
X182283Y71063D02*
X191142Y79921D01*
Y92894D02*
X196083Y97835D01*
X220669Y107095D02*
Y114961D01*
X221063Y115354D01*
X191189Y114921D02*
X197795D01*
X197835Y114961D01*
X191189Y144449D02*
X198583D01*
X198622Y144488D01*
X220669Y146063D02*
Y152276D01*
X191189Y140512D02*
X196614D01*
X196653Y140551D01*
X222638Y111433D02*
X223577Y112372D01*
X224380D01*
X224606Y112598D01*
X222638Y107095D02*
Y111433D01*
X224606Y112598D02*
X224832Y112372D01*
X225636D02*
X226575Y111433D01*
Y107095D02*
Y111433D01*
X224832Y112372D02*
X225636D01*
X220669Y102913D02*
Y107095D01*
X198097Y132047D02*
X198417D01*
X197507Y132638D02*
X198097Y132047D01*
X191189Y132638D02*
X197507D01*
X200157Y134606D02*
X200197Y134646D01*
X191189Y134606D02*
X200157D01*
X203701Y81201D02*
Y81946D01*
X204488Y82733D02*
X206158D01*
X203701Y81946D02*
X204488Y82733D01*
X199803Y69252D02*
Y87497D01*
X197638Y89370D02*
Y90158D01*
Y89370D02*
X198819Y88189D01*
X199111D01*
X199803Y87497D01*
X198819Y92323D02*
X204921Y98425D01*
X197638Y90158D02*
X198819Y91339D01*
Y92323D01*
X204921Y98425D02*
Y107095D01*
X199016Y68465D02*
X199803Y69252D01*
X195866Y76772D02*
X196043Y76949D01*
Y81024D01*
X196221Y81201D01*
X206890Y107095D02*
Y112264D01*
X196083Y97835D02*
X199213D01*
X202953Y101575D01*
Y107095D01*
X194283Y100394D02*
X197758D01*
X200984Y103620D01*
X186606Y92716D02*
X194283Y100394D01*
X178150Y92716D02*
X186606D01*
X200984Y103620D02*
Y107095D01*
X173819Y111575D02*
X173917Y111673D01*
X162402Y86024D02*
X163189D01*
X169882Y92716D02*
X178150D01*
X163189Y86024D02*
X169882Y92716D01*
X163189Y77756D02*
X169882Y71063D01*
X178150D01*
X162402Y77756D02*
X163189D01*
X178150Y71063D02*
X182283D01*
X276969Y21024D02*
Y29291D01*
Y21024D02*
X281299D01*
X254232Y19783D02*
Y26437D01*
Y19783D02*
X254331Y19685D01*
X254134Y26535D02*
X254232Y26437D01*
X369094Y123779D02*
X369903Y122971D01*
X369094Y123779D02*
Y134449D01*
X369882Y116378D02*
X369903Y116399D01*
Y122971D01*
X369094Y134449D02*
X369094Y134449D01*
X369094D02*
X380748D01*
X357283D02*
X369094D01*
X358819Y147205D02*
X359980D01*
X358070Y117716D02*
X361221D01*
X362402Y116535D01*
Y116378D02*
Y116535D01*
X346654Y142126D02*
X349764Y145236D01*
X347638Y123622D02*
X348425Y122835D01*
Y120472D02*
Y122835D01*
X346654Y124314D02*
X347345Y123622D01*
X347638D01*
X346654Y124314D02*
Y142126D01*
X348425Y120472D02*
X350886Y118012D01*
Y112638D02*
Y118012D01*
X349960Y111713D02*
X350886Y112638D01*
X348563Y111713D02*
X349960D01*
X348327Y111476D02*
X348563Y111713D01*
X380748Y134449D02*
Y191535D01*
X357283D02*
X380748D01*
X331791Y134291D02*
X336870D01*
X330276Y132775D02*
X331791Y134291D01*
X330276Y128583D02*
Y132775D01*
X328051Y126358D02*
X330276Y128583D01*
X328051Y123583D02*
Y126358D01*
X327264Y122795D02*
X328051Y123583D01*
X326083Y122795D02*
X327264D01*
X354252Y151142D02*
X354291Y151181D01*
X348603Y151142D02*
X354252D01*
X103189Y198386D02*
X103543D01*
X100591Y198583D02*
X102992D01*
X103189Y198386D01*
X99410Y197795D02*
X99803D01*
X100591Y198583D01*
X96063Y203504D02*
X96299Y203268D01*
X103543Y200945D02*
X111417D01*
X118898D02*
Y201237D01*
X119685Y202025D01*
X121355D01*
X99410Y193934D02*
Y197795D01*
X88583Y200945D02*
X96063D01*
X99410Y197795D02*
Y201555D01*
X97697Y203268D02*
X99410Y201555D01*
X96299Y203268D02*
X97697D01*
X121355Y202025D02*
X138977Y219646D01*
Y222992D01*
X244193Y80177D02*
X246161Y82146D01*
X187715Y120827D02*
X191189D01*
X220669Y102913D02*
X227264Y96319D01*
X218209Y96516D02*
X219783D01*
X220522Y97254D01*
X224813Y92963D01*
X185432Y123109D02*
X187715Y120827D01*
X183150Y127421D02*
X185432Y125139D01*
Y123109D02*
Y125139D01*
X246161Y82146D02*
Y89429D01*
X224606Y103620D02*
Y107095D01*
X261043Y128681D02*
X262697D01*
X244980Y89429D02*
X246161D01*
X246161Y89429D02*
X246161Y89429D01*
X236370Y118858D02*
X262520D01*
X262697Y118681D01*
X262170Y99208D02*
X262697Y98681D01*
X227264Y96319D02*
X228051D01*
X229613Y101036D02*
X232198Y98452D01*
X224606Y103620D02*
X227190Y101036D01*
X232198Y95932D02*
Y98452D01*
X227190Y101036D02*
X229613D01*
X235925Y89429D02*
X237106D01*
X235138Y90216D02*
Y92992D01*
Y90216D02*
X235925Y89429D01*
X232198Y95932D02*
X235138Y92992D01*
X232579Y88071D02*
X233977Y86673D01*
X242224D01*
X244980Y89429D01*
X230217Y161279D02*
X235138D01*
X162205Y116890D02*
X191189D01*
X161417Y116890D02*
X162205D01*
X153543D02*
X154331Y117677D01*
X162205Y116890D02*
X162205Y116890D01*
X160630Y117677D02*
X161417Y116890D01*
X153445D02*
X153543D01*
X154331Y117677D02*
Y120236D01*
X157677Y123583D01*
X160630Y117677D02*
Y123386D01*
X157677Y125728D02*
X158681Y126732D01*
X157677Y123583D02*
Y125728D01*
X220669Y152276D02*
Y154935D01*
X220669Y154935D01*
X221555Y156636D02*
Y160098D01*
X222736Y161279D01*
X220669Y155750D02*
X221555Y156636D01*
X220669Y154935D02*
Y155750D01*
X210827Y152276D02*
Y155750D01*
X202434Y161109D02*
X205467D01*
X210827Y155750D01*
X201870Y161673D02*
X202434Y161109D01*
X168563Y157343D02*
X168996Y156909D01*
X238683Y144449D02*
X242128Y147894D01*
X249705D01*
X236370Y144449D02*
X238683D01*
X206791Y112362D02*
X206890Y112264D01*
X296949Y122795D02*
X296949Y122795D01*
X290551Y122795D02*
X296949D01*
X288386Y117283D02*
X298130D01*
X288386Y117283D02*
X288386Y117283D01*
X309252Y20039D02*
X309941Y19350D01*
Y11280D02*
X310039Y11181D01*
X309941Y11280D02*
Y19350D01*
X294685Y11181D02*
X302559D01*
X226575Y27185D02*
Y28858D01*
X315158Y27126D02*
X315945D01*
X317323Y19449D02*
Y25748D01*
X315945Y27126D02*
X317323Y25748D01*
X224410Y53307D02*
Y54094D01*
X253413Y44221D02*
X253480Y44154D01*
X305315Y25748D02*
X306496Y24567D01*
X305315Y25748D02*
Y28346D01*
X309252Y20039D02*
Y25547D01*
X307283Y27516D02*
X309252Y25547D01*
X302756Y19449D02*
X303346Y20039D01*
Y28346D01*
X376476Y74173D02*
Y80866D01*
X334252Y113937D02*
X334301Y113986D01*
X340797D01*
X340846Y114035D01*
X288976Y130433D02*
Y136378D01*
X295866Y143268D01*
X297047D01*
X268982Y38396D02*
X276167D01*
X276315Y38248D01*
X268835Y38543D02*
X268982Y38396D01*
X260813D02*
X260961Y38543D01*
X253628Y38396D02*
X260813D01*
X253480Y38248D02*
X253628Y38396D01*
D85*
X354142Y180560D02*
X354291Y180709D01*
X290551Y191732D02*
X290551D01*
X348759Y180560D02*
X354142D01*
X280315Y211614D02*
Y212205D01*
X347696Y179497D02*
X348759Y180560D01*
X290551Y191732D02*
X302787Y179497D01*
X347696D01*
X279536Y210835D02*
X280315Y211614D01*
X279377Y210835D02*
X279536D01*
X278906Y203377D02*
X290551Y191732D01*
X278906Y210364D02*
X279377Y210835D01*
X278906Y203377D02*
Y210364D01*
X289925Y190219D02*
X302160Y177984D01*
X289924Y190219D02*
X289925D01*
X302160Y177984D02*
X347696D01*
X277393Y202751D02*
Y210364D01*
Y202751D02*
X289924Y190219D01*
X354142Y176921D02*
X354291Y176772D01*
X347696Y177984D02*
X348759Y176921D01*
X354142D01*
X275984Y211614D02*
Y212205D01*
X276922Y210835D02*
X277393Y210364D01*
X275984Y211614D02*
X276763Y210835D01*
X276922D01*
Y213574D02*
X277393Y214045D01*
X275984Y212205D02*
Y212795D01*
X277393Y214045D02*
Y216843D01*
X281943Y221392D02*
Y222133D01*
X281472Y222605D02*
X281943Y222133D01*
X278838Y222992D02*
X279226Y222605D01*
X280315Y212205D02*
Y212795D01*
X278906Y214045D02*
X279377Y213574D01*
X279536D01*
X278906Y214045D02*
Y216216D01*
X283456Y220766D01*
Y222980D01*
X280187Y226249D02*
X283456Y222980D01*
X274238Y222997D02*
X277490Y226249D01*
X279536Y213574D02*
X280315Y212795D01*
X277393Y216843D02*
X281943Y221392D01*
X270970Y222997D02*
X274238D01*
X270964Y222992D02*
X270970Y222997D01*
X277490Y226249D02*
X280187D01*
X279226Y222605D02*
X281472D01*
X276763Y213574D02*
X276922D01*
X275984Y212795D02*
X276763Y213574D01*
X263153Y189038D02*
X280113Y172078D01*
X347696D01*
X263153Y189038D02*
X263153D01*
X354142Y171015D02*
X354291Y170866D01*
X347696Y172078D02*
X348759Y171015D01*
X354142D01*
X258661Y202559D02*
X259440Y201780D01*
X259599D01*
X258661Y202559D02*
Y203150D01*
X260070Y192121D02*
Y201309D01*
Y192121D02*
X263153Y189038D01*
X259599Y201780D02*
X260070Y201309D01*
X354142Y174654D02*
X354291Y174803D01*
X348759Y174654D02*
X354142D01*
X263779Y190551D02*
X263780D01*
X347696Y173591D02*
X348759Y174654D01*
X263780Y190551D02*
X280739Y173591D01*
X347696D01*
X262213Y201780D02*
X262992Y202559D01*
Y203150D01*
X262055Y201780D02*
X262213D01*
X261583Y192747D02*
X263779Y190551D01*
X261583Y201309D02*
X262055Y201780D01*
X261583Y192747D02*
Y201309D01*
X258473Y214762D02*
Y222980D01*
X259599Y204519D02*
X260070Y204990D01*
X266478Y226379D02*
X270964Y230866D01*
X258473Y214762D02*
X260070Y213165D01*
X262213Y204519D02*
X262992Y203740D01*
X259986Y215389D02*
X261583Y213791D01*
Y204990D02*
X262055Y204519D01*
X258473Y222980D02*
X261872Y226379D01*
X260070Y204990D02*
Y213165D01*
X258661Y203740D02*
X259440Y204519D01*
X259986Y215389D02*
Y222133D01*
X261583Y204990D02*
Y213791D01*
X259440Y204519D02*
X259599D01*
X259986Y222133D02*
X260457Y222605D01*
X261872Y226379D02*
X266478D01*
X262703Y222605D02*
X263090Y222992D01*
X260457Y222605D02*
X262703D01*
X258661Y203150D02*
Y203740D01*
X262992Y203150D02*
Y203740D01*
X262055Y204519D02*
X262213D01*
X245387Y194206D02*
X245387D01*
X273420Y166173D01*
X244944Y194649D02*
Y202181D01*
Y194649D02*
X245387Y194206D01*
X348759Y165110D02*
X354142D01*
X354291Y164961D01*
X273420Y166173D02*
X347696D01*
X348759Y165110D01*
X240158Y211614D02*
X240936Y210835D01*
X241095D01*
X240158Y211614D02*
Y212205D01*
X241566Y205559D02*
Y210364D01*
Y205559D02*
X244944Y202181D01*
X241095Y210835D02*
X241566Y210364D01*
X354142Y168749D02*
X354291Y168898D01*
X246457Y195276D02*
Y202808D01*
X348759Y168749D02*
X354142D01*
X244488Y211614D02*
Y212205D01*
X347696Y167686D02*
X348759Y168749D01*
X246457Y195276D02*
X274047Y167686D01*
X347696D01*
X243709Y210835D02*
X244488Y211614D01*
X243551Y210835D02*
X243709D01*
X243079Y206185D02*
X246457Y202808D01*
X243079Y210364D02*
X243551Y210835D01*
X243079Y206185D02*
Y210364D01*
X241566Y215793D02*
X244755Y218981D01*
X240158Y212795D02*
X240936Y213574D01*
X240158Y212205D02*
Y212795D01*
X244755Y218981D02*
X247961D01*
X241566Y214045D02*
Y215793D01*
X241095Y213574D02*
X241566Y214045D01*
X250447Y221467D02*
Y222133D01*
X247961Y218981D02*
X250447Y221467D01*
X247730Y222605D02*
X249975D01*
X250447Y222133D01*
X243551Y213574D02*
X243709D01*
X244488Y212795D01*
X243079Y214045D02*
X243551Y213574D01*
X243079Y215166D02*
X245381Y217468D01*
X243079Y214045D02*
Y215166D01*
X248588Y217468D02*
X251960Y220840D01*
X245381Y217468D02*
X248588D01*
X240936Y213574D02*
X241095D01*
X243955Y226379D02*
X248561D01*
X251960Y222980D01*
Y220840D02*
Y222980D01*
X244488Y212205D02*
Y212795D01*
X247342Y222992D02*
X247730Y222605D01*
X239468Y230866D02*
X243955Y226379D01*
X226780Y201780D02*
X227559Y202559D01*
X348759Y162843D02*
X354142D01*
X227559Y202559D02*
Y203150D01*
X354142Y162843D02*
X354291Y162992D01*
X347696Y161780D02*
X348759Y162843D01*
X264293Y161780D02*
X347696D01*
X226622Y201780D02*
X226780D01*
X226150Y201309D02*
X226622Y201780D01*
X226150Y199923D02*
X264293Y161780D01*
X226150Y199923D02*
Y201309D01*
X224637Y199296D02*
X263667Y160267D01*
X347696D01*
X224637Y199296D02*
Y201309D01*
X354142Y159204D02*
X354291Y159055D01*
X347696Y160267D02*
X348759Y159204D01*
X354142D01*
X223228Y202559D02*
X224007Y201780D01*
X223228Y202559D02*
Y203150D01*
X224166Y201780D02*
X224637Y201309D01*
X224007Y201780D02*
X224166D01*
X223228Y203740D02*
X224007Y204519D01*
X224166D02*
X224637Y204990D01*
X218934Y216900D02*
Y224975D01*
X228448Y223304D02*
X231283D01*
X221568Y227610D02*
X224141D01*
X226150Y204990D02*
Y211823D01*
X218934Y224975D02*
X221568Y227610D01*
X223228Y203150D02*
Y203740D01*
X220447Y217527D02*
X226150Y211823D01*
X227559Y203150D02*
Y203740D01*
X218934Y216900D02*
X224637Y211196D01*
Y204990D02*
Y211196D01*
X223333Y223380D02*
X223720Y222992D01*
X226622Y204519D02*
X226780D01*
X220447Y224348D02*
X222195Y226097D01*
X226150Y204990D02*
X226622Y204519D01*
X222195Y226097D02*
X222862D01*
X226780Y204519D02*
X227559Y203740D01*
X222862Y226097D02*
X223333Y225625D01*
X231283Y223304D02*
X231594Y222992D01*
X224007Y204519D02*
X224166D01*
X223333Y223380D02*
Y225625D01*
X220447Y217527D02*
Y224348D01*
X224141Y227610D02*
X228448Y223304D01*
D86*
X232552Y65086D02*
X232552D01*
X211003Y86635D02*
Y103582D01*
X212698Y106997D02*
X212795Y107095D01*
X212698Y103660D02*
Y106997D01*
X211003Y86635D02*
X232552Y65086D01*
X212619Y87305D02*
Y103582D01*
Y87305D02*
X234214Y65710D01*
X210827Y107095D02*
X210924Y106997D01*
X212619Y103582D02*
X212698Y103660D01*
X210924D02*
Y106997D01*
X234214Y65710D02*
X248742Y51183D01*
X210924Y103660D02*
X211003Y103582D01*
X246948Y19979D02*
Y22348D01*
X247125Y22526D02*
Y50513D01*
X246948Y22348D02*
X247125Y22526D01*
X248742D02*
Y51183D01*
Y22526D02*
X248919Y22348D01*
X246654Y19685D02*
X246948Y19979D01*
X248919D02*
X249213Y19685D01*
X248919Y19979D02*
Y22348D01*
X232552Y65086D02*
X247125Y50513D01*
D87*
X292998Y70866D02*
X310241D01*
X315709Y76334D01*
X287598Y53701D02*
X288386Y54488D01*
Y66254D01*
X292998Y70866D01*
X315709Y76334D02*
Y81260D01*
D88*
X122795Y222992D02*
X131103D01*
X117126Y217323D02*
X122795Y222992D01*
X112402Y217323D02*
X117126D01*
D89*
X285630Y34055D02*
D03*
D90*
X71850Y105669D02*
D03*
Y73386D02*
D03*
X130905Y105669D02*
D03*
Y73386D02*
D03*
X111221D02*
D03*
Y105669D02*
D03*
X91535Y73386D02*
D03*
Y105669D02*
D03*
D91*
X345472Y30315D02*
D03*
D92*
Y54724D02*
D03*
X377953Y15748D02*
D03*
X15748D02*
D03*
Y224410D02*
D03*
X377953D02*
D03*
D93*
X363976Y42126D02*
D03*
D94*
X131103Y222992D02*
D03*
X138977D02*
D03*
X146851D02*
D03*
X154725D02*
D03*
X162599D02*
D03*
X170473D02*
D03*
X178347D02*
D03*
X186221D02*
D03*
X194095D02*
D03*
X131103Y230866D02*
D03*
X138977D02*
D03*
X146851D02*
D03*
X154725D02*
D03*
X162599D02*
D03*
X170473D02*
D03*
X178347D02*
D03*
X186221D02*
D03*
X194095D02*
D03*
X201969D02*
D03*
X109252D02*
D03*
X101378D02*
D03*
X93504D02*
D03*
X85630D02*
D03*
X77756D02*
D03*
X69882D02*
D03*
X62008D02*
D03*
X54134D02*
D03*
X46260D02*
D03*
X38386D02*
D03*
X101378Y222992D02*
D03*
X93504D02*
D03*
X85630D02*
D03*
X77756D02*
D03*
X69882D02*
D03*
X62008D02*
D03*
X54134D02*
D03*
X46260D02*
D03*
X38386D02*
D03*
X223720D02*
D03*
X231594D02*
D03*
X239468D02*
D03*
X247342D02*
D03*
X255216D02*
D03*
X263090D02*
D03*
X270964D02*
D03*
X278838D02*
D03*
X286713D02*
D03*
X223720Y230866D02*
D03*
X231594D02*
D03*
X239468D02*
D03*
X247342D02*
D03*
X255216D02*
D03*
X263090D02*
D03*
X270964D02*
D03*
X278838D02*
D03*
X286713D02*
D03*
X294586D02*
D03*
D95*
X201969Y222992D02*
D03*
X109252D02*
D03*
X294586D02*
D03*
D96*
X315709Y81260D02*
D03*
X305709D02*
D03*
X204921Y181496D02*
D03*
X194921D02*
D03*
X184921D02*
D03*
X174921D02*
D03*
D97*
X295709Y81260D02*
D03*
X214921Y181496D02*
D03*
D98*
X357283Y191535D02*
D03*
Y134449D02*
D03*
D99*
X380748Y191535D02*
D03*
Y134449D02*
D03*
D100*
X40146Y37780D02*
D03*
Y27779D02*
D03*
X50146Y37780D02*
D03*
Y27779D02*
D03*
X60146Y37780D02*
D03*
Y27779D02*
D03*
X70146Y37780D02*
D03*
Y27779D02*
D03*
X80146Y37780D02*
D03*
Y27779D02*
D03*
X90146Y37780D02*
D03*
Y27779D02*
D03*
X130146Y37780D02*
D03*
Y27779D02*
D03*
X140146Y37780D02*
D03*
Y27779D02*
D03*
X150146Y37780D02*
D03*
Y27779D02*
D03*
X160146Y37780D02*
D03*
Y27779D02*
D03*
X170146Y37780D02*
D03*
Y27779D02*
D03*
X180146Y37780D02*
D03*
Y27779D02*
D03*
D101*
X262795Y129449D02*
D03*
Y89449D02*
D03*
Y99449D02*
D03*
Y109449D02*
D03*
Y119449D02*
D03*
D102*
Y79449D02*
D03*
D103*
X121378Y161575D02*
D03*
X111378D02*
D03*
X101378D02*
D03*
X91378D02*
D03*
X81378D02*
D03*
X121378Y131575D02*
D03*
X111378D02*
D03*
X101378D02*
D03*
X91378D02*
D03*
D104*
X81378D02*
D03*
D105*
X160630Y137008D02*
D03*
X217323Y206693D02*
D03*
X234252Y215748D02*
D03*
X233586Y207087D02*
D03*
X252756Y215354D02*
D03*
X253937Y207087D02*
D03*
X268898D02*
D03*
X270079Y215748D02*
D03*
X289370Y212205D02*
D03*
X370512Y204724D02*
D03*
Y165354D02*
D03*
X380354Y27559D02*
D03*
X370512Y7874D02*
D03*
X350827Y204724D02*
D03*
X360669Y185039D02*
D03*
X350827Y86614D02*
D03*
X360669Y27559D02*
D03*
X350827Y7874D02*
D03*
X331142Y204724D02*
D03*
X340984Y185039D02*
D03*
X331142Y7874D02*
D03*
X311457Y204724D02*
D03*
X321299Y185039D02*
D03*
Y66929D02*
D03*
X291772Y204724D02*
D03*
X301614Y106299D02*
D03*
X291772Y7874D02*
D03*
X281929Y106299D02*
D03*
X272087Y86614D02*
D03*
Y7874D02*
D03*
X262244Y27559D02*
D03*
X222874Y185039D02*
D03*
X213032Y7874D02*
D03*
X193347D02*
D03*
X173661Y86614D02*
D03*
Y7874D02*
D03*
X163819Y185039D02*
D03*
X153976Y7874D02*
D03*
X134291Y47244D02*
D03*
Y7874D02*
D03*
X124449Y106299D02*
D03*
Y66929D02*
D03*
X114606Y47244D02*
D03*
X124449Y27559D02*
D03*
X114606Y7874D02*
D03*
X104764Y145669D02*
D03*
Y106299D02*
D03*
Y66929D02*
D03*
X94921Y47244D02*
D03*
X104764Y27559D02*
D03*
X94921Y7874D02*
D03*
X85079Y106299D02*
D03*
Y66929D02*
D03*
X75236Y7874D02*
D03*
X65394Y145669D02*
D03*
Y106299D02*
D03*
X55551Y47244D02*
D03*
Y7874D02*
D03*
X45709Y185039D02*
D03*
Y145669D02*
D03*
X35866Y125984D02*
D03*
X45709Y106299D02*
D03*
X35866Y7874D02*
D03*
X26024Y224410D02*
D03*
X16181Y204724D02*
D03*
X26024Y185039D02*
D03*
X16181Y47244D02*
D03*
X26024Y27559D02*
D03*
X379724Y68110D02*
D03*
X341535Y84646D02*
D03*
X361221Y90158D02*
D03*
X354134D02*
D03*
X322638Y53543D02*
D03*
X192028Y58858D02*
D03*
Y55610D02*
D03*
X192126Y51772D02*
D03*
Y47933D02*
D03*
Y44291D02*
D03*
X285285Y113681D02*
D03*
X112402Y217323D02*
D03*
X296457Y24016D02*
D03*
X357776Y125197D02*
D03*
X339961Y108661D02*
D03*
X344685Y116732D02*
D03*
X333858Y125886D02*
D03*
X217717Y112500D02*
D03*
X365945Y149213D02*
D03*
X365551Y161024D02*
D03*
Y166929D02*
D03*
Y172835D02*
D03*
Y178740D02*
D03*
X285630Y147244D02*
D03*
X282874Y145276D02*
D03*
X357677Y90158D02*
D03*
X341535Y88976D02*
D03*
X207283Y35591D02*
D03*
X204921Y85827D02*
D03*
X226181Y82677D02*
D03*
X223819Y84646D02*
D03*
X264764Y50787D02*
D03*
X184843Y105905D02*
D03*
X194685D02*
D03*
X366732Y70079D02*
D03*
Y74410D02*
D03*
X370669Y70079D02*
D03*
Y74410D02*
D03*
X241535Y129528D02*
D03*
X252559Y131496D02*
D03*
X252658Y138583D02*
D03*
X245571Y101181D02*
D03*
X162303Y89764D02*
D03*
X169921Y119449D02*
D03*
X240453Y73917D02*
D03*
X245079Y74016D02*
D03*
X173721Y132480D02*
D03*
X173257Y143771D02*
D03*
X162894Y66043D02*
D03*
X301772Y137205D02*
D03*
X92716Y176378D02*
D03*
X88571Y194567D02*
D03*
X115945Y214173D02*
D03*
X92716Y194882D02*
D03*
X196653Y140551D02*
D03*
X206791Y112362D02*
D03*
X224606Y112598D02*
D03*
X198417Y132047D02*
D03*
X200197Y134646D02*
D03*
X198327Y164035D02*
D03*
X195866Y76772D02*
D03*
X211122Y53150D02*
D03*
X174606Y105905D02*
D03*
X287205Y122835D02*
D03*
X285335Y110433D02*
D03*
X358070Y117716D02*
D03*
X279724Y41339D02*
D03*
X249410Y74114D02*
D03*
X236221Y73819D02*
D03*
X204134Y135039D02*
D03*
X198228Y128347D02*
D03*
X99410Y193934D02*
D03*
X175394Y123327D02*
D03*
X152854Y131791D02*
D03*
X169488Y151476D02*
D03*
X252559Y124016D02*
D03*
X235138Y161279D02*
D03*
X195472Y156988D02*
D03*
X241535Y135827D02*
D03*
X237106Y101181D02*
D03*
X290551Y122795D02*
D03*
X288386Y117283D02*
D03*
X202953Y207539D02*
D03*
X197736Y217776D02*
D03*
X243110Y26732D02*
D03*
X311417Y130413D02*
D03*
X311024Y124508D02*
D03*
X305307Y110106D02*
D03*
X304626Y131457D02*
D03*
X321555Y131653D02*
D03*
X306496Y24567D02*
D03*
X305307Y39240D02*
D03*
X314764Y39134D02*
D03*
X362402Y74410D02*
D03*
X230610Y23228D02*
D03*
X299410Y28898D02*
D03*
X323031Y30866D02*
D03*
X315158D02*
D03*
X299410Y31653D02*
D03*
Y34409D02*
D03*
X281299Y21024D02*
D03*
X254134Y26535D02*
D03*
X224114Y57874D02*
D03*
X207283Y27323D02*
D03*
X260039Y50787D02*
D03*
X362402Y70079D02*
D03*
X200197Y210000D02*
D03*
Y215118D02*
D03*
X317520Y109213D02*
D03*
M02*
