G04*
G04 #@! TF.GenerationSoftware,Altium Limited,Altium Designer,25.2.1 (25)*
G04*
G04 Layer_Physical_Order=3*
G04 Layer_Color=128*
%FSLAX25Y25*%
%MOIN*%
G70*
G04*
G04 #@! TF.SameCoordinates,382838D2-828E-4769-9F82-A9EE904C746A*
G04*
G04*
G04 #@! TF.FilePolarity,Negative*
G04*
G01*
G75*
%ADD73C,0.04528*%
%ADD91C,0.14173*%
%ADD93C,0.12205*%
%ADD94C,0.04134*%
%ADD103C,0.04724*%
%ADD106C,0.04000*%
%ADD107C,0.07480*%
%ADD108C,0.05906*%
%ADD109O,0.11417X0.05118*%
%ADD110O,0.08268X0.05118*%
%ADD111C,0.05669*%
%ADD112C,0.02756*%
D73*
X131103Y222992D02*
D03*
X138977D02*
D03*
X146851D02*
D03*
X154725D02*
D03*
X162599D02*
D03*
X170473D02*
D03*
X178347D02*
D03*
X186221D02*
D03*
X201969D02*
D03*
X131103Y230866D02*
D03*
X138977D02*
D03*
X146851D02*
D03*
X154725D02*
D03*
X170473D02*
D03*
X178347D02*
D03*
X186221D02*
D03*
X201969D02*
D03*
X109252D02*
D03*
X93504D02*
D03*
X85630D02*
D03*
X77756D02*
D03*
X62008D02*
D03*
X54134D02*
D03*
X46260D02*
D03*
X38386D02*
D03*
X109252Y222992D02*
D03*
X93504D02*
D03*
X85630D02*
D03*
X77756D02*
D03*
X69882D02*
D03*
X62008D02*
D03*
X54134D02*
D03*
X46260D02*
D03*
X38386D02*
D03*
X223720D02*
D03*
X231594D02*
D03*
X239468D02*
D03*
X247342D02*
D03*
X255216D02*
D03*
X263090D02*
D03*
X270964D02*
D03*
X278838D02*
D03*
X294586D02*
D03*
X223720Y230866D02*
D03*
X231594D02*
D03*
X239468D02*
D03*
X247342D02*
D03*
X263090D02*
D03*
X270964D02*
D03*
X278838D02*
D03*
X294586D02*
D03*
D91*
X377953Y15748D02*
D03*
X15748D02*
D03*
Y224410D02*
D03*
X377953D02*
D03*
D93*
X345472Y54724D02*
D03*
D94*
X121378Y161575D02*
D03*
X111378D02*
D03*
X101378D02*
D03*
X91378D02*
D03*
X81378D02*
D03*
X121378Y131575D02*
D03*
X111378D02*
D03*
X101378D02*
D03*
X91378D02*
D03*
X81378D02*
D03*
D103*
X71850Y89527D02*
D03*
Y97401D02*
D03*
X130905Y89527D02*
D03*
Y97401D02*
D03*
X111221D02*
D03*
Y89527D02*
D03*
X91535Y97401D02*
D03*
Y89527D02*
D03*
D106*
X0Y0D02*
X393701D01*
X0D02*
Y240158D01*
X393701D01*
Y0D02*
Y240158D01*
D107*
X71850Y105669D02*
D03*
Y73386D02*
D03*
X130905Y105669D02*
D03*
Y73386D02*
D03*
X111221D02*
D03*
Y105669D02*
D03*
X91535Y73386D02*
D03*
Y105669D02*
D03*
D108*
X315709Y81260D02*
D03*
X305709D02*
D03*
X295709D02*
D03*
X204921Y181496D02*
D03*
X194921D02*
D03*
X184921D02*
D03*
X174921D02*
D03*
X262795Y129449D02*
D03*
Y89449D02*
D03*
Y99449D02*
D03*
Y109449D02*
D03*
Y119449D02*
D03*
D109*
X357283Y191535D02*
D03*
Y134449D02*
D03*
D110*
X380748Y191535D02*
D03*
Y134449D02*
D03*
D111*
X40146Y37780D02*
D03*
Y27779D02*
D03*
X60146Y37780D02*
D03*
Y27779D02*
D03*
X70146Y37780D02*
D03*
Y27779D02*
D03*
X80146Y37780D02*
D03*
Y27779D02*
D03*
X90146Y37780D02*
D03*
Y27779D02*
D03*
X130146Y37780D02*
D03*
Y27779D02*
D03*
X150146Y37780D02*
D03*
Y27779D02*
D03*
X160146Y37780D02*
D03*
Y27779D02*
D03*
X170146Y37780D02*
D03*
Y27779D02*
D03*
X180146Y37780D02*
D03*
Y27779D02*
D03*
D112*
X217323Y206693D02*
D03*
X234252Y215748D02*
D03*
X233586Y207087D02*
D03*
X252756Y215354D02*
D03*
X253937Y207087D02*
D03*
X268898D02*
D03*
X270079Y215748D02*
D03*
X289370Y212205D02*
D03*
X192028Y58858D02*
D03*
Y55610D02*
D03*
X192126Y51772D02*
D03*
Y47933D02*
D03*
Y44291D02*
D03*
X285285Y113681D02*
D03*
X112402Y217323D02*
D03*
X296457Y24016D02*
D03*
X339961Y108661D02*
D03*
X282874Y145276D02*
D03*
X264764Y50787D02*
D03*
X366732Y70079D02*
D03*
Y74410D02*
D03*
X370669Y70079D02*
D03*
Y74410D02*
D03*
X252559Y131496D02*
D03*
X252658Y138583D02*
D03*
X245571Y101181D02*
D03*
X169921Y119449D02*
D03*
X240453Y73917D02*
D03*
X245079Y74016D02*
D03*
X173721Y132480D02*
D03*
X301772Y137205D02*
D03*
X92716Y176378D02*
D03*
Y194882D02*
D03*
X198417Y132047D02*
D03*
X200197Y134646D02*
D03*
X198327Y164035D02*
D03*
X99410Y193934D02*
D03*
X252559Y124016D02*
D03*
X237106Y101181D02*
D03*
X290551Y122795D02*
D03*
X288386Y117283D02*
D03*
X243110Y26732D02*
D03*
X311417Y130413D02*
D03*
X311024Y124508D02*
D03*
X305307Y110106D02*
D03*
X321555Y131653D02*
D03*
X306496Y24567D02*
D03*
X305307Y39240D02*
D03*
X314764Y39134D02*
D03*
X362402Y74410D02*
D03*
X260039Y50787D02*
D03*
X362402Y70079D02*
D03*
X200197Y210000D02*
D03*
Y215118D02*
D03*
X317520Y109213D02*
D03*
M02*
